{
  "asset": {
    "version": "2.0",
    "generator": "Sketchup glTF Exporter v1.2.6 by Centaur"
  },
  "scene": 0,
  "scenes": [
    {
      "nodes": [
        0
      ]
    }
  ],
  "samplers": [
    {
    }
  ],
  "nodes": [
    {
      "name": "root",
      "children": [
        1
      ]
    },
    {
      "name": "skp36E8",
      "children": [
        2,
        3,
        4,
        5,
        6,
        7,
        8,
        9,
        10
      ]
    },
    {
      "name": "Mesh01#33",
      "mesh": 0
    },
    {
      "name": "Mesh02#35",
      "mesh": 1
    },
    {
      "name": "Mesh03#29",
      "mesh": 2
    },
    {
      "name": "Mesh04#25",
      "mesh": 3
    },
    {
      "name": "Mesh05#24",
      "mesh": 4
    },
    {
      "name": "Mesh06#22",
      "mesh": 5
    },
    {
      "name": "Mesh07#21",
      "mesh": 6
    },
    {
      "name": "Mesh08#15",
      "mesh": 7
    },
    {
      "name": "Mesh09#10",
      "mesh": 8
    }
  ],
  "materials": [
    {
      "pbrMetallicRoughness": {
        "baseColorTexture": {
          "index": 0
        },
        "metallicFactor": 0.1,
        "roughnessFactor": 0.9
      },
      "name": "_auto_115"
    },
    {
      "pbrMetallicRoughness": {
        "baseColorTexture": {
          "index": 1
        },
        "metallicFactor": 0.1,
        "roughnessFactor": 0.9
      },
      "name": "_auto_116"
    }
  ],
  "images": [
    {
      "bufferView": 0,
      "mimeType": "image/jpeg"
    },
    {
      "bufferView": 1,
      "mimeType": "image/jpeg"
    }
  ],
  "textures": [
    {
      "source": 0,
      "sampler": 0
    },
    {
      "source": 1,
      "sampler": 0
    }
  ],
  "meshes": [
    {
      "primitives": [
        {
          "attributes": {
            "POSITION": 0,
            "NORMAL": 1,
            "TEXCOORD_0": 2
          },
          "indices": 3,
          "mode": 4,
          "material": 0
        },
        {
          "attributes": {
            "POSITION": 0,
            "NORMAL": 1,
            "TEXCOORD_0": 2
          },
          "indices": 4,
          "mode": 4,
          "material": 1
        }
      ]
    },
    {
      "primitives": [
        {
          "attributes": {
            "POSITION": 0,
            "NORMAL": 1,
            "TEXCOORD_0": 2
          },
          "indices": 5,
          "mode": 4,
          "material": 0
        }
      ]
    },
    {
      "primitives": [
        {
          "attributes": {
            "POSITION": 0,
            "NORMAL": 1,
            "TEXCOORD_0": 2
          },
          "indices": 6,
          "mode": 4,
          "material": 0
        },
        {
          "attributes": {
            "POSITION": 0,
            "NORMAL": 1,
            "TEXCOORD_0": 2
          },
          "indices": 7,
          "mode": 4,
          "material": 1
        }
      ]
    },
    {
      "primitives": [
        {
          "attributes": {
            "POSITION": 0,
            "NORMAL": 1,
            "TEXCOORD_0": 2
          },
          "indices": 8,
          "mode": 4,
          "material": 0
        }
      ]
    },
    {
      "primitives": [
        {
          "attributes": {
            "POSITION": 0,
            "NORMAL": 1,
            "TEXCOORD_0": 2
          },
          "indices": 9,
          "mode": 4,
          "material": 0
        }
      ]
    },
    {
      "primitives": [
        {
          "attributes": {
            "POSITION": 0,
            "NORMAL": 1,
            "TEXCOORD_0": 2
          },
          "indices": 10,
          "mode": 4,
          "material": 0
        }
      ]
    },
    {
      "primitives": [
        {
          "attributes": {
            "POSITION": 0,
            "NORMAL": 1,
            "TEXCOORD_0": 2
          },
          "indices": 11,
          "mode": 4,
          "material": 0
        }
      ]
    },
    {
      "primitives": [
        {
          "attributes": {
            "POSITION": 0,
            "NORMAL": 1,
            "TEXCOORD_0": 2
          },
          "indices": 12,
          "mode": 4,
          "material": 0
        }
      ]
    },
    {
      "primitives": [
        {
          "attributes": {
            "POSITION": 0,
            "NORMAL": 1,
            "TEXCOORD_0": 2
          },
          "indices": 13,
          "mode": 4,
          "material": 0
        }
      ]
    }
  ],
  "accessors": [
    {
      "bufferView": 2,
      "componentType": 5126,
      "count": 854,
      "type": "VEC3",
      "min": [
        -0.04971235010063024,
        -3.564636812260604e-18,
        -0.02920477622027768
      ],
      "max": [
        0.030486533718949826,
        0.03241999907493591,
        0.025760225124403117
      ]
    },
    {
      "bufferView": 3,
      "componentType": 5126,
      "count": 854,
      "type": "VEC3",
      "min": [
        -1.0,
        -1.0,
        -1.0
      ],
      "max": [
        1.0,
        1.0,
        1.0
      ]
    },
    {
      "bufferView": 4,
      "componentType": 5126,
      "count": 854,
      "type": "VEC2",
      "min": [
        -99.87506568095583,
        -7.658122062682981
      ],
      "max": [
        8.781792640686035,
        8.464455127716263
      ]
    },
    {
      "bufferView": 5,
      "componentType": 5123,
      "count": 261,
      "type": "SCALAR"
    },
    {
      "bufferView": 5,
      "componentType": 5123,
      "count": 84,
      "type": "SCALAR",
      "byteOffset": 522
    },
    {
      "bufferView": 5,
      "componentType": 5123,
      "count": 174,
      "type": "SCALAR",
      "byteOffset": 690
    },
    {
      "bufferView": 5,
      "componentType": 5123,
      "count": 261,
      "type": "SCALAR",
      "byteOffset": 1038
    },
    {
      "bufferView": 5,
      "componentType": 5123,
      "count": 84,
      "type": "SCALAR",
      "byteOffset": 1560
    },
    {
      "bufferView": 5,
      "componentType": 5123,
      "count": 240,
      "type": "SCALAR",
      "byteOffset": 1728
    },
    {
      "bufferView": 5,
      "componentType": 5123,
      "count": 54,
      "type": "SCALAR",
      "byteOffset": 2208
    },
    {
      "bufferView": 5,
      "componentType": 5123,
      "count": 54,
      "type": "SCALAR",
      "byteOffset": 2316
    },
    {
      "bufferView": 5,
      "componentType": 5123,
      "count": 276,
      "type": "SCALAR",
      "byteOffset": 2424
    },
    {
      "bufferView": 5,
      "componentType": 5123,
      "count": 54,
      "type": "SCALAR",
      "byteOffset": 2976
    },
    {
      "bufferView": 5,
      "componentType": 5123,
      "count": 54,
      "type": "SCALAR",
      "byteOffset": 3084
    }
  ],
  "bufferViews": [
    {
      "buffer": 0,
      "byteLength": 244558
    },
    {
      "buffer": 0,
      "byteOffset": 244558,
      "byteLength": 198371
    },
    {
      "buffer": 0,
      "byteOffset": 442932,
      "byteLength": 10248,
      "target": 34962,
      "byteStride": 12
    },
    {
      "buffer": 0,
      "byteOffset": 453180,
      "byteLength": 10248,
      "target": 34962,
      "byteStride": 12
    },
    {
      "buffer": 0,
      "byteOffset": 463432,
      "byteLength": 6832,
      "target": 34962,
      "byteStride": 8
    },
    {
      "buffer": 0,
      "byteOffset": 470264,
      "byteLength": 3192,
      "target": 34963
    }
  ],
  "buffers": [
    {
      "uri": "data:application/octet-stream;base64,",
      "byteLength": 473456
    }
  ]
}