{
  "asset": {
    "version": "2.0",
    "generator": "Sketchup glTF Exporter v1.2.6 by Centaur"
  },
  "scene": 0,
  "scenes": [
    {
      "nodes": [
        0
      ]
    }
  ],
  "samplers": [
    {
    }
  ],
  "nodes": [
    {
      "name": "root",
      "children": [
        1
      ]
    },
    {
      "name": "skp2FAA",
      "children": [
        2,
        3,
        4,
        5,
        6,
        7,
        8
      ]
    },
    {
      "name": "Mesh01#29",
      "mesh": 0
    },
    {
      "name": "Mesh02#31",
      "mesh": 1
    },
    {
      "name": "Mesh03#25",
      "mesh": 2
    },
    {
      "name": "Mesh04#21",
      "mesh": 3
    },
    {
      "name": "Mesh05#20",
      "mesh": 4
    },
    {
      "name": "Mesh06#18",
      "mesh": 5
    },
    {
      "name": "Mesh07#17",
      "mesh": 6
    }
  ],
  "materials": [
    {
      "pbrMetallicRoughness": {
        "baseColorTexture": {
          "index": 0
        },
        "metallicFactor": 0.1,
        "roughnessFactor": 0.9
      },
      "name": "_auto_115"
    }
  ],
  "images": [
    {
      "bufferView": 0,
      "mimeType": "image/jpeg"
    }
  ],
  "textures": [
    {
      "source": 0,
      "sampler": 0
    }
  ],
  "meshes": [
    {
      "primitives": [
        {
          "attributes": {
            "POSITION": 0,
            "NORMAL": 1,
            "TEXCOORD_0": 2
          },
          "indices": 3,
          "mode": 4,
          "material": 0
        }
      ]
    },
    {
      "primitives": [
        {
          "attributes": {
            "POSITION": 0,
            "NORMAL": 1,
            "TEXCOORD_0": 2
          },
          "indices": 4,
          "mode": 4,
          "material": 0
        }
      ]
    },
    {
      "primitives": [
        {
          "attributes": {
            "POSITION": 0,
            "NORMAL": 1,
            "TEXCOORD_0": 2
          },
          "indices": 5,
          "mode": 4,
          "material": 0
        }
      ]
    },
    {
      "primitives": [
        {
          "attributes": {
            "POSITION": 0,
            "NORMAL": 1,
            "TEXCOORD_0": 2
          },
          "indices": 6,
          "mode": 4,
          "material": 0
        }
      ]
    },
    {
      "primitives": [
        {
          "attributes": {
            "POSITION": 0,
            "NORMAL": 1,
            "TEXCOORD_0": 2
          },
          "indices": 7,
          "mode": 4,
          "material": 0
        }
      ]
    },
    {
      "primitives": [
        {
          "attributes": {
            "POSITION": 0,
            "NORMAL": 1,
            "TEXCOORD_0": 2
          },
          "indices": 8,
          "mode": 4,
          "material": 0
        }
      ]
    },
    {
      "primitives": [
        {
          "attributes": {
            "POSITION": 0,
            "NORMAL": 1,
            "TEXCOORD_0": 2
          },
          "indices": 9,
          "mode": 4,
          "material": 0
        }
      ]
    }
  ],
  "accessors": [
    {
      "bufferView": 1,
      "componentType": 5126,
      "count": 722,
      "type": "VEC3",
      "min": [
        -0.03782742750402279,
        -1.4189651366269248e-18,
        -0.023173459280093914
      ],
      "max": [
        0.04147256496195012,
        0.028999998283386234,
        0.03182653871719002
      ]
    },
    {
      "bufferView": 2,
      "componentType": 5126,
      "count": 722,
      "type": "VEC3",
      "min": [
        -1.0,
        -1.0,
        -1.0
      ],
      "max": [
        1.0,
        1.0,
        1.0
      ]
    },
    {
      "bufferView": 3,
      "componentType": 5126,
      "count": 722,
      "type": "VEC2",
      "min": [
        -49.725067868162164,
        -1.5887815952301056
      ],
      "max": [
        8.99996852874756,
        1.6539341211318979
      ]
    },
    {
      "bufferView": 4,
      "componentType": 5123,
      "count": 573,
      "type": "SCALAR"
    },
    {
      "bufferView": 4,
      "componentType": 5123,
      "count": 156,
      "type": "SCALAR",
      "byteOffset": 1146
    },
    {
      "bufferView": 4,
      "componentType": 5123,
      "count": 30,
      "type": "SCALAR",
      "byteOffset": 1458
    },
    {
      "bufferView": 4,
      "componentType": 5123,
      "count": 30,
      "type": "SCALAR",
      "byteOffset": 1518
    },
    {
      "bufferView": 4,
      "componentType": 5123,
      "count": 609,
      "type": "SCALAR",
      "byteOffset": 1578
    },
    {
      "bufferView": 4,
      "componentType": 5123,
      "count": 30,
      "type": "SCALAR",
      "byteOffset": 2796
    },
    {
      "bufferView": 4,
      "componentType": 5123,
      "count": 30,
      "type": "SCALAR",
      "byteOffset": 2856
    }
  ],
  "bufferViews": [
    {
      "buffer": 0,
      "byteLength": 244558
    },
    {
      "buffer": 0,
      "byteOffset": 244560,
      "byteLength": 8664,
      "target": 34962,
      "byteStride": 12
    },
    {
      "buffer": 0,
      "byteOffset": 253224,
      "byteLength": 8664,
      "target": 34962,
      "byteStride": 12
    },
    {
      "buffer": 0,
      "byteOffset": 261888,
      "byteLength": 5776,
      "target": 34962,
      "byteStride": 8
    },
    {
      "buffer": 0,
      "byteOffset": 267664,
      "byteLength": 2916,
      "target": 34963
    }
  ],
  "buffers": [
    {
      "uri": "data:application/octet-stream;base64,",
      "byteLength": 270580
    }
  ]
}