{
  "asset": {
    "version": "2.0",
    "generator": "Sketchup glTF Exporter v1.2.6 by Centaur"
  },
  "scene": 0,
  "scenes": [
    {
      "nodes": [
        0
      ]
    }
  ],
  "samplers": [
    {
    }
  ],
  "nodes": [
    {
      "name": "root",
      "children": [
        1
      ]
    },
    {
      "name": "skp7246",
      "children": [
        2,
        3,
        4,
        5,
        6,
        7,
        8,
        9
      ]
    },
    {
      "name": "Mesh01#25",
      "mesh": 0
    },
    {
      "name": "Mesh02#27",
      "mesh": 1
    },
    {
      "name": "Mesh03#21",
      "mesh": 2
    },
    {
      "name": "Mesh04#17",
      "mesh": 3
    },
    {
      "name": "Mesh05#16",
      "mesh": 4
    },
    {
      "name": "Mesh06#14",
      "mesh": 5
    },
    {
      "name": "Mesh07#13",
      "mesh": 6
    },
    {
      "name": "Mesh08#11",
      "mesh": 7
    }
  ],
  "materials": [
    {
      "pbrMetallicRoughness": {
        "baseColorTexture": {
          "index": 0
        },
        "metallicFactor": 0.1,
        "roughnessFactor": 0.9
      },
      "name": "_auto_115"
    },
    {
      "pbrMetallicRoughness": {
        "baseColorTexture": {
          "index": 1
        },
        "metallicFactor": 0.1,
        "roughnessFactor": 0.9
      },
      "name": "_auto_118"
    },
    {
      "pbrMetallicRoughness": {
        "baseColorTexture": {
          "index": 2
        },
        "metallicFactor": 0.1,
        "roughnessFactor": 0.9
      },
      "name": "_auto_137"
    },
    {
      "pbrMetallicRoughness": {
        "baseColorTexture": {
          "index": 3
        },
        "metallicFactor": 0.1,
        "roughnessFactor": 0.9
      },
      "name": "_auto_131"
    }
  ],
  "images": [
    {
      "bufferView": 0,
      "mimeType": "image/jpeg"
    },
    {
      "bufferView": 1,
      "mimeType": "image/jpeg"
    },
    {
      "bufferView": 2,
      "mimeType": "image/jpeg"
    },
    {
      "bufferView": 3,
      "mimeType": "image/jpeg"
    }
  ],
  "textures": [
    {
      "source": 0,
      "sampler": 0
    },
    {
      "source": 1,
      "sampler": 0
    },
    {
      "source": 2,
      "sampler": 0
    },
    {
      "source": 3,
      "sampler": 0
    }
  ],
  "meshes": [
    {
      "primitives": [
        {
          "attributes": {
            "POSITION": 0,
            "NORMAL": 1,
            "TEXCOORD_0": 2
          },
          "indices": 3,
          "mode": 4,
          "material": 0
        },
        {
          "attributes": {
            "POSITION": 0,
            "NORMAL": 1,
            "TEXCOORD_0": 2
          },
          "indices": 4,
          "mode": 4,
          "material": 1
        },
        {
          "attributes": {
            "POSITION": 0,
            "NORMAL": 1,
            "TEXCOORD_0": 2
          },
          "indices": 5,
          "mode": 4,
          "material": 2
        },
        {
          "attributes": {
            "POSITION": 0,
            "NORMAL": 1,
            "TEXCOORD_0": 2
          },
          "indices": 6,
          "mode": 4,
          "material": 3
        }
      ]
    },
    {
      "primitives": [
        {
          "attributes": {
            "POSITION": 0,
            "NORMAL": 1,
            "TEXCOORD_0": 2
          },
          "indices": 7,
          "mode": 4,
          "material": 1
        }
      ]
    },
    {
      "primitives": [
        {
          "attributes": {
            "POSITION": 0,
            "NORMAL": 1,
            "TEXCOORD_0": 2
          },
          "indices": 8,
          "mode": 4,
          "material": 1
        }
      ]
    },
    {
      "primitives": [
        {
          "attributes": {
            "POSITION": 0,
            "NORMAL": 1,
            "TEXCOORD_0": 2
          },
          "indices": 9,
          "mode": 4,
          "material": 0
        },
        {
          "attributes": {
            "POSITION": 0,
            "NORMAL": 1,
            "TEXCOORD_0": 2
          },
          "indices": 10,
          "mode": 4,
          "material": 3
        },
        {
          "attributes": {
            "POSITION": 0,
            "NORMAL": 1,
            "TEXCOORD_0": 2
          },
          "indices": 11,
          "mode": 4,
          "material": 1
        }
      ]
    },
    {
      "primitives": [
        {
          "attributes": {
            "POSITION": 0,
            "NORMAL": 1,
            "TEXCOORD_0": 2
          },
          "indices": 12,
          "mode": 4,
          "material": 0
        }
      ]
    },
    {
      "primitives": [
        {
          "attributes": {
            "POSITION": 0,
            "NORMAL": 1,
            "TEXCOORD_0": 2
          },
          "indices": 13,
          "mode": 4,
          "material": 1
        }
      ]
    },
    {
      "primitives": [
        {
          "attributes": {
            "POSITION": 0,
            "NORMAL": 1,
            "TEXCOORD_0": 2
          },
          "indices": 14,
          "mode": 4,
          "material": 1
        }
      ]
    },
    {
      "primitives": [
        {
          "attributes": {
            "POSITION": 0,
            "NORMAL": 1,
            "TEXCOORD_0": 2
          },
          "indices": 15,
          "mode": 4,
          "material": 0
        }
      ]
    }
  ],
  "accessors": [
    {
      "bufferView": 4,
      "componentType": 5126,
      "count": 813,
      "type": "VEC3",
      "min": [
        -0.032912716974201395,
        1.2709095358256662e-17,
        -0.02452633728606038
      ],
      "max": [
        0.04040558361869792,
        0.02899999828338623,
        0.030465667013103437
      ]
    },
    {
      "bufferView": 5,
      "componentType": 5126,
      "count": 813,
      "type": "VEC3",
      "min": [
        -1.0,
        -1.0,
        -1.0
      ],
      "max": [
        1.0,
        1.0,
        1.0
      ]
    },
    {
      "bufferView": 6,
      "componentType": 5126,
      "count": 813,
      "type": "VEC2",
      "min": [
        -149.36652410843374,
        -7.573496818542491
      ],
      "max": [
        8.747131347656246,
        8.551805019378673
      ]
    },
    {
      "bufferView": 7,
      "componentType": 5123,
      "count": 690,
      "type": "SCALAR"
    },
    {
      "bufferView": 7,
      "componentType": 5123,
      "count": 453,
      "type": "SCALAR",
      "byteOffset": 1380
    },
    {
      "bufferView": 7,
      "componentType": 5123,
      "count": 168,
      "type": "SCALAR",
      "byteOffset": 2286
    },
    {
      "bufferView": 7,
      "componentType": 5123,
      "count": 42,
      "type": "SCALAR",
      "byteOffset": 2622
    },
    {
      "bufferView": 7,
      "componentType": 5123,
      "count": 30,
      "type": "SCALAR",
      "byteOffset": 2706
    },
    {
      "bufferView": 7,
      "componentType": 5123,
      "count": 30,
      "type": "SCALAR",
      "byteOffset": 2766
    },
    {
      "bufferView": 7,
      "componentType": 5123,
      "count": 24,
      "type": "SCALAR",
      "byteOffset": 2826
    },
    {
      "bufferView": 7,
      "componentType": 5123,
      "count": 42,
      "type": "SCALAR",
      "byteOffset": 2874
    },
    {
      "bufferView": 7,
      "componentType": 5123,
      "count": 45,
      "type": "SCALAR",
      "byteOffset": 2958
    },
    {
      "bufferView": 7,
      "componentType": 5123,
      "count": 24,
      "type": "SCALAR",
      "byteOffset": 3048
    },
    {
      "bufferView": 7,
      "componentType": 5123,
      "count": 30,
      "type": "SCALAR",
      "byteOffset": 3096
    },
    {
      "bufferView": 7,
      "componentType": 5123,
      "count": 30,
      "type": "SCALAR",
      "byteOffset": 3156
    },
    {
      "bufferView": 7,
      "componentType": 5123,
      "count": 24,
      "type": "SCALAR",
      "byteOffset": 3216
    }
  ],
  "bufferViews": [
    {
      "buffer": 0,
      "byteLength": 244558
    },
    {
      "buffer": 0,
      "byteOffset": 244558,
      "byteLength": 218611
    },
    {
      "buffer": 0,
      "byteOffset": 463169,
      "byteLength": 185255
    },
    {
      "buffer": 0,
      "byteOffset": 648424,
      "byteLength": 177646
    },
    {
      "buffer": 0,
      "byteOffset": 826080,
      "byteLength": 9756,
      "target": 34962,
      "byteStride": 12
    },
    {
      "buffer": 0,
      "byteOffset": 835836,
      "byteLength": 9756,
      "target": 34962,
      "byteStride": 12
    },
    {
      "buffer": 0,
      "byteOffset": 845592,
      "byteLength": 6504,
      "target": 34962,
      "byteStride": 8
    },
    {
      "buffer": 0,
      "byteOffset": 852096,
      "byteLength": 3264,
      "target": 34963
    }
  ],
  "buffers": [
    {
      "uri": "data:application/octet-stream;base64,",
      "byteLength": 855360
    }
  ]
}