{
  "asset": {
    "version": "2.0",
    "generator": "Sketchup glTF Exporter v1.2.6 by Centaur"
  },
  "scene": 0,
  "scenes": [
    {
      "nodes": [
        0
      ]
    }
  ],
  "samplers": [
    {
    }
  ],
  "nodes": [
    {
      "name": "root",
      "children": [
        1
      ]
    },
    {
      "name": "skp6AC7",
      "children": [
        2,
        3
      ]
    },
    {
      "name": "Mesh01#1",
      "mesh": 0
    },
    {
      "name": "Mesh02#1",
      "mesh": 1
    }
  ],
  "materials": [
    {
      "pbrMetallicRoughness": {
        "baseColorTexture": {
          "index": 0
        },
        "metallicFactor": 0.1,
        "roughnessFactor": 0.9
      },
      "name": "_auto_6"
    }
  ],
  "images": [
    {
      "bufferView": 0,
      "mimeType": "image/jpeg"
    }
  ],
  "textures": [
    {
      "source": 0,
      "sampler": 0
    }
  ],
  "meshes": [
    {
      "primitives": [
        {
          "attributes": {
            "POSITION": 0,
            "NORMAL": 1,
            "TEXCOORD_0": 2
          },
          "indices": 3,
          "mode": 4,
          "material": 0
        }
      ]
    },
    {
      "primitives": [
        {
          "attributes": {
            "POSITION": 0,
            "NORMAL": 1,
            "TEXCOORD_0": 2
          },
          "indices": 4,
          "mode": 4,
          "material": 0
        }
      ]
    }
  ],
  "accessors": [
    {
      "bufferView": 1,
      "componentType": 5126,
      "count": 68,
      "type": "VEC3",
      "min": [
        -0.004627624511718553,
        -6.147741799275687e-20,
        -0.0010040024280548593
      ],
      "max": [
        1.6653345369377348e-16,
        0.003500000223516671,
        0.0039019965648650623
      ]
    },
    {
      "bufferView": 2,
      "componentType": 5126,
      "count": 68,
      "type": "VEC3",
      "min": [
        -0.7432004091965849,
        -0.00010227659932878466,
        -0.7432435545840039
      ],
      "max": [
        0.743604198765502,
        1.0,
        0.7432218685386167
      ]
    },
    {
      "bufferView": 3,
      "componentType": 5126,
      "count": 68,
      "type": "VEC2",
      "min": [
        0.34253311933119335,
        -1.2577648162386703
      ],
      "max": [
        16.857553481714337,
        0.46751253154795136
      ]
    },
    {
      "bufferView": 4,
      "componentType": 5121,
      "count": 30,
      "type": "SCALAR"
    },
    {
      "bufferView": 4,
      "componentType": 5121,
      "count": 72,
      "type": "SCALAR",
      "byteOffset": 30
    }
  ],
  "bufferViews": [
    {
      "buffer": 0,
      "byteLength": 140906
    },
    {
      "buffer": 0,
      "byteOffset": 140916,
      "byteLength": 816,
      "target": 34962,
      "byteStride": 12
    },
    {
      "buffer": 0,
      "byteOffset": 141732,
      "byteLength": 816,
      "target": 34962,
      "byteStride": 12
    },
    {
      "buffer": 0,
      "byteOffset": 142552,
      "byteLength": 544,
      "target": 34962,
      "byteStride": 8
    },
    {
      "buffer": 0,
      "byteOffset": 143096,
      "byteLength": 102,
      "target": 34963
    }
  ],
  "buffers": [
    {
      "uri": "data:application/octet-stream;base64,",
      "byteLength": 143198
    }
  ]
}