{
  "asset": {
    "version": "2.0",
    "generator": "Sketchup glTF Exporter v1.2.6 by Centaur"
  },
  "scene": 0,
  "scenes": [
    {
      "nodes": [
        0
      ]
    }
  ],
  "samplers": [
    {
    }
  ],
  "nodes": [
    {
      "name": "root",
      "children": [
        1,
        2,
        3,
        4,
        5,
        6,
        7,
        8,
        9,
        10,
        11,
        12
      ]
    },
    {
      "name": "Mesh01#4",
      "mesh": 0
    },
    {
      "name": "Mesh02#4",
      "mesh": 1
    },
    {
      "name": "Mesh08",
      "mesh": 2
    },
    {
      "name": "Mesh11",
      "mesh": 3
    },
    {
      "name": "Mesh03#4",
      "mesh": 4
    },
    {
      "name": "Mesh05",
      "mesh": 5
    },
    {
      "name": "Mesh07",
      "mesh": 6
    },
    {
      "name": "Mesh12",
      "mesh": 7
    },
    {
      "name": "Mesh04",
      "mesh": 8
    },
    {
      "name": "Mesh06",
      "mesh": 9
    },
    {
      "name": "Mesh09",
      "mesh": 10
    },
    {
      "name": "Mesh10",
      "mesh": 11
    }
  ],
  "materials": [
    {
      "pbrMetallicRoughness": {
        "baseColorFactor": [
          1.0,
          1.0,
          1.0,
          1.0
        ],
        "metallicFactor": 0.1,
        "roughnessFactor": 0.9
      },
      "name": "_auto_2"
    },
    {
      "pbrMetallicRoughness": {
        "baseColorTexture": {
          "index": 0
        },
        "metallicFactor": 0.1,
        "roughnessFactor": 0.9
      },
      "name": "_auto_24"
    },
    {
      "pbrMetallicRoughness": {
        "baseColorTexture": {
          "index": 1
        },
        "metallicFactor": 0.1,
        "roughnessFactor": 0.9
      },
      "name": "_auto_22"
    },
    {
      "pbrMetallicRoughness": {
        "baseColorTexture": {
          "index": 2
        },
        "metallicFactor": 0.1,
        "roughnessFactor": 0.9
      },
      "name": "_auto_23"
    }
  ],
  "images": [
    {
      "bufferView": 0,
      "mimeType": "image/jpeg"
    },
    {
      "bufferView": 1,
      "mimeType": "image/jpeg"
    },
    {
      "bufferView": 2,
      "mimeType": "image/jpeg"
    }
  ],
  "textures": [
    {
      "source": 0,
      "sampler": 0
    },
    {
      "source": 1,
      "sampler": 0
    },
    {
      "source": 2,
      "sampler": 0
    }
  ],
  "meshes": [
    {
      "primitives": [
        {
          "attributes": {
            "POSITION": 0,
            "NORMAL": 1
          },
          "indices": 5,
          "mode": 4,
          "material": 0
        },
        {
          "attributes": {
            "POSITION": 2,
            "NORMAL": 3,
            "TEXCOORD_0": 4
          },
          "indices": 6,
          "mode": 4,
          "material": 1
        }
      ]
    },
    {
      "primitives": [
        {
          "attributes": {
            "POSITION": 0,
            "NORMAL": 1
          },
          "indices": 7,
          "mode": 4,
          "material": 0
        },
        {
          "attributes": {
            "POSITION": 2,
            "NORMAL": 3,
            "TEXCOORD_0": 4
          },
          "indices": 8,
          "mode": 4,
          "material": 1
        },
        {
          "attributes": {
            "POSITION": 2,
            "NORMAL": 3,
            "TEXCOORD_0": 4
          },
          "indices": 9,
          "mode": 4,
          "material": 2
        },
        {
          "attributes": {
            "POSITION": 2,
            "NORMAL": 3,
            "TEXCOORD_0": 4
          },
          "indices": 10,
          "mode": 4,
          "material": 3
        }
      ]
    },
    {
      "primitives": [
        {
          "attributes": {
            "POSITION": 2,
            "NORMAL": 3,
            "TEXCOORD_0": 4
          },
          "indices": 11,
          "mode": 4,
          "material": 1
        },
        {
          "attributes": {
            "POSITION": 0,
            "NORMAL": 1
          },
          "indices": 12,
          "mode": 4,
          "material": 0
        }
      ]
    },
    {
      "primitives": [
        {
          "attributes": {
            "POSITION": 0,
            "NORMAL": 1
          },
          "indices": 13,
          "mode": 4,
          "material": 0
        }
      ]
    },
    {
      "primitives": [
        {
          "attributes": {
            "POSITION": 0,
            "NORMAL": 1
          },
          "indices": 14,
          "mode": 4,
          "material": 0
        },
        {
          "attributes": {
            "POSITION": 2,
            "NORMAL": 3,
            "TEXCOORD_0": 4
          },
          "indices": 15,
          "mode": 4,
          "material": 3
        }
      ]
    },
    {
      "primitives": [
        {
          "attributes": {
            "POSITION": 0,
            "NORMAL": 1
          },
          "indices": 16,
          "mode": 4,
          "material": 0
        },
        {
          "attributes": {
            "POSITION": 2,
            "NORMAL": 3,
            "TEXCOORD_0": 4
          },
          "indices": 17,
          "mode": 4,
          "material": 1
        }
      ]
    },
    {
      "primitives": [
        {
          "attributes": {
            "POSITION": 2,
            "NORMAL": 3,
            "TEXCOORD_0": 4
          },
          "indices": 18,
          "mode": 4,
          "material": 1
        },
        {
          "attributes": {
            "POSITION": 0,
            "NORMAL": 1
          },
          "indices": 19,
          "mode": 4,
          "material": 0
        }
      ]
    },
    {
      "primitives": [
        {
          "attributes": {
            "POSITION": 0,
            "NORMAL": 1
          },
          "indices": 20,
          "mode": 4,
          "material": 0
        }
      ]
    },
    {
      "primitives": [
        {
          "attributes": {
            "POSITION": 0,
            "NORMAL": 1
          },
          "indices": 21,
          "mode": 4,
          "material": 0
        },
        {
          "attributes": {
            "POSITION": 2,
            "NORMAL": 3,
            "TEXCOORD_0": 4
          },
          "indices": 22,
          "mode": 4,
          "material": 1
        }
      ]
    },
    {
      "primitives": [
        {
          "attributes": {
            "POSITION": 2,
            "NORMAL": 3,
            "TEXCOORD_0": 4
          },
          "indices": 23,
          "mode": 4,
          "material": 3
        },
        {
          "attributes": {
            "POSITION": 0,
            "NORMAL": 1
          },
          "indices": 24,
          "mode": 4,
          "material": 0
        }
      ]
    },
    {
      "primitives": [
        {
          "attributes": {
            "POSITION": 2,
            "NORMAL": 3,
            "TEXCOORD_0": 4
          },
          "indices": 25,
          "mode": 4,
          "material": 1
        },
        {
          "attributes": {
            "POSITION": 0,
            "NORMAL": 1
          },
          "indices": 26,
          "mode": 4,
          "material": 0
        }
      ]
    },
    {
      "primitives": [
        {
          "attributes": {
            "POSITION": 2,
            "NORMAL": 3,
            "TEXCOORD_0": 4
          },
          "indices": 27,
          "mode": 4,
          "material": 1
        },
        {
          "attributes": {
            "POSITION": 0,
            "NORMAL": 1
          },
          "indices": 28,
          "mode": 4,
          "material": 0
        }
      ]
    }
  ],
  "accessors": [
    {
      "bufferView": 3,
      "componentType": 5126,
      "count": 4415,
      "type": "VEC3",
      "min": [
        -6.479207617187626,
        -3.3306690738754696e-16,
        -4.899992382812513
      ],
      "max": [
        9.128720312499865,
        20.000000443267822,
        7.600007421874949
      ]
    },
    {
      "bufferView": 4,
      "componentType": 5126,
      "count": 4415,
      "type": "VEC3",
      "min": [
        -0.9994318918586634,
        -1.0,
        -1.0
      ],
      "max": [
        0.9999136709954896,
        1.0,
        1.0
      ]
    },
    {
      "bufferView": 5,
      "componentType": 5126,
      "count": 1608,
      "type": "VEC3",
      "min": [
        -6.479207617187626,
        -3.3306690738754696e-16,
        -4.899992382812513
      ],
      "max": [
        9.128720312499865,
        19.100001114654543,
        7.600007421874949
      ]
    },
    {
      "bufferView": 6,
      "componentType": 5126,
      "count": 1608,
      "type": "VEC3",
      "min": [
        -0.9885985297577619,
        -1.0,
        -1.0
      ],
      "max": [
        0.9886007535305289,
        1.0,
        1.0
      ]
    },
    {
      "bufferView": 7,
      "componentType": 5126,
      "count": 1608,
      "type": "VEC2",
      "min": [
        -14847.929687496067,
        -10295.7314453125
      ],
      "max": [
        14847.786132810876,
        4.2997972965237485
      ]
    },
    {
      "bufferView": 8,
      "componentType": 5123,
      "count": 912,
      "type": "SCALAR"
    },
    {
      "bufferView": 9,
      "componentType": 5123,
      "count": 216,
      "type": "SCALAR"
    },
    {
      "bufferView": 8,
      "componentType": 5123,
      "count": 1107,
      "type": "SCALAR",
      "byteOffset": 1824
    },
    {
      "bufferView": 9,
      "componentType": 5123,
      "count": 372,
      "type": "SCALAR",
      "byteOffset": 432
    },
    {
      "bufferView": 9,
      "componentType": 5123,
      "count": 234,
      "type": "SCALAR",
      "byteOffset": 1176
    },
    {
      "bufferView": 9,
      "componentType": 5123,
      "count": 84,
      "type": "SCALAR",
      "byteOffset": 1644
    },
    {
      "bufferView": 9,
      "componentType": 5123,
      "count": 12,
      "type": "SCALAR",
      "byteOffset": 1812
    },
    {
      "bufferView": 8,
      "componentType": 5123,
      "count": 24,
      "type": "SCALAR",
      "byteOffset": 4038
    },
    {
      "bufferView": 8,
      "componentType": 5123,
      "count": 84,
      "type": "SCALAR",
      "byteOffset": 4086
    },
    {
      "bufferView": 8,
      "componentType": 5123,
      "count": 564,
      "type": "SCALAR",
      "byteOffset": 4254
    },
    {
      "bufferView": 9,
      "componentType": 5123,
      "count": 660,
      "type": "SCALAR",
      "byteOffset": 1836
    },
    {
      "bufferView": 8,
      "componentType": 5123,
      "count": 942,
      "type": "SCALAR",
      "byteOffset": 5382
    },
    {
      "bufferView": 9,
      "componentType": 5123,
      "count": 222,
      "type": "SCALAR",
      "byteOffset": 3156
    },
    {
      "bufferView": 9,
      "componentType": 5123,
      "count": 12,
      "type": "SCALAR",
      "byteOffset": 3600
    },
    {
      "bufferView": 8,
      "componentType": 5123,
      "count": 24,
      "type": "SCALAR",
      "byteOffset": 7266
    },
    {
      "bufferView": 8,
      "componentType": 5123,
      "count": 84,
      "type": "SCALAR",
      "byteOffset": 7314
    },
    {
      "bufferView": 8,
      "componentType": 5123,
      "count": 918,
      "type": "SCALAR",
      "byteOffset": 7482
    },
    {
      "bufferView": 9,
      "componentType": 5123,
      "count": 216,
      "type": "SCALAR",
      "byteOffset": 3624
    },
    {
      "bufferView": 9,
      "componentType": 5123,
      "count": 630,
      "type": "SCALAR",
      "byteOffset": 4056
    },
    {
      "bufferView": 8,
      "componentType": 5123,
      "count": 549,
      "type": "SCALAR",
      "byteOffset": 9318
    },
    {
      "bufferView": 9,
      "componentType": 5123,
      "count": 12,
      "type": "SCALAR",
      "byteOffset": 5316
    },
    {
      "bufferView": 8,
      "componentType": 5123,
      "count": 24,
      "type": "SCALAR",
      "byteOffset": 10416
    },
    {
      "bufferView": 9,
      "componentType": 5123,
      "count": 12,
      "type": "SCALAR",
      "byteOffset": 5340
    },
    {
      "bufferView": 8,
      "componentType": 5123,
      "count": 24,
      "type": "SCALAR",
      "byteOffset": 10464
    }
  ],
  "bufferViews": [
    {
      "buffer": 0,
      "byteLength": 199942
    },
    {
      "buffer": 0,
      "byteOffset": 199942,
      "byteLength": 133002
    },
    {
      "buffer": 0,
      "byteOffset": 332944,
      "byteLength": 145699
    },
    {
      "buffer": 0,
      "byteOffset": 478644,
      "byteLength": 52980,
      "target": 34962,
      "byteStride": 12
    },
    {
      "buffer": 0,
      "byteOffset": 531624,
      "byteLength": 52980,
      "target": 34962,
      "byteStride": 12
    },
    {
      "buffer": 0,
      "byteOffset": 584604,
      "byteLength": 19296,
      "target": 34962,
      "byteStride": 12
    },
    {
      "buffer": 0,
      "byteOffset": 603900,
      "byteLength": 19296,
      "target": 34962,
      "byteStride": 12
    },
    {
      "buffer": 0,
      "byteOffset": 623200,
      "byteLength": 12864,
      "target": 34962,
      "byteStride": 8
    },
    {
      "buffer": 0,
      "byteOffset": 636064,
      "byteLength": 10512,
      "target": 34963
    },
    {
      "buffer": 0,
      "byteOffset": 646576,
      "byteLength": 5364,
      "target": 34963
    }
  ],
  "buffers": [
    {
      "uri": "data:application/octet-stream;base64,",
      "byteLength": 651940
    }
  ]
}