{
  "asset": {
    "version": "2.0",
    "generator": "Sketchup glTF Exporter v1.2.6 by Centaur"
  },
  "scene": 0,
  "scenes": [
    {
      "nodes": [
        0
      ]
    }
  ],
  "samplers": [
    {
    }
  ],
  "nodes": [
    {
      "name": "root",
      "children": [
        1
      ]
    },
    {
      "name": "skpF0C2",
      "children": [
        2
      ]
    },
    {
      "name": "Model#5",
      "mesh": 0
    }
  ],
  "materials": [
    {
      "pbrMetallicRoughness": {
        "baseColorTexture": {
          "index": 0
        },
        "metallicFactor": 0.1,
        "roughnessFactor": 0.9
      },
      "name": "_auto_88"
    },
    {
      "pbrMetallicRoughness": {
        "baseColorTexture": {
          "index": 1
        },
        "metallicFactor": 0.1,
        "roughnessFactor": 0.9
      },
      "name": "_auto_75"
    }
  ],
  "images": [
    {
      "bufferView": 0,
      "mimeType": "image/jpeg"
    },
    {
      "bufferView": 1,
      "mimeType": "image/jpeg"
    }
  ],
  "textures": [
    {
      "source": 0,
      "sampler": 0
    },
    {
      "source": 1,
      "sampler": 0
    }
  ],
  "meshes": [
    {
      "primitives": [
        {
          "attributes": {
            "POSITION": 0,
            "NORMAL": 1,
            "TEXCOORD_0": 2
          },
          "indices": 3,
          "mode": 4,
          "material": 0
        },
        {
          "attributes": {
            "POSITION": 0,
            "NORMAL": 1,
            "TEXCOORD_0": 2
          },
          "indices": 4,
          "mode": 4,
          "material": 1
        }
      ]
    }
  ],
  "accessors": [
    {
      "bufferView": 2,
      "componentType": 5126,
      "count": 60,
      "type": "VEC3",
      "min": [
        -0.02330307929827702,
        -2.2725806347578484e-17,
        -0.012015409998663573
      ],
      "max": [
        0.028882640382509206,
        0.012000000333786011,
        0.010340613980523494
      ]
    },
    {
      "bufferView": 3,
      "componentType": 5126,
      "count": 60,
      "type": "VEC3",
      "min": [
        -0.9999559038269347,
        -6.161485592536205e-17,
        -0.9999557280337024
      ],
      "max": [
        0.9999558311760731,
        1.0,
        0.9999567616387282
      ]
    },
    {
      "bufferView": 4,
      "componentType": 5126,
      "count": 60,
      "type": "VEC2",
      "min": [
        -2.4868995751603507e-14,
        -1.5543122344752192e-15
      ],
      "max": [
        0.9999999999999911,
        0.564190000295639
      ]
    },
    {
      "bufferView": 5,
      "componentType": 5121,
      "count": 72,
      "type": "SCALAR"
    },
    {
      "bufferView": 5,
      "componentType": 5121,
      "count": 30,
      "type": "SCALAR",
      "byteOffset": 72
    }
  ],
  "bufferViews": [
    {
      "buffer": 0,
      "byteLength": 162774
    },
    {
      "buffer": 0,
      "byteOffset": 162774,
      "byteLength": 1833815
    },
    {
      "buffer": 0,
      "byteOffset": 1996596,
      "byteLength": 720,
      "target": 34962,
      "byteStride": 12
    },
    {
      "buffer": 0,
      "byteOffset": 1997316,
      "byteLength": 720,
      "target": 34962,
      "byteStride": 12
    },
    {
      "buffer": 0,
      "byteOffset": 1998040,
      "byteLength": 480,
      "target": 34962,
      "byteStride": 8
    },
    {
      "buffer": 0,
      "byteOffset": 1998520,
      "byteLength": 102,
      "target": 34963
    }
  ],
  "buffers": [
    {
      "uri": "data:application/octet-stream;base64,",
      "byteLength": 1998622
    }
  ]
}