{
  "asset": {
    "version": "2.0",
    "generator": "Sketchup glTF Exporter v1.2.6 by Centaur"
  },
  "scene": 0,
  "scenes": [
    {
      "nodes": [
        0
      ]
    }
  ],
  "samplers": [
    {
    }
  ],
  "nodes": [
    {
      "name": "root",
      "children": [
        1
      ]
    },
    {
      "name": "skpAB07",
      "children": [
        2,
        3,
        4
      ]
    },
    {
      "name": "Mesh01#40",
      "mesh": 0
    },
    {
      "name": "Mesh02#42",
      "mesh": 1
    },
    {
      "name": "Mesh03#36",
      "mesh": 2
    }
  ],
  "materials": [
    {
      "pbrMetallicRoughness": {
        "baseColorTexture": {
          "index": 0
        },
        "metallicFactor": 0.1,
        "roughnessFactor": 0.9
      },
      "name": "_auto_132"
    },
    {
      "pbrMetallicRoughness": {
        "baseColorTexture": {
          "index": 1
        },
        "metallicFactor": 0.1,
        "roughnessFactor": 0.9
      },
      "name": "_auto_125"
    },
    {
      "pbrMetallicRoughness": {
        "baseColorTexture": {
          "index": 2
        },
        "metallicFactor": 0.1,
        "roughnessFactor": 0.9
      },
      "name": "_auto_142"
    },
    {
      "pbrMetallicRoughness": {
        "baseColorTexture": {
          "index": 3
        },
        "metallicFactor": 0.1,
        "roughnessFactor": 0.9
      },
      "name": "_auto_141"
    },
    {
      "pbrMetallicRoughness": {
        "baseColorTexture": {
          "index": 4
        },
        "metallicFactor": 0.1,
        "roughnessFactor": 0.9
      },
      "name": "_auto_143"
    },
    {
      "pbrMetallicRoughness": {
        "baseColorTexture": {
          "index": 5
        },
        "metallicFactor": 0.1,
        "roughnessFactor": 0.9
      },
      "name": "_auto_140"
    },
    {
      "pbrMetallicRoughness": {
        "baseColorTexture": {
          "index": 6
        },
        "metallicFactor": 0.1,
        "roughnessFactor": 0.9
      },
      "name": "_auto_131"
    },
    {
      "pbrMetallicRoughness": {
        "baseColorFactor": [
          1.0,
          1.0,
          1.0,
          1.0
        ],
        "metallicFactor": 0.1,
        "roughnessFactor": 0.9
      },
      "name": "_auto_"
    },
    {
      "pbrMetallicRoughness": {
        "baseColorTexture": {
          "index": 7
        },
        "metallicFactor": 0.1,
        "roughnessFactor": 0.9
      },
      "name": "_auto_133"
    },
    {
      "pbrMetallicRoughness": {
        "baseColorTexture": {
          "index": 8
        },
        "metallicFactor": 0.1,
        "roughnessFactor": 0.9
      },
      "name": "_auto_134"
    },
    {
      "pbrMetallicRoughness": {
        "baseColorTexture": {
          "index": 9
        },
        "metallicFactor": 0.1,
        "roughnessFactor": 0.9
      },
      "name": "_auto_114"
    },
    {
      "pbrMetallicRoughness": {
        "baseColorFactor": [
          0.5795,
          0.5795,
          0.5795,
          1.0
        ],
        "metallicFactor": 0.1,
        "roughnessFactor": 0.9
      },
      "name": "_auto_139"
    }
  ],
  "images": [
    {
      "bufferView": 0,
      "mimeType": "image/jpeg"
    },
    {
      "bufferView": 1,
      "mimeType": "image/jpeg"
    },
    {
      "bufferView": 2,
      "mimeType": "image/jpeg"
    },
    {
      "bufferView": 3,
      "mimeType": "image/jpeg"
    },
    {
      "bufferView": 4,
      "mimeType": "image/jpeg"
    },
    {
      "bufferView": 5,
      "mimeType": "image/jpeg"
    },
    {
      "bufferView": 6,
      "mimeType": "image/jpeg"
    },
    {
      "bufferView": 7,
      "mimeType": "image/jpeg"
    },
    {
      "bufferView": 8,
      "mimeType": "image/jpeg"
    },
    {
      "bufferView": 9,
      "mimeType": "image/jpeg"
    }
  ],
  "textures": [
    {
      "source": 0,
      "sampler": 0
    },
    {
      "source": 1,
      "sampler": 0
    },
    {
      "source": 2,
      "sampler": 0
    },
    {
      "source": 3,
      "sampler": 0
    },
    {
      "source": 4,
      "sampler": 0
    },
    {
      "source": 5,
      "sampler": 0
    },
    {
      "source": 6,
      "sampler": 0
    },
    {
      "source": 7,
      "sampler": 0
    },
    {
      "source": 8,
      "sampler": 0
    },
    {
      "source": 9,
      "sampler": 0
    }
  ],
  "meshes": [
    {
      "primitives": [
        {
          "attributes": {
            "POSITION": 2,
            "NORMAL": 3,
            "TEXCOORD_0": 4
          },
          "indices": 5,
          "mode": 4,
          "material": 0
        },
        {
          "attributes": {
            "POSITION": 2,
            "NORMAL": 3,
            "TEXCOORD_0": 4
          },
          "indices": 6,
          "mode": 4,
          "material": 1
        },
        {
          "attributes": {
            "POSITION": 2,
            "NORMAL": 3,
            "TEXCOORD_0": 4
          },
          "indices": 7,
          "mode": 4,
          "material": 2
        },
        {
          "attributes": {
            "POSITION": 2,
            "NORMAL": 3,
            "TEXCOORD_0": 4
          },
          "indices": 8,
          "mode": 4,
          "material": 3
        },
        {
          "attributes": {
            "POSITION": 2,
            "NORMAL": 3,
            "TEXCOORD_0": 4
          },
          "indices": 9,
          "mode": 4,
          "material": 4
        },
        {
          "attributes": {
            "POSITION": 2,
            "NORMAL": 3,
            "TEXCOORD_0": 4
          },
          "indices": 10,
          "mode": 4,
          "material": 5
        },
        {
          "attributes": {
            "POSITION": 2,
            "NORMAL": 3,
            "TEXCOORD_0": 4
          },
          "indices": 11,
          "mode": 4,
          "material": 6
        },
        {
          "attributes": {
            "POSITION": 0,
            "NORMAL": 1
          },
          "indices": 12,
          "mode": 4,
          "material": 7
        },
        {
          "attributes": {
            "POSITION": 2,
            "NORMAL": 3,
            "TEXCOORD_0": 4
          },
          "indices": 13,
          "mode": 4,
          "material": 8
        },
        {
          "attributes": {
            "POSITION": 2,
            "NORMAL": 3,
            "TEXCOORD_0": 4
          },
          "indices": 14,
          "mode": 4,
          "material": 9
        },
        {
          "attributes": {
            "POSITION": 2,
            "NORMAL": 3,
            "TEXCOORD_0": 4
          },
          "indices": 15,
          "mode": 4,
          "material": 10
        },
        {
          "attributes": {
            "POSITION": 0,
            "NORMAL": 1
          },
          "indices": 16,
          "mode": 4,
          "material": 11
        }
      ]
    },
    {
      "primitives": [
        {
          "attributes": {
            "POSITION": 2,
            "NORMAL": 3,
            "TEXCOORD_0": 4
          },
          "indices": 17,
          "mode": 4,
          "material": 0
        }
      ]
    },
    {
      "primitives": [
        {
          "attributes": {
            "POSITION": 2,
            "NORMAL": 3,
            "TEXCOORD_0": 4
          },
          "indices": 18,
          "mode": 4,
          "material": 0
        }
      ]
    }
  ],
  "accessors": [
    {
      "bufferView": 10,
      "componentType": 5126,
      "count": 52,
      "type": "VEC3",
      "min": [
        -0.042940989637374874,
        0.004513248014450072,
        -0.014911707901954637
      ],
      "max": [
        0.052452309513092044,
        0.07450000081062316,
        0.014121291637420666
      ]
    },
    {
      "bufferView": 11,
      "componentType": 5126,
      "count": 52,
      "type": "VEC3",
      "min": [
        -1.0,
        -7.49879891330929e-33,
        -2.4492935982947064e-16
      ],
      "max": [
        7.49879891330929e-33,
        1.0,
        -6.123233995736766e-17
      ]
    },
    {
      "bufferView": 12,
      "componentType": 5126,
      "count": 1408,
      "type": "VEC3",
      "min": [
        -0.042940989637374874,
        -3.095509964371332e-08,
        -0.052272705650329584
      ],
      "max": [
        0.06685230870246887,
        0.08299999675750733,
        0.0513092894077301
      ]
    },
    {
      "bufferView": 13,
      "componentType": 5126,
      "count": 1408,
      "type": "VEC3",
      "min": [
        -0.9999968188058671,
        -1.0,
        -1.0
      ],
      "max": [
        1.0,
        1.0,
        1.0
      ]
    },
    {
      "bufferView": 14,
      "componentType": 5126,
      "count": 1408,
      "type": "VEC2",
      "min": [
        -8.780937491784979,
        -20.519680023193345
      ],
      "max": [
        10.185314282071321,
        2.205350688340941
      ]
    },
    {
      "bufferView": 16,
      "componentType": 5123,
      "count": 1023,
      "type": "SCALAR"
    },
    {
      "bufferView": 16,
      "componentType": 5123,
      "count": 168,
      "type": "SCALAR",
      "byteOffset": 2046
    },
    {
      "bufferView": 16,
      "componentType": 5123,
      "count": 168,
      "type": "SCALAR",
      "byteOffset": 2382
    },
    {
      "bufferView": 16,
      "componentType": 5123,
      "count": 207,
      "type": "SCALAR",
      "byteOffset": 2718
    },
    {
      "bufferView": 16,
      "componentType": 5123,
      "count": 27,
      "type": "SCALAR",
      "byteOffset": 3132
    },
    {
      "bufferView": 16,
      "componentType": 5123,
      "count": 225,
      "type": "SCALAR",
      "byteOffset": 3186
    },
    {
      "bufferView": 16,
      "componentType": 5123,
      "count": 51,
      "type": "SCALAR",
      "byteOffset": 3636
    },
    {
      "bufferView": 15,
      "componentType": 5121,
      "count": 48,
      "type": "SCALAR"
    },
    {
      "bufferView": 16,
      "componentType": 5123,
      "count": 294,
      "type": "SCALAR",
      "byteOffset": 3738
    },
    {
      "bufferView": 16,
      "componentType": 5123,
      "count": 15,
      "type": "SCALAR",
      "byteOffset": 4326
    },
    {
      "bufferView": 16,
      "componentType": 5123,
      "count": 228,
      "type": "SCALAR",
      "byteOffset": 4356
    },
    {
      "bufferView": 15,
      "componentType": 5121,
      "count": 36,
      "type": "SCALAR",
      "byteOffset": 48
    },
    {
      "bufferView": 16,
      "componentType": 5123,
      "count": 6,
      "type": "SCALAR",
      "byteOffset": 4812
    },
    {
      "bufferView": 16,
      "componentType": 5123,
      "count": 6,
      "type": "SCALAR",
      "byteOffset": 4824
    }
  ],
  "bufferViews": [
    {
      "buffer": 0,
      "byteLength": 123302
    },
    {
      "buffer": 0,
      "byteOffset": 123302,
      "byteLength": 181524
    },
    {
      "buffer": 0,
      "byteOffset": 304826,
      "byteLength": 10854
    },
    {
      "buffer": 0,
      "byteOffset": 315680,
      "byteLength": 2434
    },
    {
      "buffer": 0,
      "byteOffset": 318114,
      "byteLength": 2937
    },
    {
      "buffer": 0,
      "byteOffset": 321051,
      "byteLength": 116278
    },
    {
      "buffer": 0,
      "byteOffset": 437329,
      "byteLength": 177646
    },
    {
      "buffer": 0,
      "byteOffset": 614975,
      "byteLength": 154900
    },
    {
      "buffer": 0,
      "byteOffset": 769875,
      "byteLength": 140906
    },
    {
      "buffer": 0,
      "byteOffset": 910781,
      "byteLength": 1833815
    },
    {
      "buffer": 0,
      "byteOffset": 2744604,
      "byteLength": 624,
      "target": 34962,
      "byteStride": 12
    },
    {
      "buffer": 0,
      "byteOffset": 2745228,
      "byteLength": 624,
      "target": 34962,
      "byteStride": 12
    },
    {
      "buffer": 0,
      "byteOffset": 2745852,
      "byteLength": 16896,
      "target": 34962,
      "byteStride": 12
    },
    {
      "buffer": 0,
      "byteOffset": 2762748,
      "byteLength": 16896,
      "target": 34962,
      "byteStride": 12
    },
    {
      "buffer": 0,
      "byteOffset": 2779648,
      "byteLength": 11264,
      "target": 34962,
      "byteStride": 8
    },
    {
      "buffer": 0,
      "byteOffset": 2790912,
      "byteLength": 84,
      "target": 34963
    },
    {
      "buffer": 0,
      "byteOffset": 2790996,
      "byteLength": 4836,
      "target": 34963
    }
  ],
  "buffers": [
    {
      "uri": "data:application/octet-stream;base64,",
      "byteLength": 2795832
    }
  ]
}