{
  "asset": {
    "version": "2.0",
    "generator": "Sketchup glTF Exporter v1.2.6 by Centaur"
  },
  "scene": 0,
  "scenes": [
    {
      "nodes": [
        0
      ]
    }
  ],
  "samplers": [
    {
    }
  ],
  "nodes": [
    {
      "name": "root",
      "children": [
        1
      ]
    },
    {
      "name": "skp710B",
      "children": [
        2
      ]
    },
    {
      "name": "Model#4",
      "mesh": 0
    }
  ],
  "materials": [
    {
      "pbrMetallicRoughness": {
        "baseColorTexture": {
          "index": 0
        },
        "metallicFactor": 0.1,
        "roughnessFactor": 0.9
      },
      "name": "_auto_48"
    },
    {
      "pbrMetallicRoughness": {
        "baseColorTexture": {
          "index": 1
        },
        "metallicFactor": 0.1,
        "roughnessFactor": 0.9
      },
      "name": "_auto_45"
    },
    {
      "pbrMetallicRoughness": {
        "baseColorTexture": {
          "index": 2
        },
        "metallicFactor": 0.1,
        "roughnessFactor": 0.9
      },
      "name": "_auto_44"
    },
    {
      "pbrMetallicRoughness": {
        "baseColorFactor": [
          1.0,
          1.0,
          1.0,
          1.0
        ],
        "metallicFactor": 0.1,
        "roughnessFactor": 0.9
      },
      "name": "_auto_"
    }
  ],
  "images": [
    {
      "bufferView": 0,
      "mimeType": "image/jpeg"
    },
    {
      "bufferView": 1,
      "mimeType": "image/jpeg"
    },
    {
      "bufferView": 2,
      "mimeType": "image/jpeg"
    }
  ],
  "textures": [
    {
      "source": 0,
      "sampler": 0
    },
    {
      "source": 1,
      "sampler": 0
    },
    {
      "source": 2,
      "sampler": 0
    }
  ],
  "meshes": [
    {
      "primitives": [
        {
          "attributes": {
            "POSITION": 2,
            "NORMAL": 3,
            "TEXCOORD_0": 4
          },
          "indices": 5,
          "mode": 4,
          "material": 0
        },
        {
          "attributes": {
            "POSITION": 2,
            "NORMAL": 3,
            "TEXCOORD_0": 4
          },
          "indices": 6,
          "mode": 4,
          "material": 1
        },
        {
          "attributes": {
            "POSITION": 2,
            "NORMAL": 3,
            "TEXCOORD_0": 4
          },
          "indices": 7,
          "mode": 4,
          "material": 2
        },
        {
          "attributes": {
            "POSITION": 0,
            "NORMAL": 1
          },
          "indices": 8,
          "mode": 4,
          "material": 3
        }
      ]
    }
  ],
  "accessors": [
    {
      "bufferView": 3,
      "componentType": 5126,
      "count": 22,
      "type": "VEC3",
      "min": [
        -0.0742509059070855,
        0.013036530148982954,
        -0.026997179778438518
      ],
      "max": [
        0.013997510802814417,
        0.015500000178813894,
        0.0763045332113686
      ]
    },
    {
      "bufferView": 4,
      "componentType": 5126,
      "count": 22,
      "type": "VEC3",
      "min": [
        7.49879891330929e-33,
        1.0,
        -6.123233995736766e-17
      ],
      "max": [
        7.49879891330929e-33,
        1.0,
        -6.123233995736766e-17
      ]
    },
    {
      "bufferView": 5,
      "componentType": 5126,
      "count": 649,
      "type": "VEC3",
      "min": [
        -0.07511267501108937,
        -4.719015054872971e-17,
        -0.03381688221297832
      ],
      "max": [
        0.023667438972064914,
        0.017500000739097556,
        0.0774260248342934
      ]
    },
    {
      "bufferView": 6,
      "componentType": 5126,
      "count": 649,
      "type": "VEC3",
      "min": [
        -0.9950548707965785,
        -1.0,
        -0.9915130629510532
      ],
      "max": [
        0.9985340289684362,
        1.0,
        0.9915153665617308
      ]
    },
    {
      "bufferView": 7,
      "componentType": 5126,
      "count": 649,
      "type": "VEC2",
      "min": [
        -0.7699868083000334,
        -0.4639948406944272
      ],
      "max": [
        2.4786374568939222,
        2.021069049835204
      ]
    },
    {
      "bufferView": 9,
      "componentType": 5123,
      "count": 642,
      "type": "SCALAR"
    },
    {
      "bufferView": 9,
      "componentType": 5123,
      "count": 201,
      "type": "SCALAR",
      "byteOffset": 1284
    },
    {
      "bufferView": 9,
      "componentType": 5123,
      "count": 252,
      "type": "SCALAR",
      "byteOffset": 1686
    },
    {
      "bufferView": 8,
      "componentType": 5121,
      "count": 51,
      "type": "SCALAR"
    }
  ],
  "bufferViews": [
    {
      "buffer": 0,
      "byteLength": 94663
    },
    {
      "buffer": 0,
      "byteOffset": 94663,
      "byteLength": 138000
    },
    {
      "buffer": 0,
      "byteOffset": 232663,
      "byteLength": 1833815
    },
    {
      "buffer": 0,
      "byteOffset": 2066484,
      "byteLength": 264,
      "target": 34962,
      "byteStride": 12
    },
    {
      "buffer": 0,
      "byteOffset": 2066748,
      "byteLength": 264,
      "target": 34962,
      "byteStride": 12
    },
    {
      "buffer": 0,
      "byteOffset": 2067012,
      "byteLength": 7788,
      "target": 34962,
      "byteStride": 12
    },
    {
      "buffer": 0,
      "byteOffset": 2074800,
      "byteLength": 7788,
      "target": 34962,
      "byteStride": 12
    },
    {
      "buffer": 0,
      "byteOffset": 2082592,
      "byteLength": 5192,
      "target": 34962,
      "byteStride": 8
    },
    {
      "buffer": 0,
      "byteOffset": 2087784,
      "byteLength": 51,
      "target": 34963
    },
    {
      "buffer": 0,
      "byteOffset": 2087836,
      "byteLength": 2190,
      "target": 34963
    }
  ],
  "buffers": [
    {
      "uri": "data:application/octet-stream;base64,",
      "byteLength": 2090026
    }
  ]
}