{
  "asset": {
    "version": "2.0",
    "generator": "Sketchup glTF Exporter v1.2.6 by Centaur"
  },
  "scene": 0,
  "scenes": [
    {
      "nodes": [
        0
      ]
    }
  ],
  "samplers": [
    {
    }
  ],
  "nodes": [
    {
      "name": "root",
      "children": [
        1
      ]
    },
    {
      "name": "skp28A4",
      "children": [
        2,
        3,
        4,
        5
      ]
    },
    {
      "name": "Mesh01#8",
      "mesh": 0
    },
    {
      "name": "Mesh02#10",
      "mesh": 1
    },
    {
      "name": "Mesh03#7",
      "mesh": 2
    },
    {
      "name": "Mesh04#5",
      "mesh": 3
    }
  ],
  "materials": [
    {
      "pbrMetallicRoughness": {
        "baseColorTexture": {
          "index": 0
        },
        "metallicFactor": 0.1,
        "roughnessFactor": 0.9
      },
      "name": "_auto_42"
    },
    {
      "pbrMetallicRoughness": {
        "baseColorTexture": {
          "index": 1
        },
        "metallicFactor": 0.1,
        "roughnessFactor": 0.9
      },
      "name": "_auto_49"
    },
    {
      "pbrMetallicRoughness": {
        "baseColorTexture": {
          "index": 2
        },
        "metallicFactor": 0.1,
        "roughnessFactor": 0.9
      },
      "name": "_auto_44"
    },
    {
      "pbrMetallicRoughness": {
        "baseColorTexture": {
          "index": 3
        },
        "metallicFactor": 0.1,
        "roughnessFactor": 0.9
      },
      "name": "_auto_47"
    },
    {
      "pbrMetallicRoughness": {
        "baseColorFactor": [
          1.0,
          1.0,
          1.0,
          1.0
        ],
        "metallicFactor": 0.1,
        "roughnessFactor": 0.9
      },
      "name": "_auto_"
    }
  ],
  "images": [
    {
      "bufferView": 0,
      "mimeType": "image/jpeg"
    },
    {
      "bufferView": 1,
      "mimeType": "image/jpeg"
    },
    {
      "bufferView": 2,
      "mimeType": "image/jpeg"
    },
    {
      "bufferView": 3,
      "mimeType": "image/jpeg"
    }
  ],
  "textures": [
    {
      "source": 0,
      "sampler": 0
    },
    {
      "source": 1,
      "sampler": 0
    },
    {
      "source": 2,
      "sampler": 0
    },
    {
      "source": 3,
      "sampler": 0
    }
  ],
  "meshes": [
    {
      "primitives": [
        {
          "attributes": {
            "POSITION": 2,
            "NORMAL": 3,
            "TEXCOORD_0": 4
          },
          "indices": 5,
          "mode": 4,
          "material": 0
        },
        {
          "attributes": {
            "POSITION": 2,
            "NORMAL": 3,
            "TEXCOORD_0": 4
          },
          "indices": 6,
          "mode": 4,
          "material": 1
        },
        {
          "attributes": {
            "POSITION": 2,
            "NORMAL": 3,
            "TEXCOORD_0": 4
          },
          "indices": 7,
          "mode": 4,
          "material": 2
        },
        {
          "attributes": {
            "POSITION": 2,
            "NORMAL": 3,
            "TEXCOORD_0": 4
          },
          "indices": 8,
          "mode": 4,
          "material": 3
        }
      ]
    },
    {
      "primitives": [
        {
          "attributes": {
            "POSITION": 2,
            "NORMAL": 3,
            "TEXCOORD_0": 4
          },
          "indices": 9,
          "mode": 4,
          "material": 0
        },
        {
          "attributes": {
            "POSITION": 2,
            "NORMAL": 3,
            "TEXCOORD_0": 4
          },
          "indices": 10,
          "mode": 4,
          "material": 3
        },
        {
          "attributes": {
            "POSITION": 2,
            "NORMAL": 3,
            "TEXCOORD_0": 4
          },
          "indices": 11,
          "mode": 4,
          "material": 2
        },
        {
          "attributes": {
            "POSITION": 0,
            "NORMAL": 1
          },
          "indices": 12,
          "mode": 4,
          "material": 4
        }
      ]
    },
    {
      "primitives": [
        {
          "attributes": {
            "POSITION": 2,
            "NORMAL": 3,
            "TEXCOORD_0": 4
          },
          "indices": 13,
          "mode": 4,
          "material": 0
        },
        {
          "attributes": {
            "POSITION": 2,
            "NORMAL": 3,
            "TEXCOORD_0": 4
          },
          "indices": 14,
          "mode": 4,
          "material": 1
        },
        {
          "attributes": {
            "POSITION": 2,
            "NORMAL": 3,
            "TEXCOORD_0": 4
          },
          "indices": 15,
          "mode": 4,
          "material": 2
        }
      ]
    },
    {
      "primitives": [
        {
          "attributes": {
            "POSITION": 2,
            "NORMAL": 3,
            "TEXCOORD_0": 4
          },
          "indices": 16,
          "mode": 4,
          "material": 0
        }
      ]
    }
  ],
  "accessors": [
    {
      "bufferView": 4,
      "componentType": 5126,
      "count": 4,
      "type": "VEC3",
      "min": [
        0.0010765177257877623,
        0.005354883369803428,
        -0.008581304490084783
      ],
      "max": [
        0.0012502474315982948,
        0.005754882043600081,
        -0.00822100671481623
      ]
    },
    {
      "bufferView": 5,
      "componentType": 5126,
      "count": 4,
      "type": "VEC3",
      "min": [
        0.9007542971373783,
        2.659498210549783e-17,
        0.4343290183588329
      ],
      "max": [
        0.9007542971373783,
        2.659498210549783e-17,
        0.4343290183588329
      ]
    },
    {
      "bufferView": 6,
      "componentType": 5126,
      "count": 474,
      "type": "VEC3",
      "min": [
        -0.008159788655437816,
        -9.985346622644577e-17,
        -0.013537205051894324
      ],
      "max": [
        0.005924719858966476,
        0.006000000166893005,
        0.011810493755822046
      ]
    },
    {
      "bufferView": 7,
      "componentType": 5126,
      "count": 474,
      "type": "VEC3",
      "min": [
        -0.9014301907159974,
        -1.0,
        -0.9026208307839253
      ],
      "max": [
        0.9014257654297378,
        1.0,
        0.9008564106474037
      ]
    },
    {
      "bufferView": 8,
      "componentType": 5126,
      "count": 474,
      "type": "VEC2",
      "min": [
        -17.249967575071242,
        0.005091488361360419
      ],
      "max": [
        1.001688003540049,
        1.4743243753910065
      ]
    },
    {
      "bufferView": 10,
      "componentType": 5123,
      "count": 360,
      "type": "SCALAR"
    },
    {
      "bufferView": 10,
      "componentType": 5123,
      "count": 12,
      "type": "SCALAR",
      "byteOffset": 720
    },
    {
      "bufferView": 10,
      "componentType": 5123,
      "count": 12,
      "type": "SCALAR",
      "byteOffset": 744
    },
    {
      "bufferView": 10,
      "componentType": 5123,
      "count": 12,
      "type": "SCALAR",
      "byteOffset": 768
    },
    {
      "bufferView": 10,
      "componentType": 5123,
      "count": 279,
      "type": "SCALAR",
      "byteOffset": 792
    },
    {
      "bufferView": 10,
      "componentType": 5123,
      "count": 18,
      "type": "SCALAR",
      "byteOffset": 1350
    },
    {
      "bufferView": 10,
      "componentType": 5123,
      "count": 33,
      "type": "SCALAR",
      "byteOffset": 1386
    },
    {
      "bufferView": 9,
      "componentType": 5121,
      "count": 6,
      "type": "SCALAR"
    },
    {
      "bufferView": 10,
      "componentType": 5123,
      "count": 36,
      "type": "SCALAR",
      "byteOffset": 1452
    },
    {
      "bufferView": 10,
      "componentType": 5123,
      "count": 12,
      "type": "SCALAR",
      "byteOffset": 1524
    },
    {
      "bufferView": 10,
      "componentType": 5123,
      "count": 6,
      "type": "SCALAR",
      "byteOffset": 1548
    },
    {
      "bufferView": 10,
      "componentType": 5123,
      "count": 24,
      "type": "SCALAR",
      "byteOffset": 1560
    }
  ],
  "bufferViews": [
    {
      "buffer": 0,
      "byteLength": 122090
    },
    {
      "buffer": 0,
      "byteOffset": 122090,
      "byteLength": 183876
    },
    {
      "buffer": 0,
      "byteOffset": 305966,
      "byteLength": 1833815
    },
    {
      "buffer": 0,
      "byteOffset": 2139781,
      "byteLength": 138999
    },
    {
      "buffer": 0,
      "byteOffset": 2278788,
      "byteLength": 48,
      "target": 34962,
      "byteStride": 12
    },
    {
      "buffer": 0,
      "byteOffset": 2278836,
      "byteLength": 48,
      "target": 34962,
      "byteStride": 12
    },
    {
      "buffer": 0,
      "byteOffset": 2278884,
      "byteLength": 5688,
      "target": 34962,
      "byteStride": 12
    },
    {
      "buffer": 0,
      "byteOffset": 2284572,
      "byteLength": 5688,
      "target": 34962,
      "byteStride": 12
    },
    {
      "buffer": 0,
      "byteOffset": 2290264,
      "byteLength": 3792,
      "target": 34962,
      "byteStride": 8
    },
    {
      "buffer": 0,
      "byteOffset": 2294056,
      "byteLength": 6,
      "target": 34963
    },
    {
      "buffer": 0,
      "byteOffset": 2294062,
      "byteLength": 1608,
      "target": 34963
    }
  ],
  "buffers": [
    {
      "uri": "data:application/octet-stream;base64,",
      "byteLength": 2295670
    }
  ]
}