{
  "asset": {
    "version": "2.0",
    "generator": "Sketchup glTF Exporter v1.2.6 by Centaur"
  },
  "scene": 0,
  "scenes": [
    {
      "nodes": [
        0
      ]
    }
  ],
  "samplers": [
    {
    }
  ],
  "nodes": [
    {
      "name": "root",
      "children": [
        1
      ]
    },
    {
      "name": "skpD41E",
      "children": [
        2
      ]
    },
    {
      "name": "Model#10",
      "mesh": 0
    }
  ],
  "materials": [
    {
      "pbrMetallicRoughness": {
        "baseColorTexture": {
          "index": 0
        },
        "metallicFactor": 0.1,
        "roughnessFactor": 0.9
      },
      "name": "_auto_118"
    },
    {
      "pbrMetallicRoughness": {
        "baseColorTexture": {
          "index": 1
        },
        "metallicFactor": 0.1,
        "roughnessFactor": 0.9
      },
      "name": "_auto_120"
    },
    {
      "pbrMetallicRoughness": {
        "baseColorTexture": {
          "index": 2
        },
        "metallicFactor": 0.1,
        "roughnessFactor": 0.9
      },
      "name": "_auto_114"
    }
  ],
  "images": [
    {
      "bufferView": 0,
      "mimeType": "image/jpeg"
    },
    {
      "bufferView": 1,
      "mimeType": "image/jpeg"
    },
    {
      "bufferView": 2,
      "mimeType": "image/jpeg"
    }
  ],
  "textures": [
    {
      "source": 0,
      "sampler": 0
    },
    {
      "source": 1,
      "sampler": 0
    },
    {
      "source": 2,
      "sampler": 0
    }
  ],
  "meshes": [
    {
      "primitives": [
        {
          "attributes": {
            "POSITION": 0,
            "NORMAL": 1,
            "TEXCOORD_0": 2
          },
          "indices": 3,
          "mode": 4,
          "material": 0
        },
        {
          "attributes": {
            "POSITION": 0,
            "NORMAL": 1,
            "TEXCOORD_0": 2
          },
          "indices": 4,
          "mode": 4,
          "material": 1
        },
        {
          "attributes": {
            "POSITION": 0,
            "NORMAL": 1,
            "TEXCOORD_0": 2
          },
          "indices": 5,
          "mode": 4,
          "material": 2
        }
      ]
    }
  ],
  "accessors": [
    {
      "bufferView": 3,
      "componentType": 5126,
      "count": 323,
      "type": "VEC3",
      "min": [
        -0.019636053714792684,
        -3.7570674870501668e-19,
        -0.0061357568397124584
      ],
      "max": [
        0.016445743408162627,
        0.0659999988079071,
        0.009437226711312974
      ]
    },
    {
      "bufferView": 4,
      "componentType": 5126,
      "count": 323,
      "type": "VEC3",
      "min": [
        -0.9998779520346953,
        -0.0012788850860039028,
        -0.9998553939789169
      ],
      "max": [
        0.999847926431098,
        1.0,
        0.9998485352362128
      ]
    },
    {
      "bufferView": 5,
      "componentType": 5126,
      "count": 323,
      "type": "VEC2",
      "min": [
        -2.9435984745085957e-06,
        -2.5427250744680006
      ],
      "max": [
        34.24354952484252,
        35.66955947875936
      ]
    },
    {
      "bufferView": 6,
      "componentType": 5123,
      "count": 48,
      "type": "SCALAR"
    },
    {
      "bufferView": 6,
      "componentType": 5123,
      "count": 354,
      "type": "SCALAR",
      "byteOffset": 96
    },
    {
      "bufferView": 6,
      "componentType": 5123,
      "count": 132,
      "type": "SCALAR",
      "byteOffset": 804
    }
  ],
  "bufferViews": [
    {
      "buffer": 0,
      "byteLength": 218611
    },
    {
      "buffer": 0,
      "byteOffset": 218611,
      "byteLength": 130398
    },
    {
      "buffer": 0,
      "byteOffset": 349009,
      "byteLength": 1833815
    },
    {
      "buffer": 0,
      "byteOffset": 2182824,
      "byteLength": 3876,
      "target": 34962,
      "byteStride": 12
    },
    {
      "buffer": 0,
      "byteOffset": 2186700,
      "byteLength": 3876,
      "target": 34962,
      "byteStride": 12
    },
    {
      "buffer": 0,
      "byteOffset": 2190576,
      "byteLength": 2584,
      "target": 34962,
      "byteStride": 8
    },
    {
      "buffer": 0,
      "byteOffset": 2193160,
      "byteLength": 1068,
      "target": 34963
    }
  ],
  "buffers": [
    {
      "uri": "data:application/octet-stream;base64,",
      "byteLength": 2194228
    }
  ]
}