{
  "asset": {
    "version": "2.0",
    "generator": "Sketchup glTF Exporter v1.2.6 by Centaur"
  },
  "scene": 0,
  "scenes": [
    {
      "nodes": [
        0
      ]
    }
  ],
  "samplers": [
    {
    }
  ],
  "nodes": [
    {
      "name": "root",
      "children": [
        1
      ]
    },
    {
      "children": [
        2
      ]
    },
    {
      "mesh": 0
    }
  ],
  "materials": [
    {
      "pbrMetallicRoughness": {
        "baseColorFactor": [
          0.0342,
          0.0342,
          0.0342,
          1.0
        ],
        "metallicFactor": 0.1,
        "roughnessFactor": 0.9
      },
      "name": "default material19",
      "doubleSided": true
    },
    {
      "pbrMetallicRoughness": {
        "baseColorFactor": [
          1.0,
          1.0,
          1.0,
          1.0
        ],
        "metallicFactor": 0.1,
        "roughnessFactor": 0.9
      },
      "name": "<auto>24",
      "doubleSided": true
    },
    {
      "pbrMetallicRoughness": {
        "baseColorTexture": {
          "index": 0
        },
        "metallicFactor": 0.1,
        "roughnessFactor": 0.9
      },
      "name": "白墙体36",
      "doubleSided": true
    },
    {
      "pbrMetallicRoughness": {
        "baseColorTexture": {
          "index": 1
        },
        "metallicFactor": 0.1,
        "roughnessFactor": 0.9
      },
      "name": "Sketchy_Stone_Ashlar20",
      "doubleSided": true
    },
    {
      "pbrMetallicRoughness": {
        "baseColorTexture": {
          "index": 2
        },
        "metallicFactor": 0.1,
        "roughnessFactor": 0.9
      },
      "name": "白墙体37",
      "doubleSided": true
    },
    {
      "pbrMetallicRoughness": {
        "baseColorTexture": {
          "index": 3
        },
        "metallicFactor": 0.1,
        "roughnessFactor": 0.9
      },
      "name": "2墙体20",
      "doubleSided": true
    }
  ],
  "images": [
    {
      "bufferView": 0,
      "mimeType": "image/jpeg"
    },
    {
      "bufferView": 1,
      "mimeType": "image/jpeg"
    },
    {
      "bufferView": 2,
      "mimeType": "image/jpeg"
    },
    {
      "bufferView": 3,
      "mimeType": "image/jpeg"
    }
  ],
  "textures": [
    {
      "source": 0,
      "sampler": 0
    },
    {
      "source": 1,
      "sampler": 0
    },
    {
      "source": 2,
      "sampler": 0
    },
    {
      "source": 3,
      "sampler": 0
    }
  ],
  "meshes": [
    {
      "primitives": [
        {
          "attributes": {
            "POSITION": 0,
            "NORMAL": 1
          },
          "indices": 5,
          "mode": 4,
          "material": 0
        },
        {
          "attributes": {
            "POSITION": 0,
            "NORMAL": 1
          },
          "indices": 6,
          "mode": 4,
          "material": 1
        },
        {
          "attributes": {
            "POSITION": 2,
            "NORMAL": 3,
            "TEXCOORD_0": 4
          },
          "indices": 7,
          "mode": 4,
          "material": 2
        },
        {
          "attributes": {
            "POSITION": 2,
            "NORMAL": 3,
            "TEXCOORD_0": 4
          },
          "indices": 8,
          "mode": 4,
          "material": 3
        },
        {
          "attributes": {
            "POSITION": 2,
            "NORMAL": 3,
            "TEXCOORD_0": 4
          },
          "indices": 9,
          "mode": 4,
          "material": 4
        },
        {
          "attributes": {
            "POSITION": 2,
            "NORMAL": 3,
            "TEXCOORD_0": 4
          },
          "indices": 10,
          "mode": 4,
          "material": 5
        }
      ]
    }
  ],
  "accessors": [
    {
      "bufferView": 4,
      "componentType": 5126,
      "count": 129,
      "type": "VEC3",
      "min": [
        -145.9710587482222,
        -1.2821000618474976e-14,
        58.833566640974816
      ],
      "max": [
        -91.1279631211729,
        22.20589899550086,
        209.77992919830908
      ]
    },
    {
      "bufferView": 5,
      "componentType": 5126,
      "count": 129,
      "type": "VEC3",
      "min": [
        -2.449293598294706e-16,
        -1.0,
        -1.2246467991473532e-16
      ],
      "max": [
        1.3900157706802963e-16,
        1.0,
        1.0
      ]
    },
    {
      "bufferView": 6,
      "componentType": 5126,
      "count": 1504,
      "type": "VEC3",
      "min": [
        -145.9710587482222,
        -1.2821000618474976e-14,
        58.833566640974816
      ],
      "max": [
        -91.1279631211729,
        27.14326945378969,
        209.77992919830908
      ]
    },
    {
      "bufferView": 7,
      "componentType": 5126,
      "count": 1504,
      "type": "VEC3",
      "min": [
        -1.0,
        -1.0,
        -1.0
      ],
      "max": [
        1.0,
        1.0,
        1.0
      ]
    },
    {
      "bufferView": 8,
      "componentType": 5126,
      "count": 1504,
      "type": "VEC2",
      "min": [
        -825.9058721442748,
        -824.9052124023443
      ],
      "max": [
        825.9052124023414,
        1.0000003361862446
      ]
    },
    {
      "bufferView": 9,
      "componentType": 5121,
      "count": 6,
      "type": "SCALAR"
    },
    {
      "bufferView": 9,
      "componentType": 5121,
      "count": 147,
      "type": "SCALAR",
      "byteOffset": 6
    },
    {
      "bufferView": 10,
      "componentType": 5123,
      "count": 576,
      "type": "SCALAR"
    },
    {
      "bufferView": 10,
      "componentType": 5123,
      "count": 126,
      "type": "SCALAR",
      "byteOffset": 1152
    },
    {
      "bufferView": 10,
      "componentType": 5123,
      "count": 378,
      "type": "SCALAR",
      "byteOffset": 1404
    },
    {
      "bufferView": 10,
      "componentType": 5123,
      "count": 435,
      "type": "SCALAR",
      "byteOffset": 2160
    }
  ],
  "bufferViews": [
    {
      "buffer": 0,
      "byteLength": 2596
    },
    {
      "buffer": 0,
      "byteOffset": 2596,
      "byteLength": 11264
    },
    {
      "buffer": 0,
      "byteOffset": 13860,
      "byteLength": 2596
    },
    {
      "buffer": 0,
      "byteOffset": 16456,
      "byteLength": 38339
    },
    {
      "buffer": 0,
      "byteOffset": 54804,
      "byteLength": 1548,
      "target": 34962,
      "byteStride": 12
    },
    {
      "buffer": 0,
      "byteOffset": 56352,
      "byteLength": 1548,
      "target": 34962,
      "byteStride": 12
    },
    {
      "buffer": 0,
      "byteOffset": 57900,
      "byteLength": 18048,
      "target": 34962,
      "byteStride": 12
    },
    {
      "buffer": 0,
      "byteOffset": 75948,
      "byteLength": 18048,
      "target": 34962,
      "byteStride": 12
    },
    {
      "buffer": 0,
      "byteOffset": 94000,
      "byteLength": 12032,
      "target": 34962,
      "byteStride": 8
    },
    {
      "buffer": 0,
      "byteOffset": 106032,
      "byteLength": 153,
      "target": 34963
    },
    {
      "buffer": 0,
      "byteOffset": 106186,
      "byteLength": 3030,
      "target": 34963
    }
  ],
  "buffers": [
    {
      "uri": "data:application/octet-stream;base64,",
      "byteLength": 109216
    }
  ]
}