{
  "asset": {
    "version": "2.0",
    "generator": "Sketchup glTF Exporter v1.2.6 by Centaur"
  },
  "scene": 0,
  "scenes": [
    {
      "nodes": [
        0
      ]
    }
  ],
  "samplers": [
    {
    }
  ],
  "nodes": [
    {
      "name": "root",
      "children": [
        1
      ]
    },
    {
      "mesh": 0
    }
  ],
  "materials": [
    {
      "pbrMetallicRoughness": {
        "baseColorFactor": [
          0.2176,
          0.2176,
          0.2176,
          1.0
        ],
        "metallicFactor": 0.1,
        "roughnessFactor": 0.9
      },
      "name": "default material",
      "doubleSided": true
    },
    {
      "pbrMetallicRoughness": {
        "baseColorTexture": {
          "index": 0
        },
        "metallicFactor": 0.1,
        "roughnessFactor": 0.9
      },
      "name": "白墙体1",
      "doubleSided": true
    },
    {
      "pbrMetallicRoughness": {
        "baseColorTexture": {
          "index": 1
        },
        "metallicFactor": 0.1,
        "roughnessFactor": 0.9
      },
      "name": "Sketchy_Stone_Ashlar",
      "doubleSided": true
    },
    {
      "pbrMetallicRoughness": {
        "baseColorFactor": [
          1.0,
          1.0,
          1.0,
          1.0
        ],
        "metallicFactor": 0.1,
        "roughnessFactor": 0.9
      },
      "name": "<auto>",
      "doubleSided": true
    },
    {
      "pbrMetallicRoughness": {
        "baseColorTexture": {
          "index": 2
        },
        "metallicFactor": 0.1,
        "roughnessFactor": 0.9
      },
      "name": "白墙体4",
      "doubleSided": true
    },
    {
      "pbrMetallicRoughness": {
        "baseColorTexture": {
          "index": 3
        },
        "metallicFactor": 0.1,
        "roughnessFactor": 0.9
      },
      "name": "2墙体",
      "doubleSided": true
    }
  ],
  "images": [
    {
      "bufferView": 0,
      "mimeType": "image/jpeg"
    },
    {
      "bufferView": 1,
      "mimeType": "image/jpeg"
    },
    {
      "bufferView": 2,
      "mimeType": "image/jpeg"
    },
    {
      "bufferView": 3,
      "mimeType": "image/jpeg"
    }
  ],
  "textures": [
    {
      "source": 0,
      "sampler": 0
    },
    {
      "source": 1,
      "sampler": 0
    },
    {
      "source": 2,
      "sampler": 0
    },
    {
      "source": 3,
      "sampler": 0
    }
  ],
  "meshes": [
    {
      "primitives": [
        {
          "attributes": {
            "POSITION": 0,
            "NORMAL": 1
          },
          "indices": 5,
          "mode": 4,
          "material": 0
        },
        {
          "attributes": {
            "POSITION": 2,
            "NORMAL": 3,
            "TEXCOORD_0": 4
          },
          "indices": 6,
          "mode": 4,
          "material": 1
        },
        {
          "attributes": {
            "POSITION": 2,
            "NORMAL": 3,
            "TEXCOORD_0": 4
          },
          "indices": 7,
          "mode": 4,
          "material": 2
        },
        {
          "attributes": {
            "POSITION": 0,
            "NORMAL": 1
          },
          "indices": 8,
          "mode": 4,
          "material": 3
        },
        {
          "attributes": {
            "POSITION": 2,
            "NORMAL": 3,
            "TEXCOORD_0": 4
          },
          "indices": 9,
          "mode": 4,
          "material": 4
        },
        {
          "attributes": {
            "POSITION": 2,
            "NORMAL": 3,
            "TEXCOORD_0": 4
          },
          "indices": 10,
          "mode": 4,
          "material": 5
        }
      ]
    }
  ],
  "accessors": [
    {
      "bufferView": 4,
      "componentType": 5126,
      "count": 67,
      "type": "VEC3",
      "min": [
        53.105283411364375,
        -9.778627029991942e-15,
        -161.32522950892024
      ],
      "max": [
        107.9483760363646,
        22.20589920000001,
        -10.378871508919815
      ]
    },
    {
      "bufferView": 5,
      "componentType": 5126,
      "count": 67,
      "type": "VEC3",
      "min": [
        -9.979611741541707e-05,
        -1.0,
        -1.0
      ],
      "max": [
        1.1620479945550193e-06,
        1.0,
        6.352978285709763e-07
      ]
    },
    {
      "bufferView": 6,
      "componentType": 5126,
      "count": 771,
      "type": "VEC3",
      "min": [
        53.105283411364375,
        -9.778627029991942e-15,
        -161.32522950892024
      ],
      "max": [
        107.9483760363646,
        27.143268040000013,
        -10.378871508919815
      ]
    },
    {
      "bufferView": 7,
      "componentType": 5126,
      "count": 771,
      "type": "VEC3",
      "min": [
        -1.0,
        -1.0,
        -1.0
      ],
      "max": [
        1.0,
        1.0,
        1.0
      ]
    },
    {
      "bufferView": 8,
      "componentType": 5126,
      "count": 771,
      "type": "VEC2",
      "min": [
        -825.9052090759649,
        -824.9052090759649
      ],
      "max": [
        825.9052090759649,
        1.0000000000000402
      ]
    },
    {
      "bufferView": 9,
      "componentType": 5121,
      "count": 6,
      "type": "SCALAR"
    },
    {
      "bufferView": 10,
      "componentType": 5123,
      "count": 576,
      "type": "SCALAR"
    },
    {
      "bufferView": 10,
      "componentType": 5123,
      "count": 126,
      "type": "SCALAR",
      "byteOffset": 1152
    },
    {
      "bufferView": 9,
      "componentType": 5121,
      "count": 150,
      "type": "SCALAR",
      "byteOffset": 6
    },
    {
      "bufferView": 10,
      "componentType": 5123,
      "count": 375,
      "type": "SCALAR",
      "byteOffset": 1404
    },
    {
      "bufferView": 10,
      "componentType": 5123,
      "count": 444,
      "type": "SCALAR",
      "byteOffset": 2154
    }
  ],
  "bufferViews": [
    {
      "buffer": 0,
      "byteLength": 2596
    },
    {
      "buffer": 0,
      "byteOffset": 2596,
      "byteLength": 11257
    },
    {
      "buffer": 0,
      "byteOffset": 13853,
      "byteLength": 2596
    },
    {
      "buffer": 0,
      "byteOffset": 16449,
      "byteLength": 38313
    },
    {
      "buffer": 0,
      "byteOffset": 54768,
      "byteLength": 804,
      "target": 34962,
      "byteStride": 12
    },
    {
      "buffer": 0,
      "byteOffset": 55572,
      "byteLength": 804,
      "target": 34962,
      "byteStride": 12
    },
    {
      "buffer": 0,
      "byteOffset": 56376,
      "byteLength": 9252,
      "target": 34962,
      "byteStride": 12
    },
    {
      "buffer": 0,
      "byteOffset": 65628,
      "byteLength": 9252,
      "target": 34962,
      "byteStride": 12
    },
    {
      "buffer": 0,
      "byteOffset": 74880,
      "byteLength": 6168,
      "target": 34962,
      "byteStride": 8
    },
    {
      "buffer": 0,
      "byteOffset": 81048,
      "byteLength": 156,
      "target": 34963
    },
    {
      "buffer": 0,
      "byteOffset": 81204,
      "byteLength": 3042,
      "target": 34963
    }
  ],
  "buffers": [
    {
      "uri": "data:application/octet-stream;base64,",
      "byteLength": 84246
    }
  ]
}