{
  "asset": {
    "version": "2.0",
    "generator": "Sketchup glTF Exporter v1.2.6 by Centaur"
  },
  "scene": 0,
  "scenes": [
    {
      "nodes": [
        0
      ]
    }
  ],
  "samplers": [
    {
    }
  ],
  "nodes": [
    {
      "name": "root",
      "mesh": 0
    }
  ],
  "materials": [
    {
      "pbrMetallicRoughness": {
        "baseColorTexture": {
          "index": 0
        },
        "metallicFactor": 0.1,
        "roughnessFactor": 0.9
      },
      "name": "2墙体"
    },
    {
      "pbrMetallicRoughness": {
        "baseColorTexture": {
          "index": 1
        },
        "metallicFactor": 0.1,
        "roughnessFactor": 0.9
      },
      "name": "白墙体1"
    },
    {
      "pbrMetallicRoughness": {
        "baseColorTexture": {
          "index": 2
        },
        "metallicFactor": 0.1,
        "roughnessFactor": 0.9
      },
      "name": "Sketchy_Stone_Ashlar"
    },
    {
      "pbrMetallicRoughness": {
        "baseColorFactor": [
          0.2176,
          0.2176,
          0.2176,
          1.0
        ],
        "metallicFactor": 0.1,
        "roughnessFactor": 0.9
      },
      "name": "default material",
      "doubleSided": true
    }
  ],
  "images": [
    {
      "bufferView": 0,
      "mimeType": "image/jpeg"
    },
    {
      "bufferView": 1,
      "mimeType": "image/jpeg"
    },
    {
      "bufferView": 2,
      "mimeType": "image/jpeg"
    }
  ],
  "textures": [
    {
      "source": 0,
      "sampler": 0
    },
    {
      "source": 1,
      "sampler": 0
    },
    {
      "source": 2,
      "sampler": 0
    }
  ],
  "meshes": [
    {
      "primitives": [
        {
          "attributes": {
            "POSITION": 2,
            "NORMAL": 3,
            "TEXCOORD_0": 4
          },
          "indices": 5,
          "mode": 4,
          "material": 0
        },
        {
          "attributes": {
            "POSITION": 2,
            "NORMAL": 3,
            "TEXCOORD_0": 4
          },
          "indices": 6,
          "mode": 4,
          "material": 1
        },
        {
          "attributes": {
            "POSITION": 2,
            "NORMAL": 3,
            "TEXCOORD_0": 4
          },
          "indices": 7,
          "mode": 4,
          "material": 2
        },
        {
          "attributes": {
            "POSITION": 0,
            "NORMAL": 1
          },
          "indices": 8,
          "mode": 4,
          "material": 3
        }
      ]
    }
  ],
  "accessors": [
    {
      "bufferView": 3,
      "componentType": 5126,
      "count": 85,
      "type": "VEC3",
      "min": [
        1.2806128608195145e-14,
        -1.4373984900670092e-14,
        -234.74498787205943
      ],
      "max": [
        134.18000000000006,
        27.999999999999986,
        3.271611656643529e-14
      ]
    },
    {
      "bufferView": 4,
      "componentType": 5126,
      "count": 85,
      "type": "VEC3",
      "min": [
        -7.49879891330929e-33,
        -1.0,
        -1.0
      ],
      "max": [
        2.4492935982947064e-16,
        1.0,
        6.123233995736766e-17
      ]
    },
    {
      "bufferView": 5,
      "componentType": 5126,
      "count": 839,
      "type": "VEC3",
      "min": [
        1.2806128608195145e-14,
        -1.4373984900670092e-14,
        -234.74498787205943
      ],
      "max": [
        134.18000000000006,
        30.45919999999998,
        3.271611656643529e-14
      ]
    },
    {
      "bufferView": 6,
      "componentType": 5126,
      "count": 839,
      "type": "VEC3",
      "min": [
        -1.0,
        -6.129432592162816e-15,
        -1.0
      ],
      "max": [
        1.0,
        1.0,
        1.0
      ]
    },
    {
      "bufferView": 7,
      "componentType": 5126,
      "count": 839,
      "type": "VEC2",
      "min": [
        -100.20732730927182,
        -58.86230662514335
      ],
      "max": [
        24.200514213614372,
        42.633972192738895
      ]
    },
    {
      "bufferView": 9,
      "componentType": 5123,
      "count": 1098,
      "type": "SCALAR"
    },
    {
      "bufferView": 9,
      "componentType": 5123,
      "count": 471,
      "type": "SCALAR",
      "byteOffset": 2196
    },
    {
      "bufferView": 9,
      "componentType": 5123,
      "count": 66,
      "type": "SCALAR",
      "byteOffset": 3138
    },
    {
      "bufferView": 8,
      "componentType": 5121,
      "count": 249,
      "type": "SCALAR"
    }
  ],
  "bufferViews": [
    {
      "buffer": 0,
      "byteLength": 38334
    },
    {
      "buffer": 0,
      "byteOffset": 38334,
      "byteLength": 2596
    },
    {
      "buffer": 0,
      "byteOffset": 40930,
      "byteLength": 33602
    },
    {
      "buffer": 0,
      "byteOffset": 74532,
      "byteLength": 1020,
      "target": 34962,
      "byteStride": 12
    },
    {
      "buffer": 0,
      "byteOffset": 75552,
      "byteLength": 1020,
      "target": 34962,
      "byteStride": 12
    },
    {
      "buffer": 0,
      "byteOffset": 76572,
      "byteLength": 10068,
      "target": 34962,
      "byteStride": 12
    },
    {
      "buffer": 0,
      "byteOffset": 86640,
      "byteLength": 10068,
      "target": 34962,
      "byteStride": 12
    },
    {
      "buffer": 0,
      "byteOffset": 96712,
      "byteLength": 6712,
      "target": 34962,
      "byteStride": 8
    },
    {
      "buffer": 0,
      "byteOffset": 103424,
      "byteLength": 249,
      "target": 34963
    },
    {
      "buffer": 0,
      "byteOffset": 103674,
      "byteLength": 3270,
      "target": 34963
    }
  ],
  "buffers": [
    {
      "uri": "data:application/octet-stream;base64,",
      "byteLength": 106944
    }
  ]
}