{
  "asset": {
    "version": "2.0",
    "generator": "Sketchup glTF Exporter v1.2.6 by Centaur"
  },
  "scene": 0,
  "scenes": [
    {
      "nodes": [
        0
      ]
    }
  ],
  "samplers": [
    {
    }
  ],
  "nodes": [
    {
      "name": "root",
      "children": [
        1
      ]
    },
    {
      "name": "skpBB53",
      "children": [
        2,
        3,
        4,
        5
      ]
    },
    {
      "name": "Mesh01#7",
      "mesh": 0
    },
    {
      "name": "Mesh02#7",
      "mesh": 1
    },
    {
      "name": "Mesh03#7",
      "mesh": 2
    },
    {
      "name": "Mesh04#3",
      "mesh": 3
    }
  ],
  "materials": [
    {
      "pbrMetallicRoughness": {
        "baseColorFactor": [
          1.0,
          1.0,
          1.0,
          1.0
        ],
        "metallicFactor": 0.1,
        "roughnessFactor": 0.9
      },
      "name": "_auto_2"
    },
    {
      "pbrMetallicRoughness": {
        "baseColorTexture": {
          "index": 0
        },
        "metallicFactor": 0.1,
        "roughnessFactor": 0.9
      },
      "name": "_auto_46"
    },
    {
      "pbrMetallicRoughness": {
        "baseColorTexture": {
          "index": 1
        },
        "metallicFactor": 0.1,
        "roughnessFactor": 0.9
      },
      "name": "_auto_45"
    },
    {
      "pbrMetallicRoughness": {
        "baseColorTexture": {
          "index": 2
        },
        "metallicFactor": 0.1,
        "roughnessFactor": 0.9
      },
      "name": "_auto_35"
    },
    {
      "pbrMetallicRoughness": {
        "baseColorTexture": {
          "index": 3
        },
        "metallicFactor": 0.1,
        "roughnessFactor": 0.9
      },
      "name": "_auto_48"
    },
    {
      "pbrMetallicRoughness": {
        "baseColorTexture": {
          "index": 4
        },
        "metallicFactor": 0.1,
        "roughnessFactor": 0.9
      },
      "name": "_auto_47"
    }
  ],
  "images": [
    {
      "bufferView": 0,
      "mimeType": "image/jpeg"
    },
    {
      "bufferView": 1,
      "mimeType": "image/jpeg"
    },
    {
      "bufferView": 2,
      "mimeType": "image/jpeg"
    },
    {
      "bufferView": 3,
      "mimeType": "image/jpeg"
    },
    {
      "bufferView": 4,
      "mimeType": "image/jpeg"
    }
  ],
  "textures": [
    {
      "source": 0,
      "sampler": 0
    },
    {
      "source": 1,
      "sampler": 0
    },
    {
      "source": 2,
      "sampler": 0
    },
    {
      "source": 3,
      "sampler": 0
    },
    {
      "source": 4,
      "sampler": 0
    }
  ],
  "meshes": [
    {
      "primitives": [
        {
          "attributes": {
            "POSITION": 0,
            "NORMAL": 1
          },
          "indices": 5,
          "mode": 4,
          "material": 0
        },
        {
          "attributes": {
            "POSITION": 2,
            "NORMAL": 3,
            "TEXCOORD_0": 4
          },
          "indices": 6,
          "mode": 4,
          "material": 1
        },
        {
          "attributes": {
            "POSITION": 2,
            "NORMAL": 3,
            "TEXCOORD_0": 4
          },
          "indices": 7,
          "mode": 4,
          "material": 2
        },
        {
          "attributes": {
            "POSITION": 2,
            "NORMAL": 3,
            "TEXCOORD_0": 4
          },
          "indices": 8,
          "mode": 4,
          "material": 3
        }
      ]
    },
    {
      "primitives": [
        {
          "attributes": {
            "POSITION": 2,
            "NORMAL": 3,
            "TEXCOORD_0": 4
          },
          "indices": 9,
          "mode": 4,
          "material": 3
        },
        {
          "attributes": {
            "POSITION": 2,
            "NORMAL": 3,
            "TEXCOORD_0": 4
          },
          "indices": 10,
          "mode": 4,
          "material": 4
        },
        {
          "attributes": {
            "POSITION": 2,
            "NORMAL": 3,
            "TEXCOORD_0": 4
          },
          "indices": 11,
          "mode": 4,
          "material": 5
        }
      ]
    },
    {
      "primitives": [
        {
          "attributes": {
            "POSITION": 0,
            "NORMAL": 1
          },
          "indices": 12,
          "mode": 4,
          "material": 0
        },
        {
          "attributes": {
            "POSITION": 2,
            "NORMAL": 3,
            "TEXCOORD_0": 4
          },
          "indices": 13,
          "mode": 4,
          "material": 2
        }
      ]
    },
    {
      "primitives": [
        {
          "attributes": {
            "POSITION": 2,
            "NORMAL": 3,
            "TEXCOORD_0": 4
          },
          "indices": 14,
          "mode": 4,
          "material": 3
        },
        {
          "attributes": {
            "POSITION": 2,
            "NORMAL": 3,
            "TEXCOORD_0": 4
          },
          "indices": 15,
          "mode": 4,
          "material": 1
        },
        {
          "attributes": {
            "POSITION": 2,
            "NORMAL": 3,
            "TEXCOORD_0": 4
          },
          "indices": 16,
          "mode": 4,
          "material": 2
        }
      ]
    }
  ],
  "accessors": [
    {
      "bufferView": 5,
      "componentType": 5126,
      "count": 30,
      "type": "VEC3",
      "min": [
        -2.669564094250756,
        -0.04109999856949284,
        -80.82853316449757
      ],
      "max": [
        17.900935344225807,
        25.016198620605465,
        -70.37403331098194
      ]
    },
    {
      "bufferView": 6,
      "componentType": 5126,
      "count": 30,
      "type": "VEC3",
      "min": [
        -0.9999753164006271,
        -0.0007467692422819977,
        -0.9999538119442849
      ],
      "max": [
        0.999963353207463,
        0.9999999934899974,
        0.008604090339369689
      ]
    },
    {
      "bufferView": 7,
      "componentType": 5126,
      "count": 163,
      "type": "VEC3",
      "min": [
        -24.928065925305454,
        -0.0454999994993253,
        -82.51223194379445
      ],
      "max": [
        27.073334821993715,
        25.093000134277347,
        61.95666766558054
      ]
    },
    {
      "bufferView": 8,
      "componentType": 5126,
      "count": 163,
      "type": "VEC3",
      "min": [
        -0.9999633542654983,
        -0.004381775470407216,
        -0.9999752896406182
      ],
      "max": [
        0.9999753211911389,
        1.0,
        0.9999754960088748
      ]
    },
    {
      "bufferView": 9,
      "componentType": 5126,
      "count": 163,
      "type": "VEC2",
      "min": [
        -2540.4416602531765,
        -3334.9565427921507
      ],
      "max": [
        2608.017716492721,
        1965.486352836233
      ]
    },
    {
      "bufferView": 10,
      "componentType": 5121,
      "count": 30,
      "type": "SCALAR"
    },
    {
      "bufferView": 11,
      "componentType": 5121,
      "count": 42,
      "type": "SCALAR"
    },
    {
      "bufferView": 11,
      "componentType": 5121,
      "count": 42,
      "type": "SCALAR",
      "byteOffset": 42
    },
    {
      "bufferView": 11,
      "componentType": 5121,
      "count": 45,
      "type": "SCALAR",
      "byteOffset": 84
    },
    {
      "bufferView": 11,
      "componentType": 5121,
      "count": 6,
      "type": "SCALAR",
      "byteOffset": 129
    },
    {
      "bufferView": 11,
      "componentType": 5121,
      "count": 6,
      "type": "SCALAR",
      "byteOffset": 135
    },
    {
      "bufferView": 11,
      "componentType": 5121,
      "count": 18,
      "type": "SCALAR",
      "byteOffset": 141
    },
    {
      "bufferView": 10,
      "componentType": 5121,
      "count": 12,
      "type": "SCALAR",
      "byteOffset": 30
    },
    {
      "bufferView": 11,
      "componentType": 5121,
      "count": 18,
      "type": "SCALAR",
      "byteOffset": 159
    },
    {
      "bufferView": 11,
      "componentType": 5121,
      "count": 6,
      "type": "SCALAR",
      "byteOffset": 177
    },
    {
      "bufferView": 11,
      "componentType": 5121,
      "count": 12,
      "type": "SCALAR",
      "byteOffset": 183
    },
    {
      "bufferView": 11,
      "componentType": 5121,
      "count": 12,
      "type": "SCALAR",
      "byteOffset": 195
    }
  ],
  "bufferViews": [
    {
      "buffer": 0,
      "byteLength": 196626
    },
    {
      "buffer": 0,
      "byteOffset": 196626,
      "byteLength": 145699
    },
    {
      "buffer": 0,
      "byteOffset": 342325,
      "byteLength": 1833815
    },
    {
      "buffer": 0,
      "byteOffset": 2176140,
      "byteLength": 133002
    },
    {
      "buffer": 0,
      "byteOffset": 2309142,
      "byteLength": 199942
    },
    {
      "buffer": 0,
      "byteOffset": 2509092,
      "byteLength": 360,
      "target": 34962,
      "byteStride": 12
    },
    {
      "buffer": 0,
      "byteOffset": 2509452,
      "byteLength": 360,
      "target": 34962,
      "byteStride": 12
    },
    {
      "buffer": 0,
      "byteOffset": 2509812,
      "byteLength": 1956,
      "target": 34962,
      "byteStride": 12
    },
    {
      "buffer": 0,
      "byteOffset": 2511768,
      "byteLength": 1956,
      "target": 34962,
      "byteStride": 12
    },
    {
      "buffer": 0,
      "byteOffset": 2513728,
      "byteLength": 1304,
      "target": 34962,
      "byteStride": 8
    },
    {
      "buffer": 0,
      "byteOffset": 2515032,
      "byteLength": 42,
      "target": 34963
    },
    {
      "buffer": 0,
      "byteOffset": 2515074,
      "byteLength": 207,
      "target": 34963
    }
  ],
  "buffers": [
    {
      "uri": "data:application/octet-stream;base64,",
      "byteLength": 2515281
    }
  ]
}