{
  "asset": {
    "version": "2.0",
    "generator": "Sketchup glTF Exporter v1.2.6 by Centaur"
  },
  "scene": 0,
  "scenes": [
    {
      "nodes": [
        0
      ]
    }
  ],
  "samplers": [
    {
    }
  ],
  "nodes": [
    {
      "name": "root",
      "children": [
        1
      ]
    },
    {
      "name": "skp6F67",
      "children": [
        2,
        3
      ]
    },
    {
      "name": "Mesh01#10",
      "mesh": 0
    },
    {
      "name": "Mesh02#12",
      "mesh": 1
    }
  ],
  "materials": [
    {
      "pbrMetallicRoughness": {
        "baseColorTexture": {
          "index": 0
        },
        "metallicFactor": 0.1,
        "roughnessFactor": 0.9
      },
      "name": "_auto_75"
    },
    {
      "pbrMetallicRoughness": {
        "baseColorTexture": {
          "index": 1
        },
        "metallicFactor": 0.1,
        "roughnessFactor": 0.9
      },
      "name": "_auto_86"
    },
    {
      "pbrMetallicRoughness": {
        "baseColorTexture": {
          "index": 2
        },
        "metallicFactor": 0.1,
        "roughnessFactor": 0.9
      },
      "name": "_auto_83"
    },
    {
      "pbrMetallicRoughness": {
        "baseColorTexture": {
          "index": 3
        },
        "metallicFactor": 0.1,
        "roughnessFactor": 0.9
      },
      "name": "_auto_76"
    },
    {
      "pbrMetallicRoughness": {
        "baseColorTexture": {
          "index": 4
        },
        "metallicFactor": 0.1,
        "roughnessFactor": 0.9
      },
      "name": "_auto_84"
    },
    {
      "pbrMetallicRoughness": {
        "baseColorTexture": {
          "index": 5
        },
        "metallicFactor": 0.1,
        "roughnessFactor": 0.9
      },
      "name": "_auto_87"
    },
    {
      "pbrMetallicRoughness": {
        "baseColorTexture": {
          "index": 6
        },
        "metallicFactor": 0.1,
        "roughnessFactor": 0.9
      },
      "name": "_auto_85"
    },
    {
      "pbrMetallicRoughness": {
        "baseColorFactor": [
          1.0,
          1.0,
          1.0,
          1.0
        ],
        "metallicFactor": 0.1,
        "roughnessFactor": 0.9
      },
      "name": "_auto_"
    }
  ],
  "images": [
    {
      "bufferView": 0,
      "mimeType": "image/jpeg"
    },
    {
      "bufferView": 1,
      "mimeType": "image/jpeg"
    },
    {
      "bufferView": 2,
      "mimeType": "image/jpeg"
    },
    {
      "bufferView": 3,
      "mimeType": "image/jpeg"
    },
    {
      "bufferView": 4,
      "mimeType": "image/jpeg"
    },
    {
      "bufferView": 5,
      "mimeType": "image/jpeg"
    },
    {
      "bufferView": 6,
      "mimeType": "image/jpeg"
    }
  ],
  "textures": [
    {
      "source": 0,
      "sampler": 0
    },
    {
      "source": 1,
      "sampler": 0
    },
    {
      "source": 2,
      "sampler": 0
    },
    {
      "source": 3,
      "sampler": 0
    },
    {
      "source": 4,
      "sampler": 0
    },
    {
      "source": 5,
      "sampler": 0
    },
    {
      "source": 6,
      "sampler": 0
    }
  ],
  "meshes": [
    {
      "primitives": [
        {
          "attributes": {
            "POSITION": 2,
            "NORMAL": 3,
            "TEXCOORD_0": 4
          },
          "indices": 5,
          "mode": 4,
          "material": 0
        },
        {
          "attributes": {
            "POSITION": 2,
            "NORMAL": 3,
            "TEXCOORD_0": 4
          },
          "indices": 6,
          "mode": 4,
          "material": 1
        }
      ]
    },
    {
      "primitives": [
        {
          "attributes": {
            "POSITION": 2,
            "NORMAL": 3,
            "TEXCOORD_0": 4
          },
          "indices": 7,
          "mode": 4,
          "material": 0
        },
        {
          "attributes": {
            "POSITION": 2,
            "NORMAL": 3,
            "TEXCOORD_0": 4
          },
          "indices": 8,
          "mode": 4,
          "material": 2
        },
        {
          "attributes": {
            "POSITION": 2,
            "NORMAL": 3,
            "TEXCOORD_0": 4
          },
          "indices": 9,
          "mode": 4,
          "material": 3
        },
        {
          "attributes": {
            "POSITION": 2,
            "NORMAL": 3,
            "TEXCOORD_0": 4
          },
          "indices": 10,
          "mode": 4,
          "material": 4
        },
        {
          "attributes": {
            "POSITION": 2,
            "NORMAL": 3,
            "TEXCOORD_0": 4
          },
          "indices": 11,
          "mode": 4,
          "material": 5
        },
        {
          "attributes": {
            "POSITION": 2,
            "NORMAL": 3,
            "TEXCOORD_0": 4
          },
          "indices": 12,
          "mode": 4,
          "material": 6
        },
        {
          "attributes": {
            "POSITION": 2,
            "NORMAL": 3,
            "TEXCOORD_0": 4
          },
          "indices": 13,
          "mode": 4,
          "material": 1
        },
        {
          "attributes": {
            "POSITION": 0,
            "NORMAL": 1
          },
          "indices": 14,
          "mode": 4,
          "material": 7
        }
      ]
    }
  ],
  "accessors": [
    {
      "bufferView": 7,
      "componentType": 5126,
      "count": 4,
      "type": "VEC3",
      "min": [
        -0.04966900143675265,
        3.3105876915400075e-18,
        0.05406599999028222
      ],
      "max": [
        -0.0466689907556003,
        0.022999999630451205,
        0.05408760719853417
      ]
    },
    {
      "bufferView": 8,
      "componentType": 5126,
      "count": 4,
      "type": "VEC3",
      "min": [
        0.007202190305784463,
        6.123075182872781e-17,
        0.9999740638910588
      ],
      "max": [
        0.007202190305784463,
        6.123075182872781e-17,
        0.9999740638910588
      ]
    },
    {
      "bufferView": 9,
      "componentType": 5126,
      "count": 891,
      "type": "VEC3",
      "min": [
        -0.05700118470243867,
        -7.991665102086079e-08,
        -0.051244892687024896
      ],
      "max": [
        0.02555450777955598,
        0.029996978974342347,
        0.06766999035435695
      ]
    },
    {
      "bufferView": 10,
      "componentType": 5126,
      "count": 891,
      "type": "VEC3",
      "min": [
        -0.9999742069809765,
        -1.0,
        -0.9999742498330264
      ],
      "max": [
        0.9999743517577139,
        1.0,
        0.9999741796446426
      ]
    },
    {
      "bufferView": 11,
      "componentType": 5126,
      "count": 891,
      "type": "VEC2",
      "min": [
        -10.394418638860001,
        -11.295530319213864
      ],
      "max": [
        2.4982153268809,
        2.701562047004699
      ]
    },
    {
      "bufferView": 13,
      "componentType": 5123,
      "count": 144,
      "type": "SCALAR"
    },
    {
      "bufferView": 13,
      "componentType": 5123,
      "count": 432,
      "type": "SCALAR",
      "byteOffset": 288
    },
    {
      "bufferView": 13,
      "componentType": 5123,
      "count": 183,
      "type": "SCALAR",
      "byteOffset": 1152
    },
    {
      "bufferView": 13,
      "componentType": 5123,
      "count": 186,
      "type": "SCALAR",
      "byteOffset": 1518
    },
    {
      "bufferView": 13,
      "componentType": 5123,
      "count": 246,
      "type": "SCALAR",
      "byteOffset": 1890
    },
    {
      "bufferView": 13,
      "componentType": 5123,
      "count": 144,
      "type": "SCALAR",
      "byteOffset": 2382
    },
    {
      "bufferView": 13,
      "componentType": 5123,
      "count": 24,
      "type": "SCALAR",
      "byteOffset": 2670
    },
    {
      "bufferView": 13,
      "componentType": 5123,
      "count": 204,
      "type": "SCALAR",
      "byteOffset": 2718
    },
    {
      "bufferView": 13,
      "componentType": 5123,
      "count": 54,
      "type": "SCALAR",
      "byteOffset": 3126
    },
    {
      "bufferView": 12,
      "componentType": 5121,
      "count": 6,
      "type": "SCALAR"
    }
  ],
  "bufferViews": [
    {
      "buffer": 0,
      "byteLength": 1833815
    },
    {
      "buffer": 0,
      "byteOffset": 1833815,
      "byteLength": 190985
    },
    {
      "buffer": 0,
      "byteOffset": 2024800,
      "byteLength": 140906
    },
    {
      "buffer": 0,
      "byteOffset": 2165706,
      "byteLength": 165440
    },
    {
      "buffer": 0,
      "byteOffset": 2331146,
      "byteLength": 217080
    },
    {
      "buffer": 0,
      "byteOffset": 2548226,
      "byteLength": 95835
    },
    {
      "buffer": 0,
      "byteOffset": 2644061,
      "byteLength": 197700
    },
    {
      "buffer": 0,
      "byteOffset": 2841768,
      "byteLength": 48,
      "target": 34962,
      "byteStride": 12
    },
    {
      "buffer": 0,
      "byteOffset": 2841816,
      "byteLength": 48,
      "target": 34962,
      "byteStride": 12
    },
    {
      "buffer": 0,
      "byteOffset": 2841864,
      "byteLength": 10692,
      "target": 34962,
      "byteStride": 12
    },
    {
      "buffer": 0,
      "byteOffset": 2852556,
      "byteLength": 10692,
      "target": 34962,
      "byteStride": 12
    },
    {
      "buffer": 0,
      "byteOffset": 2863248,
      "byteLength": 7128,
      "target": 34962,
      "byteStride": 8
    },
    {
      "buffer": 0,
      "byteOffset": 2870376,
      "byteLength": 6,
      "target": 34963
    },
    {
      "buffer": 0,
      "byteOffset": 2870382,
      "byteLength": 3234,
      "target": 34963
    }
  ],
  "buffers": [
    {
      "uri": "data:application/octet-stream;base64,",
      "byteLength": 2873616
    }
  ]
}