{
  "asset": {
    "version": "2.0",
    "generator": "Sketchup glTF Exporter v1.2.6 by Centaur"
  },
  "scene": 0,
  "scenes": [
    {
      "nodes": [
        0
      ]
    }
  ],
  "samplers": [
    {
    }
  ],
  "nodes": [
    {
      "name": "root",
      "children": [
        1
      ]
    },
    {
      "name": "skpB8DB",
      "children": [
        2,
        3,
        4
      ]
    },
    {
      "name": "Mesh01_9_1",
      "mesh": 0
    },
    {
      "name": "Mesh03_9_1",
      "mesh": 1
    },
    {
      "name": "Mesh04_5_1",
      "mesh": 2
    }
  ],
  "materials": [
    {
      "pbrMetallicRoughness": {
        "baseColorTexture": {
          "index": 0
        },
        "metallicFactor": 0.1,
        "roughnessFactor": 0.9
      },
      "name": "auto_35"
    },
    {
      "pbrMetallicRoughness": {
        "baseColorFactor": [
          1.0,
          1.0,
          1.0,
          1.0
        ],
        "metallicFactor": 0.1,
        "roughnessFactor": 0.9
      },
      "name": "auto_7"
    },
    {
      "pbrMetallicRoughness": {
        "baseColorTexture": {
          "index": 1
        },
        "metallicFactor": 0.1,
        "roughnessFactor": 0.9
      },
      "name": "auto_46"
    },
    {
      "pbrMetallicRoughness": {
        "baseColorTexture": {
          "index": 2
        },
        "metallicFactor": 0.1,
        "roughnessFactor": 0.9
      },
      "name": "auto_45"
    }
  ],
  "images": [
    {
      "bufferView": 0,
      "mimeType": "image/jpeg"
    },
    {
      "bufferView": 1,
      "mimeType": "image/jpeg"
    },
    {
      "bufferView": 2,
      "mimeType": "image/jpeg"
    }
  ],
  "textures": [
    {
      "source": 0,
      "sampler": 0
    },
    {
      "source": 1,
      "sampler": 0
    },
    {
      "source": 2,
      "sampler": 0
    }
  ],
  "meshes": [
    {
      "primitives": [
        {
          "attributes": {
            "POSITION": 2,
            "NORMAL": 3,
            "TEXCOORD_0": 4
          },
          "indices": 5,
          "mode": 4,
          "material": 0
        },
        {
          "attributes": {
            "POSITION": 0,
            "NORMAL": 1
          },
          "indices": 6,
          "mode": 4,
          "material": 1
        },
        {
          "attributes": {
            "POSITION": 2,
            "NORMAL": 3,
            "TEXCOORD_0": 4
          },
          "indices": 7,
          "mode": 4,
          "material": 2
        },
        {
          "attributes": {
            "POSITION": 2,
            "NORMAL": 3,
            "TEXCOORD_0": 4
          },
          "indices": 8,
          "mode": 4,
          "material": 3
        }
      ]
    },
    {
      "primitives": [
        {
          "attributes": {
            "POSITION": 2,
            "NORMAL": 3,
            "TEXCOORD_0": 4
          },
          "indices": 9,
          "mode": 4,
          "material": 0
        },
        {
          "attributes": {
            "POSITION": 2,
            "NORMAL": 3,
            "TEXCOORD_0": 4
          },
          "indices": 10,
          "mode": 4,
          "material": 2
        },
        {
          "attributes": {
            "POSITION": 2,
            "NORMAL": 3,
            "TEXCOORD_0": 4
          },
          "indices": 11,
          "mode": 4,
          "material": 3
        }
      ]
    },
    {
      "primitives": [
        {
          "attributes": {
            "POSITION": 0,
            "NORMAL": 1
          },
          "indices": 12,
          "mode": 4,
          "material": 1
        },
        {
          "attributes": {
            "POSITION": 2,
            "NORMAL": 3,
            "TEXCOORD_0": 4
          },
          "indices": 13,
          "mode": 4,
          "material": 3
        }
      ]
    }
  ],
  "accessors": [
    {
      "bufferView": 3,
      "componentType": 5126,
      "count": 30,
      "type": "VEC3",
      "min": [
        -4.646445218143144,
        -0.06419999966621502,
        -27.192220359421594
      ],
      "max": [
        15.924054220333414,
        24.993099255371092,
        -16.737726707077844
      ]
    },
    {
      "bufferView": 4,
      "componentType": 5126,
      "count": 30,
      "type": "VEC3",
      "min": [
        -0.999975317932062,
        -0.0007467709788043788,
        -0.9999538132870358
      ],
      "max": [
        0.9999633534316221,
        0.9999999934812821,
        0.00860184457774387
      ]
    },
    {
      "bufferView": 5,
      "componentType": 5126,
      "count": 141,
      "type": "VEC3",
      "min": [
        -8.68044704919776,
        -0.06859999756813154,
        -28.875912937546588
      ],
      "max": [
        21.92375622228654,
        24.99979962158203,
        25.42379282417215
      ]
    },
    {
      "bufferView": 6,
      "componentType": 5126,
      "count": 141,
      "type": "VEC3",
      "min": [
        -0.9999633575655802,
        -0.004382084282533596,
        -0.9999753083802314
      ],
      "max": [
        0.9999753183911817,
        1.0,
        0.9999755086676569
      ]
    },
    {
      "bufferView": 7,
      "componentType": 5126,
      "count": 141,
      "type": "VEC2",
      "min": [
        -3402.9414063823338,
        -397.01060042444607
      ],
      "max": [
        243.59884738456594,
        8061.803222533651
      ]
    },
    {
      "bufferView": 9,
      "componentType": 5121,
      "count": 45,
      "type": "SCALAR"
    },
    {
      "bufferView": 8,
      "componentType": 5121,
      "count": 30,
      "type": "SCALAR"
    },
    {
      "bufferView": 9,
      "componentType": 5121,
      "count": 42,
      "type": "SCALAR",
      "byteOffset": 45
    },
    {
      "bufferView": 9,
      "componentType": 5121,
      "count": 42,
      "type": "SCALAR",
      "byteOffset": 87
    },
    {
      "bufferView": 9,
      "componentType": 5121,
      "count": 6,
      "type": "SCALAR",
      "byteOffset": 129
    },
    {
      "bufferView": 9,
      "componentType": 5121,
      "count": 12,
      "type": "SCALAR",
      "byteOffset": 135
    },
    {
      "bufferView": 9,
      "componentType": 5121,
      "count": 12,
      "type": "SCALAR",
      "byteOffset": 147
    },
    {
      "bufferView": 8,
      "componentType": 5121,
      "count": 12,
      "type": "SCALAR",
      "byteOffset": 30
    },
    {
      "bufferView": 9,
      "componentType": 5121,
      "count": 18,
      "type": "SCALAR",
      "byteOffset": 159
    }
  ],
  "bufferViews": [
    {
      "buffer": 0,
      "byteLength": 1836750
    },
    {
      "buffer": 0,
      "byteOffset": 1836750,
      "byteLength": 196642
    },
    {
      "buffer": 0,
      "byteOffset": 2033392,
      "byteLength": 145790
    },
    {
      "buffer": 0,
      "byteOffset": 2179188,
      "byteLength": 360,
      "target": 34962,
      "byteStride": 12
    },
    {
      "buffer": 0,
      "byteOffset": 2179548,
      "byteLength": 360,
      "target": 34962,
      "byteStride": 12
    },
    {
      "buffer": 0,
      "byteOffset": 2179908,
      "byteLength": 1692,
      "target": 34962,
      "byteStride": 12
    },
    {
      "buffer": 0,
      "byteOffset": 2181600,
      "byteLength": 1692,
      "target": 34962,
      "byteStride": 12
    },
    {
      "buffer": 0,
      "byteOffset": 2183296,
      "byteLength": 1128,
      "target": 34962,
      "byteStride": 8
    },
    {
      "buffer": 0,
      "byteOffset": 2184424,
      "byteLength": 42,
      "target": 34963
    },
    {
      "buffer": 0,
      "byteOffset": 2184466,
      "byteLength": 177,
      "target": 34963
    }
  ],
  "buffers": [
    {
      "uri": "data:application/octet-stream;base64,",
      "byteLength": 2184643
    }
  ]
}