{
  "asset": {
    "version": "2.0",
    "generator": "Sketchup glTF Exporter v1.2.6 by Centaur"
  },
  "scene": 0,
  "scenes": [
    {
      "nodes": [
        0
      ]
    }
  ],
  "samplers": [
    {
    }
  ],
  "nodes": [
    {
      "name": "root",
      "children": [
        1
      ]
    },
    {
      "name": "skp999C",
      "children": [
        2,
        3,
        4,
        5,
        6,
        7,
        8,
        9,
        10,
        11,
        12,
        13,
        14,
        15
      ]
    },
    {
      "name": "Mesh01#18",
      "mesh": 0
    },
    {
      "name": "Mesh02#20",
      "mesh": 1
    },
    {
      "name": "Mesh03#14",
      "mesh": 2
    },
    {
      "name": "Mesh04#12",
      "mesh": 3
    },
    {
      "name": "Mesh05#11",
      "mesh": 4
    },
    {
      "name": "Mesh06#10",
      "mesh": 5
    },
    {
      "name": "Mesh07#9",
      "mesh": 6
    },
    {
      "name": "Mesh08#7",
      "mesh": 7
    },
    {
      "name": "Mesh09#6",
      "mesh": 8
    },
    {
      "name": "Mesh10#5",
      "mesh": 9
    },
    {
      "name": "Mesh11#5",
      "mesh": 10
    },
    {
      "name": "Mesh12#4",
      "mesh": 11
    },
    {
      "name": "Mesh13#4",
      "mesh": 12
    },
    {
      "name": "Mesh14#4",
      "mesh": 13
    }
  ],
  "materials": [
    {
      "pbrMetallicRoughness": {
        "baseColorTexture": {
          "index": 0
        },
        "metallicFactor": 0.1,
        "roughnessFactor": 0.9
      },
      "name": "_auto_126"
    },
    {
      "pbrMetallicRoughness": {
        "baseColorTexture": {
          "index": 1
        },
        "metallicFactor": 0.1,
        "roughnessFactor": 0.9
      },
      "name": "_auto_127"
    },
    {
      "pbrMetallicRoughness": {
        "baseColorTexture": {
          "index": 2
        },
        "metallicFactor": 0.1,
        "roughnessFactor": 0.9
      },
      "name": "_auto_114"
    },
    {
      "pbrMetallicRoughness": {
        "baseColorFactor": [
          1.0,
          1.0,
          1.0,
          1.0
        ],
        "metallicFactor": 0.1,
        "roughnessFactor": 0.9
      },
      "name": "_auto_"
    },
    {
      "pbrMetallicRoughness": {
        "baseColorTexture": {
          "index": 3
        },
        "metallicFactor": 0.1,
        "roughnessFactor": 0.9
      },
      "name": "_auto_128"
    },
    {
      "pbrMetallicRoughness": {
        "baseColorFactor": [
          0.6121,
          0.6121,
          0.6121,
          1.0
        ],
        "metallicFactor": 0.1,
        "roughnessFactor": 0.9
      },
      "name": "_auto_124"
    },
    {
      "pbrMetallicRoughness": {
        "baseColorTexture": {
          "index": 4
        },
        "metallicFactor": 0.1,
        "roughnessFactor": 0.9
      },
      "name": "_auto_125"
    },
    {
      "pbrMetallicRoughness": {
        "baseColorFactor": [
          0.6456,
          0.6456,
          0.6456,
          1.0
        ],
        "metallicFactor": 0.1,
        "roughnessFactor": 0.9
      },
      "name": "_auto_122"
    },
    {
      "pbrMetallicRoughness": {
        "baseColorFactor": [
          0.7593,
          0.7593,
          0.7593,
          1.0
        ],
        "metallicFactor": 0.1,
        "roughnessFactor": 0.9
      },
      "name": "_auto_123"
    }
  ],
  "images": [
    {
      "bufferView": 0,
      "mimeType": "image/jpeg"
    },
    {
      "bufferView": 1,
      "mimeType": "image/jpeg"
    },
    {
      "bufferView": 2,
      "mimeType": "image/jpeg"
    },
    {
      "bufferView": 3,
      "mimeType": "image/jpeg"
    },
    {
      "bufferView": 4,
      "mimeType": "image/jpeg"
    }
  ],
  "textures": [
    {
      "source": 0,
      "sampler": 0
    },
    {
      "source": 1,
      "sampler": 0
    },
    {
      "source": 2,
      "sampler": 0
    },
    {
      "source": 3,
      "sampler": 0
    },
    {
      "source": 4,
      "sampler": 0
    }
  ],
  "meshes": [
    {
      "primitives": [
        {
          "attributes": {
            "POSITION": 2,
            "NORMAL": 3,
            "TEXCOORD_0": 4
          },
          "indices": 5,
          "mode": 4,
          "material": 0
        },
        {
          "attributes": {
            "POSITION": 2,
            "NORMAL": 3,
            "TEXCOORD_0": 4
          },
          "indices": 6,
          "mode": 4,
          "material": 1
        },
        {
          "attributes": {
            "POSITION": 2,
            "NORMAL": 3,
            "TEXCOORD_0": 4
          },
          "indices": 7,
          "mode": 4,
          "material": 2
        },
        {
          "attributes": {
            "POSITION": 0,
            "NORMAL": 1
          },
          "indices": 8,
          "mode": 4,
          "material": 3
        },
        {
          "attributes": {
            "POSITION": 2,
            "NORMAL": 3,
            "TEXCOORD_0": 4
          },
          "indices": 9,
          "mode": 4,
          "material": 4
        },
        {
          "attributes": {
            "POSITION": 0,
            "NORMAL": 1
          },
          "indices": 10,
          "mode": 4,
          "material": 5
        },
        {
          "attributes": {
            "POSITION": 2,
            "NORMAL": 3,
            "TEXCOORD_0": 4
          },
          "indices": 11,
          "mode": 4,
          "material": 6
        },
        {
          "attributes": {
            "POSITION": 0,
            "NORMAL": 1
          },
          "indices": 12,
          "mode": 4,
          "material": 7
        },
        {
          "attributes": {
            "POSITION": 0,
            "NORMAL": 1
          },
          "indices": 13,
          "mode": 4,
          "material": 8
        }
      ]
    },
    {
      "primitives": [
        {
          "attributes": {
            "POSITION": 2,
            "NORMAL": 3,
            "TEXCOORD_0": 4
          },
          "indices": 14,
          "mode": 4,
          "material": 1
        }
      ]
    },
    {
      "primitives": [
        {
          "attributes": {
            "POSITION": 2,
            "NORMAL": 3,
            "TEXCOORD_0": 4
          },
          "indices": 15,
          "mode": 4,
          "material": 1
        }
      ]
    },
    {
      "primitives": [
        {
          "attributes": {
            "POSITION": 2,
            "NORMAL": 3,
            "TEXCOORD_0": 4
          },
          "indices": 16,
          "mode": 4,
          "material": 1
        }
      ]
    },
    {
      "primitives": [
        {
          "attributes": {
            "POSITION": 2,
            "NORMAL": 3,
            "TEXCOORD_0": 4
          },
          "indices": 17,
          "mode": 4,
          "material": 1
        }
      ]
    },
    {
      "primitives": [
        {
          "attributes": {
            "POSITION": 2,
            "NORMAL": 3,
            "TEXCOORD_0": 4
          },
          "indices": 18,
          "mode": 4,
          "material": 1
        }
      ]
    },
    {
      "primitives": [
        {
          "attributes": {
            "POSITION": 2,
            "NORMAL": 3,
            "TEXCOORD_0": 4
          },
          "indices": 19,
          "mode": 4,
          "material": 0
        }
      ]
    },
    {
      "primitives": [
        {
          "attributes": {
            "POSITION": 0,
            "NORMAL": 1
          },
          "indices": 20,
          "mode": 4,
          "material": 8
        }
      ]
    },
    {
      "primitives": [
        {
          "attributes": {
            "POSITION": 0,
            "NORMAL": 1
          },
          "indices": 21,
          "mode": 4,
          "material": 8
        }
      ]
    },
    {
      "primitives": [
        {
          "attributes": {
            "POSITION": 0,
            "NORMAL": 1
          },
          "indices": 22,
          "mode": 4,
          "material": 8
        }
      ]
    },
    {
      "primitives": [
        {
          "attributes": {
            "POSITION": 0,
            "NORMAL": 1
          },
          "indices": 23,
          "mode": 4,
          "material": 8
        }
      ]
    },
    {
      "primitives": [
        {
          "attributes": {
            "POSITION": 0,
            "NORMAL": 1
          },
          "indices": 24,
          "mode": 4,
          "material": 8
        }
      ]
    },
    {
      "primitives": [
        {
          "attributes": {
            "POSITION": 0,
            "NORMAL": 1
          },
          "indices": 25,
          "mode": 4,
          "material": 8
        }
      ]
    },
    {
      "primitives": [
        {
          "attributes": {
            "POSITION": 0,
            "NORMAL": 1
          },
          "indices": 26,
          "mode": 4,
          "material": 8
        }
      ]
    }
  ],
  "accessors": [
    {
      "bufferView": 5,
      "componentType": 5126,
      "count": 63,
      "type": "VEC3",
      "min": [
        -0.0893455313196746,
        0.004395916271209717,
        -0.007304854375585701
      ],
      "max": [
        0.06133056712240309,
        0.021000000584125517,
        0.07411114265276508
      ]
    },
    {
      "bufferView": 6,
      "componentType": 5126,
      "count": 63,
      "type": "VEC3",
      "min": [
        -7.49879891330929e-33,
        -1.0,
        -0.009114991626003861
      ],
      "max": [
        0.9999586142043896,
        1.0,
        0.9999595117239808
      ]
    },
    {
      "bufferView": 7,
      "componentType": 5126,
      "count": 988,
      "type": "VEC3",
      "min": [
        -0.09474101109414967,
        -6.248790399697922e-07,
        -0.02364286511586583
      ],
      "max": [
        0.11376997771352854,
        0.021000000584125517,
        0.07411114265276508
      ]
    },
    {
      "bufferView": 8,
      "componentType": 5126,
      "count": 988,
      "type": "VEC3",
      "min": [
        -0.9999998197844451,
        -1.0,
        -0.9999999959953815
      ],
      "max": [
        1.0,
        1.0,
        0.9999999959962067
      ]
    },
    {
      "bufferView": 9,
      "componentType": 5126,
      "count": 988,
      "type": "VEC2",
      "min": [
        -13.372132301330566,
        -0.6060795109461723
      ],
      "max": [
        13.101628303527832,
        6.011005401611328
      ]
    },
    {
      "bufferView": 11,
      "componentType": 5123,
      "count": 636,
      "type": "SCALAR"
    },
    {
      "bufferView": 11,
      "componentType": 5123,
      "count": 453,
      "type": "SCALAR",
      "byteOffset": 1272
    },
    {
      "bufferView": 11,
      "componentType": 5123,
      "count": 306,
      "type": "SCALAR",
      "byteOffset": 2178
    },
    {
      "bufferView": 10,
      "componentType": 5121,
      "count": 15,
      "type": "SCALAR"
    },
    {
      "bufferView": 11,
      "componentType": 5123,
      "count": 66,
      "type": "SCALAR",
      "byteOffset": 2790
    },
    {
      "bufferView": 10,
      "componentType": 5121,
      "count": 18,
      "type": "SCALAR",
      "byteOffset": 15
    },
    {
      "bufferView": 11,
      "componentType": 5123,
      "count": 189,
      "type": "SCALAR",
      "byteOffset": 2922
    },
    {
      "bufferView": 10,
      "componentType": 5121,
      "count": 18,
      "type": "SCALAR",
      "byteOffset": 33
    },
    {
      "bufferView": 10,
      "componentType": 5121,
      "count": 6,
      "type": "SCALAR",
      "byteOffset": 51
    },
    {
      "bufferView": 11,
      "componentType": 5123,
      "count": 6,
      "type": "SCALAR",
      "byteOffset": 3300
    },
    {
      "bufferView": 11,
      "componentType": 5123,
      "count": 6,
      "type": "SCALAR",
      "byteOffset": 3312
    },
    {
      "bufferView": 11,
      "componentType": 5123,
      "count": 6,
      "type": "SCALAR",
      "byteOffset": 3324
    },
    {
      "bufferView": 11,
      "componentType": 5123,
      "count": 6,
      "type": "SCALAR",
      "byteOffset": 3336
    },
    {
      "bufferView": 11,
      "componentType": 5123,
      "count": 6,
      "type": "SCALAR",
      "byteOffset": 3348
    },
    {
      "bufferView": 11,
      "componentType": 5123,
      "count": 42,
      "type": "SCALAR",
      "byteOffset": 3360
    },
    {
      "bufferView": 10,
      "componentType": 5121,
      "count": 6,
      "type": "SCALAR",
      "byteOffset": 57
    },
    {
      "bufferView": 10,
      "componentType": 5121,
      "count": 6,
      "type": "SCALAR",
      "byteOffset": 63
    },
    {
      "bufferView": 10,
      "componentType": 5121,
      "count": 6,
      "type": "SCALAR",
      "byteOffset": 69
    },
    {
      "bufferView": 10,
      "componentType": 5121,
      "count": 6,
      "type": "SCALAR",
      "byteOffset": 75
    },
    {
      "bufferView": 10,
      "componentType": 5121,
      "count": 6,
      "type": "SCALAR",
      "byteOffset": 81
    },
    {
      "bufferView": 10,
      "componentType": 5121,
      "count": 6,
      "type": "SCALAR",
      "byteOffset": 87
    },
    {
      "bufferView": 10,
      "componentType": 5121,
      "count": 6,
      "type": "SCALAR",
      "byteOffset": 93
    }
  ],
  "bufferViews": [
    {
      "buffer": 0,
      "byteLength": 155664
    },
    {
      "buffer": 0,
      "byteOffset": 155664,
      "byteLength": 202893
    },
    {
      "buffer": 0,
      "byteOffset": 358557,
      "byteLength": 1833815
    },
    {
      "buffer": 0,
      "byteOffset": 2192372,
      "byteLength": 95835
    },
    {
      "buffer": 0,
      "byteOffset": 2288207,
      "byteLength": 181524
    },
    {
      "buffer": 0,
      "byteOffset": 2469732,
      "byteLength": 756,
      "target": 34962,
      "byteStride": 12
    },
    {
      "buffer": 0,
      "byteOffset": 2470488,
      "byteLength": 756,
      "target": 34962,
      "byteStride": 12
    },
    {
      "buffer": 0,
      "byteOffset": 2471244,
      "byteLength": 11856,
      "target": 34962,
      "byteStride": 12
    },
    {
      "buffer": 0,
      "byteOffset": 2483100,
      "byteLength": 11856,
      "target": 34962,
      "byteStride": 12
    },
    {
      "buffer": 0,
      "byteOffset": 2494960,
      "byteLength": 7904,
      "target": 34962,
      "byteStride": 8
    },
    {
      "buffer": 0,
      "byteOffset": 2502864,
      "byteLength": 99,
      "target": 34963
    },
    {
      "buffer": 0,
      "byteOffset": 2502964,
      "byteLength": 3444,
      "target": 34963
    }
  ],
  "buffers": [
    {
      "uri": "data:application/octet-stream;base64,",
      "byteLength": 2506408
    }
  ]
}