{
  "asset": {
    "version": "2.0",
    "generator": "Sketchup glTF Exporter v1.2.6 by Centaur"
  },
  "scene": 0,
  "scenes": [
    {
      "nodes": [
        0
      ]
    }
  ],
  "samplers": [
    {
    }
  ],
  "nodes": [
    {
      "name": "root",
      "children": [
        1
      ]
    },
    {
      "name": "skpF26D",
      "children": [
        2,
        3,
        4
      ]
    },
    {
      "name": "Mesh01#22",
      "mesh": 0
    },
    {
      "name": "Mesh02#24",
      "mesh": 1
    },
    {
      "name": "Mesh03#18",
      "mesh": 2
    }
  ],
  "materials": [
    {
      "pbrMetallicRoughness": {
        "baseColorTexture": {
          "index": 0
        },
        "metallicFactor": 0.1,
        "roughnessFactor": 0.9
      },
      "name": "_auto_114"
    },
    {
      "pbrMetallicRoughness": {
        "baseColorTexture": {
          "index": 1
        },
        "metallicFactor": 0.1,
        "roughnessFactor": 0.9
      },
      "name": "_auto_126"
    },
    {
      "pbrMetallicRoughness": {
        "baseColorTexture": {
          "index": 2
        },
        "metallicFactor": 0.1,
        "roughnessFactor": 0.9
      },
      "name": "_auto_127"
    },
    {
      "pbrMetallicRoughness": {
        "baseColorTexture": {
          "index": 3
        },
        "metallicFactor": 0.1,
        "roughnessFactor": 0.9
      },
      "name": "_auto_125"
    },
    {
      "pbrMetallicRoughness": {
        "baseColorFactor": [
          1.0,
          1.0,
          1.0,
          1.0
        ],
        "metallicFactor": 0.1,
        "roughnessFactor": 0.9
      },
      "name": "_auto_"
    },
    {
      "pbrMetallicRoughness": {
        "baseColorFactor": [
          0.5605,
          0.5605,
          0.5605,
          1.0
        ],
        "metallicFactor": 0.1,
        "roughnessFactor": 0.9
      },
      "name": "_auto_135"
    },
    {
      "pbrMetallicRoughness": {
        "baseColorTexture": {
          "index": 4
        },
        "metallicFactor": 0.1,
        "roughnessFactor": 0.9
      },
      "name": "_auto_130"
    },
    {
      "pbrMetallicRoughness": {
        "baseColorTexture": {
          "index": 5
        },
        "metallicFactor": 0.1,
        "roughnessFactor": 0.9
      },
      "name": "_auto_128"
    },
    {
      "pbrMetallicRoughness": {
        "baseColorTexture": {
          "index": 6
        },
        "metallicFactor": 0.1,
        "roughnessFactor": 0.9
      },
      "name": "_auto_129"
    },
    {
      "pbrMetallicRoughness": {
        "baseColorFactor": [
          0.7593,
          0.7593,
          0.7593,
          1.0
        ],
        "metallicFactor": 0.1,
        "roughnessFactor": 0.9
      },
      "name": "_auto_123"
    },
    {
      "pbrMetallicRoughness": {
        "baseColorTexture": {
          "index": 7
        },
        "metallicFactor": 0.1,
        "roughnessFactor": 0.9
      },
      "name": "_auto_134"
    },
    {
      "pbrMetallicRoughness": {
        "baseColorFactor": [
          0.6121,
          0.6121,
          0.6121,
          1.0
        ],
        "metallicFactor": 0.1,
        "roughnessFactor": 0.9
      },
      "name": "_auto_124"
    }
  ],
  "images": [
    {
      "bufferView": 0,
      "mimeType": "image/jpeg"
    },
    {
      "bufferView": 1,
      "mimeType": "image/jpeg"
    },
    {
      "bufferView": 2,
      "mimeType": "image/jpeg"
    },
    {
      "bufferView": 3,
      "mimeType": "image/jpeg"
    },
    {
      "bufferView": 4,
      "mimeType": "image/jpeg"
    },
    {
      "bufferView": 5,
      "mimeType": "image/jpeg"
    },
    {
      "bufferView": 6,
      "mimeType": "image/jpeg"
    },
    {
      "bufferView": 7,
      "mimeType": "image/jpeg"
    }
  ],
  "textures": [
    {
      "source": 0,
      "sampler": 0
    },
    {
      "source": 1,
      "sampler": 0
    },
    {
      "source": 2,
      "sampler": 0
    },
    {
      "source": 3,
      "sampler": 0
    },
    {
      "source": 4,
      "sampler": 0
    },
    {
      "source": 5,
      "sampler": 0
    },
    {
      "source": 6,
      "sampler": 0
    },
    {
      "source": 7,
      "sampler": 0
    }
  ],
  "meshes": [
    {
      "primitives": [
        {
          "attributes": {
            "POSITION": 2,
            "NORMAL": 3,
            "TEXCOORD_0": 4
          },
          "indices": 5,
          "mode": 4,
          "material": 0
        },
        {
          "attributes": {
            "POSITION": 2,
            "NORMAL": 3,
            "TEXCOORD_0": 4
          },
          "indices": 6,
          "mode": 4,
          "material": 1
        },
        {
          "attributes": {
            "POSITION": 2,
            "NORMAL": 3,
            "TEXCOORD_0": 4
          },
          "indices": 7,
          "mode": 4,
          "material": 2
        },
        {
          "attributes": {
            "POSITION": 2,
            "NORMAL": 3,
            "TEXCOORD_0": 4
          },
          "indices": 8,
          "mode": 4,
          "material": 3
        },
        {
          "attributes": {
            "POSITION": 0,
            "NORMAL": 1
          },
          "indices": 9,
          "mode": 4,
          "material": 4
        },
        {
          "attributes": {
            "POSITION": 0,
            "NORMAL": 1
          },
          "indices": 10,
          "mode": 4,
          "material": 5
        },
        {
          "attributes": {
            "POSITION": 2,
            "NORMAL": 3,
            "TEXCOORD_0": 4
          },
          "indices": 11,
          "mode": 4,
          "material": 6
        },
        {
          "attributes": {
            "POSITION": 2,
            "NORMAL": 3,
            "TEXCOORD_0": 4
          },
          "indices": 12,
          "mode": 4,
          "material": 7
        },
        {
          "attributes": {
            "POSITION": 2,
            "NORMAL": 3,
            "TEXCOORD_0": 4
          },
          "indices": 13,
          "mode": 4,
          "material": 8
        },
        {
          "attributes": {
            "POSITION": 0,
            "NORMAL": 1
          },
          "indices": 14,
          "mode": 4,
          "material": 9
        },
        {
          "attributes": {
            "POSITION": 2,
            "NORMAL": 3,
            "TEXCOORD_0": 4
          },
          "indices": 15,
          "mode": 4,
          "material": 10
        }
      ]
    },
    {
      "primitives": [
        {
          "attributes": {
            "POSITION": 2,
            "NORMAL": 3,
            "TEXCOORD_0": 4
          },
          "indices": 16,
          "mode": 4,
          "material": 2
        }
      ]
    },
    {
      "primitives": [
        {
          "attributes": {
            "POSITION": 2,
            "NORMAL": 3,
            "TEXCOORD_0": 4
          },
          "indices": 17,
          "mode": 4,
          "material": 3
        },
        {
          "attributes": {
            "POSITION": 2,
            "NORMAL": 3,
            "TEXCOORD_0": 4
          },
          "indices": 18,
          "mode": 4,
          "material": 0
        },
        {
          "attributes": {
            "POSITION": 2,
            "NORMAL": 3,
            "TEXCOORD_0": 4
          },
          "indices": 19,
          "mode": 4,
          "material": 1
        },
        {
          "attributes": {
            "POSITION": 2,
            "NORMAL": 3,
            "TEXCOORD_0": 4
          },
          "indices": 20,
          "mode": 4,
          "material": 7
        },
        {
          "attributes": {
            "POSITION": 2,
            "NORMAL": 3,
            "TEXCOORD_0": 4
          },
          "indices": 21,
          "mode": 4,
          "material": 2
        },
        {
          "attributes": {
            "POSITION": 0,
            "NORMAL": 1
          },
          "indices": 22,
          "mode": 4,
          "material": 11
        }
      ]
    }
  ],
  "accessors": [
    {
      "bufferView": 8,
      "componentType": 5126,
      "count": 17,
      "type": "VEC3",
      "min": [
        -0.09573714908737035,
        0.0038972499281167998,
        -0.020005752598548032
      ],
      "max": [
        0.05487324357849266,
        0.02449999891519546,
        0.04266924930880056
      ]
    },
    {
      "bufferView": 9,
      "componentType": 5126,
      "count": 17,
      "type": "VEC3",
      "min": [
        7.49879891330929e-33,
        0.9999999991046445,
        -6.123233995736766e-17
      ],
      "max": [
        2.9740736894309447e-05,
        1.0,
        3.0103146951034935e-05
      ]
    },
    {
      "bufferView": 10,
      "componentType": 5126,
      "count": 951,
      "type": "VEC3",
      "min": [
        -0.09575895008224339,
        -0.0004996351815760124,
        -0.022212739979529494
      ],
      "max": [
        0.10986991086822656,
        0.0270000022649765,
        0.04266924930880056
      ]
    },
    {
      "bufferView": 11,
      "componentType": 5126,
      "count": 951,
      "type": "VEC3",
      "min": [
        -0.9999998576867423,
        -1.0,
        -1.0
      ],
      "max": [
        0.9999998738338797,
        1.0,
        1.0
      ]
    },
    {
      "bufferView": 12,
      "componentType": 5126,
      "count": 951,
      "type": "VEC2",
      "min": [
        -10.411969523859584,
        -1.4872210025787336
      ],
      "max": [
        8.346595764160156,
        17.425140380859375
      ]
    },
    {
      "bufferView": 14,
      "componentType": 5123,
      "count": 177,
      "type": "SCALAR"
    },
    {
      "bufferView": 14,
      "componentType": 5123,
      "count": 513,
      "type": "SCALAR",
      "byteOffset": 354
    },
    {
      "bufferView": 14,
      "componentType": 5123,
      "count": 294,
      "type": "SCALAR",
      "byteOffset": 1380
    },
    {
      "bufferView": 14,
      "componentType": 5123,
      "count": 174,
      "type": "SCALAR",
      "byteOffset": 1968
    },
    {
      "bufferView": 13,
      "componentType": 5121,
      "count": 6,
      "type": "SCALAR"
    },
    {
      "bufferView": 13,
      "componentType": 5121,
      "count": 6,
      "type": "SCALAR",
      "byteOffset": 6
    },
    {
      "bufferView": 14,
      "componentType": 5123,
      "count": 6,
      "type": "SCALAR",
      "byteOffset": 2316
    },
    {
      "bufferView": 14,
      "componentType": 5123,
      "count": 12,
      "type": "SCALAR",
      "byteOffset": 2328
    },
    {
      "bufferView": 14,
      "componentType": 5123,
      "count": 6,
      "type": "SCALAR",
      "byteOffset": 2352
    },
    {
      "bufferView": 13,
      "componentType": 5121,
      "count": 6,
      "type": "SCALAR",
      "byteOffset": 12
    },
    {
      "bufferView": 14,
      "componentType": 5123,
      "count": 12,
      "type": "SCALAR",
      "byteOffset": 2364
    },
    {
      "bufferView": 14,
      "componentType": 5123,
      "count": 6,
      "type": "SCALAR",
      "byteOffset": 2388
    },
    {
      "bufferView": 14,
      "componentType": 5123,
      "count": 234,
      "type": "SCALAR",
      "byteOffset": 2400
    },
    {
      "bufferView": 14,
      "componentType": 5123,
      "count": 66,
      "type": "SCALAR",
      "byteOffset": 2868
    },
    {
      "bufferView": 14,
      "componentType": 5123,
      "count": 66,
      "type": "SCALAR",
      "byteOffset": 3000
    },
    {
      "bufferView": 14,
      "componentType": 5123,
      "count": 45,
      "type": "SCALAR",
      "byteOffset": 3132
    },
    {
      "bufferView": 14,
      "componentType": 5123,
      "count": 9,
      "type": "SCALAR",
      "byteOffset": 3222
    },
    {
      "bufferView": 13,
      "componentType": 5121,
      "count": 9,
      "type": "SCALAR",
      "byteOffset": 18
    }
  ],
  "bufferViews": [
    {
      "buffer": 0,
      "byteLength": 1833815
    },
    {
      "buffer": 0,
      "byteOffset": 1833815,
      "byteLength": 155664
    },
    {
      "buffer": 0,
      "byteOffset": 1989479,
      "byteLength": 202893
    },
    {
      "buffer": 0,
      "byteOffset": 2192372,
      "byteLength": 181524
    },
    {
      "buffer": 0,
      "byteOffset": 2373896,
      "byteLength": 124303
    },
    {
      "buffer": 0,
      "byteOffset": 2498199,
      "byteLength": 95835
    },
    {
      "buffer": 0,
      "byteOffset": 2594034,
      "byteLength": 117983
    },
    {
      "buffer": 0,
      "byteOffset": 2712017,
      "byteLength": 140906
    },
    {
      "buffer": 0,
      "byteOffset": 2852928,
      "byteLength": 204,
      "target": 34962,
      "byteStride": 12
    },
    {
      "buffer": 0,
      "byteOffset": 2853132,
      "byteLength": 204,
      "target": 34962,
      "byteStride": 12
    },
    {
      "buffer": 0,
      "byteOffset": 2853336,
      "byteLength": 11412,
      "target": 34962,
      "byteStride": 12
    },
    {
      "buffer": 0,
      "byteOffset": 2864748,
      "byteLength": 11412,
      "target": 34962,
      "byteStride": 12
    },
    {
      "buffer": 0,
      "byteOffset": 2876160,
      "byteLength": 7608,
      "target": 34962,
      "byteStride": 8
    },
    {
      "buffer": 0,
      "byteOffset": 2883768,
      "byteLength": 27,
      "target": 34963
    },
    {
      "buffer": 0,
      "byteOffset": 2883796,
      "byteLength": 3240,
      "target": 34963
    }
  ],
  "buffers": [
    {
      "uri": "data:application/octet-stream;base64,",
      "byteLength": 2887036
    }
  ]
}