{
  "asset": {
    "version": "2.0",
    "generator": "Sketchup glTF Exporter v1.2.6 by Centaur"
  },
  "scene": 0,
  "scenes": [
    {
      "nodes": [
        0
      ]
    }
  ],
  "samplers": [
    {
    }
  ],
  "nodes": [
    {
      "name": "root",
      "mesh": 0
    }
  ],
  "materials": [
    {
      "pbrMetallicRoughness": {
        "baseColorTexture": {
          "index": 0
        },
        "metallicFactor": 0.1,
        "roughnessFactor": 0.9
      },
      "name": "2墙体"
    },
    {
      "pbrMetallicRoughness": {
        "baseColorTexture": {
          "index": 1
        },
        "metallicFactor": 0.1,
        "roughnessFactor": 0.9
      },
      "name": "Concrete_Block_8x8_Gray"
    },
    {
      "pbrMetallicRoughness": {
        "baseColorTexture": {
          "index": 2
        },
        "metallicFactor": 0.1,
        "roughnessFactor": 0.9
      },
      "name": "白墙体1"
    },
    {
      "pbrMetallicRoughness": {
        "baseColorFactor": [
          0.2176,
          0.2176,
          0.2176,
          1.0
        ],
        "metallicFactor": 0.1,
        "roughnessFactor": 0.9
      },
      "name": "default material",
      "doubleSided": true
    }
  ],
  "images": [
    {
      "bufferView": 0,
      "mimeType": "image/jpeg"
    },
    {
      "bufferView": 1,
      "mimeType": "image/jpeg"
    },
    {
      "bufferView": 2,
      "mimeType": "image/jpeg"
    }
  ],
  "textures": [
    {
      "source": 0,
      "sampler": 0
    },
    {
      "source": 1,
      "sampler": 0
    },
    {
      "source": 2,
      "sampler": 0
    }
  ],
  "meshes": [
    {
      "primitives": [
        {
          "attributes": {
            "POSITION": 2,
            "NORMAL": 3,
            "TEXCOORD_0": 4
          },
          "indices": 5,
          "mode": 4,
          "material": 0
        },
        {
          "attributes": {
            "POSITION": 2,
            "NORMAL": 3,
            "TEXCOORD_0": 4
          },
          "indices": 6,
          "mode": 4,
          "material": 1
        },
        {
          "attributes": {
            "POSITION": 2,
            "NORMAL": 3,
            "TEXCOORD_0": 4
          },
          "indices": 7,
          "mode": 4,
          "material": 2
        },
        {
          "attributes": {
            "POSITION": 0,
            "NORMAL": 1
          },
          "indices": 8,
          "mode": 4,
          "material": 3
        }
      ]
    }
  ],
  "accessors": [
    {
      "bufferView": 3,
      "componentType": 5126,
      "count": 21,
      "type": "VEC3",
      "min": [
        0.0,
        -3.2426720757689985e-15,
        -52.956853813306374
      ],
      "max": [
        70.17911176700458,
        27.999999999999996,
        2.608497682183866e-15
      ]
    },
    {
      "bufferView": 4,
      "componentType": 5126,
      "count": 21,
      "type": "VEC3",
      "min": [
        -1.0,
        -1.0,
        -2.4492935982947064e-16
      ],
      "max": [
        -7.49879891330929e-33,
        -7.49879891330929e-33,
        6.123233995736766e-17
      ]
    },
    {
      "bufferView": 5,
      "componentType": 5126,
      "count": 153,
      "type": "VEC3",
      "min": [
        0.0,
        -3.2426720757689985e-15,
        -52.956853813306374
      ],
      "max": [
        70.17911176700458,
        33.0,
        2.608497682183866e-15
      ]
    },
    {
      "bufferView": 6,
      "componentType": 5126,
      "count": 153,
      "type": "VEC3",
      "min": [
        -1.0,
        -3.901750424590825e-16,
        -1.0
      ],
      "max": [
        1.0,
        1.0,
        1.0
      ]
    },
    {
      "bufferView": 7,
      "componentType": 5126,
      "count": 153,
      "type": "VEC2",
      "min": [
        -312.79883642160013,
        -128.92125984251967
      ],
      "max": [
        312.7988364216001,
        28.74184294052952
      ]
    },
    {
      "bufferView": 9,
      "componentType": 5121,
      "count": 123,
      "type": "SCALAR"
    },
    {
      "bufferView": 9,
      "componentType": 5121,
      "count": 42,
      "type": "SCALAR",
      "byteOffset": 123
    },
    {
      "bufferView": 9,
      "componentType": 5121,
      "count": 120,
      "type": "SCALAR",
      "byteOffset": 165
    },
    {
      "bufferView": 8,
      "componentType": 5121,
      "count": 54,
      "type": "SCALAR"
    }
  ],
  "bufferViews": [
    {
      "buffer": 0,
      "byteLength": 38313
    },
    {
      "buffer": 0,
      "byteOffset": 38313,
      "byteLength": 10104
    },
    {
      "buffer": 0,
      "byteOffset": 48417,
      "byteLength": 2596
    },
    {
      "buffer": 0,
      "byteOffset": 51024,
      "byteLength": 252,
      "target": 34962,
      "byteStride": 12
    },
    {
      "buffer": 0,
      "byteOffset": 51276,
      "byteLength": 252,
      "target": 34962,
      "byteStride": 12
    },
    {
      "buffer": 0,
      "byteOffset": 51528,
      "byteLength": 1836,
      "target": 34962,
      "byteStride": 12
    },
    {
      "buffer": 0,
      "byteOffset": 53364,
      "byteLength": 1836,
      "target": 34962,
      "byteStride": 12
    },
    {
      "buffer": 0,
      "byteOffset": 55200,
      "byteLength": 1224,
      "target": 34962,
      "byteStride": 8
    },
    {
      "buffer": 0,
      "byteOffset": 56424,
      "byteLength": 54,
      "target": 34963
    },
    {
      "buffer": 0,
      "byteOffset": 56478,
      "byteLength": 285,
      "target": 34963
    }
  ],
  "buffers": [
    {
      "uri": "data:application/octet-stream;base64,",
      "byteLength": 56763
    }
  ]
}