{
  "asset": {
    "version": "2.0",
    "generator": "Sketchup glTF Exporter v1.2.6 by Centaur"
  },
  "scene": 0,
  "scenes": [
    {
      "nodes": [
        0
      ]
    }
  ],
  "samplers": [
    {
    }
  ],
  "nodes": [
    {
      "name": "root",
      "children": [
        1
      ]
    },
    {
      "name": "skp8C51",
      "children": [
        2,
        3,
        4,
        5,
        6
      ]
    },
    {
      "name": "Mesh01#41",
      "mesh": 0
    },
    {
      "name": "Mesh02#43",
      "mesh": 1
    },
    {
      "name": "Mesh03#37",
      "mesh": 2
    },
    {
      "name": "Mesh04#31",
      "mesh": 3
    },
    {
      "name": "Mesh05#30",
      "mesh": 4
    }
  ],
  "materials": [
    {
      "pbrMetallicRoughness": {
        "baseColorTexture": {
          "index": 0
        },
        "metallicFactor": 0.1,
        "roughnessFactor": 0.9
      },
      "name": "_auto_131"
    },
    {
      "pbrMetallicRoughness": {
        "baseColorFactor": [
          1.0,
          1.0,
          1.0,
          1.0
        ],
        "metallicFactor": 0.1,
        "roughnessFactor": 0.9
      },
      "name": "_auto_"
    },
    {
      "pbrMetallicRoughness": {
        "baseColorTexture": {
          "index": 1
        },
        "metallicFactor": 0.1,
        "roughnessFactor": 0.9
      },
      "name": "_auto_114"
    },
    {
      "pbrMetallicRoughness": {
        "baseColorTexture": {
          "index": 2
        },
        "metallicFactor": 0.1,
        "roughnessFactor": 0.9
      },
      "name": "_auto_137"
    },
    {
      "pbrMetallicRoughness": {
        "baseColorTexture": {
          "index": 3
        },
        "metallicFactor": 0.1,
        "roughnessFactor": 0.9
      },
      "name": "_auto_116"
    }
  ],
  "images": [
    {
      "bufferView": 0,
      "mimeType": "image/jpeg"
    },
    {
      "bufferView": 1,
      "mimeType": "image/jpeg"
    },
    {
      "bufferView": 2,
      "mimeType": "image/jpeg"
    },
    {
      "bufferView": 3,
      "mimeType": "image/jpeg"
    }
  ],
  "textures": [
    {
      "source": 0,
      "sampler": 0
    },
    {
      "source": 1,
      "sampler": 0
    },
    {
      "source": 2,
      "sampler": 0
    },
    {
      "source": 3,
      "sampler": 0
    }
  ],
  "meshes": [
    {
      "primitives": [
        {
          "attributes": {
            "POSITION": 2,
            "NORMAL": 3,
            "TEXCOORD_0": 4
          },
          "indices": 5,
          "mode": 4,
          "material": 0
        },
        {
          "attributes": {
            "POSITION": 0,
            "NORMAL": 1
          },
          "indices": 6,
          "mode": 4,
          "material": 1
        },
        {
          "attributes": {
            "POSITION": 2,
            "NORMAL": 3,
            "TEXCOORD_0": 4
          },
          "indices": 7,
          "mode": 4,
          "material": 2
        },
        {
          "attributes": {
            "POSITION": 2,
            "NORMAL": 3,
            "TEXCOORD_0": 4
          },
          "indices": 8,
          "mode": 4,
          "material": 3
        },
        {
          "attributes": {
            "POSITION": 2,
            "NORMAL": 3,
            "TEXCOORD_0": 4
          },
          "indices": 9,
          "mode": 4,
          "material": 4
        }
      ]
    },
    {
      "primitives": [
        {
          "attributes": {
            "POSITION": 2,
            "NORMAL": 3,
            "TEXCOORD_0": 4
          },
          "indices": 10,
          "mode": 4,
          "material": 0
        }
      ]
    },
    {
      "primitives": [
        {
          "attributes": {
            "POSITION": 2,
            "NORMAL": 3,
            "TEXCOORD_0": 4
          },
          "indices": 11,
          "mode": 4,
          "material": 0
        }
      ]
    },
    {
      "primitives": [
        {
          "attributes": {
            "POSITION": 2,
            "NORMAL": 3,
            "TEXCOORD_0": 4
          },
          "indices": 12,
          "mode": 4,
          "material": 0
        }
      ]
    },
    {
      "primitives": [
        {
          "attributes": {
            "POSITION": 2,
            "NORMAL": 3,
            "TEXCOORD_0": 4
          },
          "indices": 13,
          "mode": 4,
          "material": 0
        }
      ]
    }
  ],
  "accessors": [
    {
      "bufferView": 4,
      "componentType": 5126,
      "count": 8,
      "type": "VEC3",
      "min": [
        0.022103564400997783,
        6.113904784782218e-19,
        -0.008264578919936316
      ],
      "max": [
        0.02560356878789964,
        0.009999999773502348,
        -0.006917592340041301
      ]
    },
    {
      "bufferView": 5,
      "componentType": 5126,
      "count": 8,
      "type": "VEC3",
      "min": [
        -2.4492935982947064e-16,
        7.49879891330929e-33,
        2.4492935982947064e-16
      ],
      "max": [
        1.0,
        6.123233995736766e-17,
        1.0
      ]
    },
    {
      "bufferView": 6,
      "componentType": 5126,
      "count": 774,
      "type": "VEC3",
      "min": [
        -0.0498964376017183,
        -3.72987183244166e-16,
        -0.036808597283888966
      ],
      "max": [
        0.054412263341274886,
        0.030000000834465027,
        0.04878341664738539
      ]
    },
    {
      "bufferView": 7,
      "componentType": 5126,
      "count": 774,
      "type": "VEC3",
      "min": [
        -1.0,
        -1.0,
        -1.0
      ],
      "max": [
        1.0,
        1.0,
        1.0
      ]
    },
    {
      "bufferView": 8,
      "componentType": 5126,
      "count": 774,
      "type": "VEC2",
      "min": [
        -1.505997861839667,
        -28.546842018468613
      ],
      "max": [
        3.742030184202428,
        2.4126089811325
      ]
    },
    {
      "bufferView": 10,
      "componentType": 5123,
      "count": 279,
      "type": "SCALAR"
    },
    {
      "bufferView": 9,
      "componentType": 5121,
      "count": 12,
      "type": "SCALAR"
    },
    {
      "bufferView": 10,
      "componentType": 5123,
      "count": 255,
      "type": "SCALAR",
      "byteOffset": 558
    },
    {
      "bufferView": 10,
      "componentType": 5123,
      "count": 402,
      "type": "SCALAR",
      "byteOffset": 1068
    },
    {
      "bufferView": 10,
      "componentType": 5123,
      "count": 18,
      "type": "SCALAR",
      "byteOffset": 1872
    },
    {
      "bufferView": 10,
      "componentType": 5123,
      "count": 324,
      "type": "SCALAR",
      "byteOffset": 1908
    },
    {
      "bufferView": 10,
      "componentType": 5123,
      "count": 24,
      "type": "SCALAR",
      "byteOffset": 2556
    },
    {
      "bufferView": 10,
      "componentType": 5123,
      "count": 24,
      "type": "SCALAR",
      "byteOffset": 2604
    },
    {
      "bufferView": 10,
      "componentType": 5123,
      "count": 24,
      "type": "SCALAR",
      "byteOffset": 2652
    }
  ],
  "bufferViews": [
    {
      "buffer": 0,
      "byteLength": 177646
    },
    {
      "buffer": 0,
      "byteOffset": 177646,
      "byteLength": 1833815
    },
    {
      "buffer": 0,
      "byteOffset": 2011461,
      "byteLength": 185255
    },
    {
      "buffer": 0,
      "byteOffset": 2196716,
      "byteLength": 198371
    },
    {
      "buffer": 0,
      "byteOffset": 2395092,
      "byteLength": 96,
      "target": 34962,
      "byteStride": 12
    },
    {
      "buffer": 0,
      "byteOffset": 2395188,
      "byteLength": 96,
      "target": 34962,
      "byteStride": 12
    },
    {
      "buffer": 0,
      "byteOffset": 2395284,
      "byteLength": 9288,
      "target": 34962,
      "byteStride": 12
    },
    {
      "buffer": 0,
      "byteOffset": 2404572,
      "byteLength": 9288,
      "target": 34962,
      "byteStride": 12
    },
    {
      "buffer": 0,
      "byteOffset": 2413864,
      "byteLength": 6192,
      "target": 34962,
      "byteStride": 8
    },
    {
      "buffer": 0,
      "byteOffset": 2420056,
      "byteLength": 12,
      "target": 34963
    },
    {
      "buffer": 0,
      "byteOffset": 2420068,
      "byteLength": 2700,
      "target": 34963
    }
  ],
  "buffers": [
    {
      "uri": "data:application/octet-stream;base64,",
      "byteLength": 2422768
    }
  ]
}