{
  "asset": {
    "version": "2.0",
    "generator": "Sketchup glTF Exporter v1.2.6 by Centaur"
  },
  "scene": 0,
  "scenes": [
    {
      "nodes": [
        0
      ]
    }
  ],
  "samplers": [
    {
    }
  ],
  "nodes": [
    {
      "name": "root",
      "mesh": 0
    }
  ],
  "materials": [
    {
      "pbrMetallicRoughness": {
        "baseColorTexture": {
          "index": 0
        },
        "metallicFactor": 0.1,
        "roughnessFactor": 0.9
      },
      "name": "IMG_2919#1"
    },
    {
      "pbrMetallicRoughness": {
        "baseColorFactor": [
          0.2176,
          0.2176,
          0.2176,
          1.0
        ],
        "metallicFactor": 0.1,
        "roughnessFactor": 0.9
      },
      "name": "default material",
      "doubleSided": true
    },
    {
      "pbrMetallicRoughness": {
        "baseColorTexture": {
          "index": 1
        },
        "metallicFactor": 0.1,
        "roughnessFactor": 0.9
      },
      "name": "白墙体2"
    },
    {
      "pbrMetallicRoughness": {
        "baseColorTexture": {
          "index": 2
        },
        "metallicFactor": 0.1,
        "roughnessFactor": 0.9
      },
      "name": "Concrete_Block_8x8_Gray"
    },
    {
      "pbrMetallicRoughness": {
        "baseColorTexture": {
          "index": 3
        },
        "metallicFactor": 0.1,
        "roughnessFactor": 0.9
      },
      "name": "白墙体1"
    }
  ],
  "images": [
    {
      "bufferView": 0,
      "mimeType": "image/jpeg"
    },
    {
      "bufferView": 1,
      "mimeType": "image/jpeg"
    },
    {
      "bufferView": 2,
      "mimeType": "image/jpeg"
    },
    {
      "bufferView": 3,
      "mimeType": "image/jpeg"
    }
  ],
  "textures": [
    {
      "source": 0,
      "sampler": 0
    },
    {
      "source": 1,
      "sampler": 0
    },
    {
      "source": 2,
      "sampler": 0
    },
    {
      "source": 3,
      "sampler": 0
    }
  ],
  "meshes": [
    {
      "primitives": [
        {
          "attributes": {
            "POSITION": 2,
            "NORMAL": 3,
            "TEXCOORD_0": 4
          },
          "indices": 5,
          "mode": 4,
          "material": 0
        },
        {
          "attributes": {
            "POSITION": 0,
            "NORMAL": 1
          },
          "indices": 6,
          "mode": 4,
          "material": 1
        },
        {
          "attributes": {
            "POSITION": 2,
            "NORMAL": 3,
            "TEXCOORD_0": 4
          },
          "indices": 7,
          "mode": 4,
          "material": 2
        },
        {
          "attributes": {
            "POSITION": 2,
            "NORMAL": 3,
            "TEXCOORD_0": 4
          },
          "indices": 8,
          "mode": 4,
          "material": 3
        },
        {
          "attributes": {
            "POSITION": 2,
            "NORMAL": 3,
            "TEXCOORD_0": 4
          },
          "indices": 9,
          "mode": 4,
          "material": 4
        }
      ]
    }
  ],
  "accessors": [
    {
      "bufferView": 4,
      "componentType": 5126,
      "count": 602,
      "type": "VEC3",
      "min": [
        1.7180486047948026e-14,
        -5.4891750053612785e-15,
        -89.70649499216135
      ],
      "max": [
        80.32922204955857,
        9.999999999999998,
        9.080568817515957e-15
      ]
    },
    {
      "bufferView": 5,
      "componentType": 5126,
      "count": 602,
      "type": "VEC3",
      "min": [
        -1.0,
        -1.0,
        -1.0
      ],
      "max": [
        0.999580327476475,
        1.0,
        1.0
      ]
    },
    {
      "bufferView": 6,
      "componentType": 5126,
      "count": 1415,
      "type": "VEC3",
      "min": [
        1.7180486047948026e-14,
        -5.4891750053612785e-15,
        -89.70649499216135
      ],
      "max": [
        80.32922204955857,
        18.999999999999996,
        9.080568817515957e-15
      ]
    },
    {
      "bufferView": 7,
      "componentType": 5126,
      "count": 1415,
      "type": "VEC3",
      "min": [
        -1.0,
        -7.461955150374719e-17,
        -1.0
      ],
      "max": [
        1.0,
        1.0,
        1.0
      ]
    },
    {
      "bufferView": 8,
      "componentType": 5126,
      "count": 1415,
      "type": "VEC2",
      "min": [
        -411.4585565226289,
        -312.3543424080541
      ],
      "max": [
        413.0687852186837,
        60.912969801291965
      ]
    },
    {
      "bufferView": 10,
      "componentType": 5123,
      "count": 1404,
      "type": "SCALAR"
    },
    {
      "bufferView": 9,
      "componentType": 5123,
      "count": 1542,
      "type": "SCALAR"
    },
    {
      "bufferView": 10,
      "componentType": 5123,
      "count": 561,
      "type": "SCALAR",
      "byteOffset": 2808
    },
    {
      "bufferView": 10,
      "componentType": 5123,
      "count": 720,
      "type": "SCALAR",
      "byteOffset": 3930
    },
    {
      "bufferView": 10,
      "componentType": 5123,
      "count": 27,
      "type": "SCALAR",
      "byteOffset": 5370
    }
  ],
  "bufferViews": [
    {
      "buffer": 0,
      "byteLength": 125954
    },
    {
      "buffer": 0,
      "byteOffset": 125954,
      "byteLength": 2596
    },
    {
      "buffer": 0,
      "byteOffset": 128550,
      "byteLength": 10104
    },
    {
      "buffer": 0,
      "byteOffset": 138654,
      "byteLength": 2596
    },
    {
      "buffer": 0,
      "byteOffset": 141252,
      "byteLength": 7224,
      "target": 34962,
      "byteStride": 12
    },
    {
      "buffer": 0,
      "byteOffset": 148476,
      "byteLength": 7224,
      "target": 34962,
      "byteStride": 12
    },
    {
      "buffer": 0,
      "byteOffset": 155700,
      "byteLength": 16980,
      "target": 34962,
      "byteStride": 12
    },
    {
      "buffer": 0,
      "byteOffset": 172680,
      "byteLength": 16980,
      "target": 34962,
      "byteStride": 12
    },
    {
      "buffer": 0,
      "byteOffset": 189664,
      "byteLength": 11320,
      "target": 34962,
      "byteStride": 8
    },
    {
      "buffer": 0,
      "byteOffset": 200984,
      "byteLength": 3084,
      "target": 34963
    },
    {
      "buffer": 0,
      "byteOffset": 204068,
      "byteLength": 5424,
      "target": 34963
    }
  ],
  "buffers": [
    {
      "uri": "data:application/octet-stream;base64,",
      "byteLength": 209492
    }
  ]
}