{
  "asset": {
    "version": "2.0",
    "generator": "Sketchup glTF Exporter v1.2.6 by Centaur"
  },
  "scene": 0,
  "scenes": [
    {
      "nodes": [
        0
      ]
    }
  ],
  "samplers": [
    {
    }
  ],
  "nodes": [
    {
      "name": "root",
      "mesh": 0
    }
  ],
  "materials": [
    {
      "pbrMetallicRoughness": {
        "baseColorTexture": {
          "index": 0
        },
        "metallicFactor": 0.1,
        "roughnessFactor": 0.9
      },
      "name": "2墙体"
    },
    {
      "pbrMetallicRoughness": {
        "baseColorFactor": [
          0.2176,
          0.2176,
          0.2176,
          1.0
        ],
        "metallicFactor": 0.1,
        "roughnessFactor": 0.9
      },
      "name": "default material",
      "doubleSided": true
    },
    {
      "pbrMetallicRoughness": {
        "baseColorTexture": {
          "index": 1
        },
        "roughnessFactor": 0.1
      },
      "name": "[Roofing Metal Standing Seam Red]1"
    },
    {
      "pbrMetallicRoughness": {
        "baseColorTexture": {
          "index": 2
        },
        "metallicFactor": 0.1,
        "roughnessFactor": 0.9
      },
      "name": "红色直立缝金属屋顶"
    }
  ],
  "images": [
    {
      "bufferView": 0,
      "mimeType": "image/jpeg"
    },
    {
      "bufferView": 1,
      "mimeType": "image/jpeg"
    },
    {
      "bufferView": 2,
      "mimeType": "image/jpeg"
    }
  ],
  "textures": [
    {
      "source": 0,
      "sampler": 0
    },
    {
      "source": 1,
      "sampler": 0
    },
    {
      "source": 2,
      "sampler": 0
    }
  ],
  "meshes": [
    {
      "primitives": [
        {
          "attributes": {
            "POSITION": 2,
            "NORMAL": 3,
            "TEXCOORD_0": 4
          },
          "indices": 5,
          "mode": 4,
          "material": 0
        },
        {
          "attributes": {
            "POSITION": 0,
            "NORMAL": 1
          },
          "indices": 6,
          "mode": 4,
          "material": 1
        },
        {
          "attributes": {
            "POSITION": 2,
            "NORMAL": 3,
            "TEXCOORD_0": 4
          },
          "indices": 7,
          "mode": 4,
          "material": 2
        },
        {
          "attributes": {
            "POSITION": 2,
            "NORMAL": 3,
            "TEXCOORD_0": 4
          },
          "indices": 8,
          "mode": 4,
          "material": 3
        }
      ]
    }
  ],
  "accessors": [
    {
      "bufferView": 3,
      "componentType": 5126,
      "count": 414,
      "type": "VEC3",
      "min": [
        1.2246467991473576e-15,
        -4.400118251229839e-15,
        -73.7518240407875
      ],
      "max": [
        61.32999999999997,
        20.0,
        3.426705175356338e-15
      ]
    },
    {
      "bufferView": 4,
      "componentType": 5126,
      "count": 414,
      "type": "VEC3",
      "min": [
        -1.0,
        -1.0,
        -1.0
      ],
      "max": [
        1.0,
        1.0,
        1.0
      ]
    },
    {
      "bufferView": 5,
      "componentType": 5126,
      "count": 262,
      "type": "VEC3",
      "min": [
        1.2246467991473576e-15,
        -4.400118251229839e-15,
        -73.7518240407875
      ],
      "max": [
        61.32999999999997,
        20.0,
        3.426705175356338e-15
      ]
    },
    {
      "bufferView": 6,
      "componentType": 5126,
      "count": 262,
      "type": "VEC3",
      "min": [
        -1.0,
        -6.123233995736766e-17,
        -1.0
      ],
      "max": [
        1.0,
        1.0,
        1.0
      ]
    },
    {
      "bufferView": 7,
      "componentType": 5126,
      "count": 262,
      "type": "VEC2",
      "min": [
        -282.91096198109426,
        -107.56638000398507
      ],
      "max": [
        282.91096198109426,
        88.38840551581667
      ]
    },
    {
      "bufferView": 9,
      "componentType": 5123,
      "count": 222,
      "type": "SCALAR"
    },
    {
      "bufferView": 8,
      "componentType": 5123,
      "count": 1227,
      "type": "SCALAR"
    },
    {
      "bufferView": 9,
      "componentType": 5123,
      "count": 240,
      "type": "SCALAR",
      "byteOffset": 444
    },
    {
      "bufferView": 9,
      "componentType": 5123,
      "count": 90,
      "type": "SCALAR",
      "byteOffset": 924
    }
  ],
  "bufferViews": [
    {
      "buffer": 0,
      "byteLength": 38313
    },
    {
      "buffer": 0,
      "byteOffset": 38313,
      "byteLength": 1443
    },
    {
      "buffer": 0,
      "byteOffset": 39756,
      "byteLength": 1611
    },
    {
      "buffer": 0,
      "byteOffset": 41376,
      "byteLength": 4968,
      "target": 34962,
      "byteStride": 12
    },
    {
      "buffer": 0,
      "byteOffset": 46344,
      "byteLength": 4968,
      "target": 34962,
      "byteStride": 12
    },
    {
      "buffer": 0,
      "byteOffset": 51312,
      "byteLength": 3144,
      "target": 34962,
      "byteStride": 12
    },
    {
      "buffer": 0,
      "byteOffset": 54456,
      "byteLength": 3144,
      "target": 34962,
      "byteStride": 12
    },
    {
      "buffer": 0,
      "byteOffset": 57600,
      "byteLength": 2096,
      "target": 34962,
      "byteStride": 8
    },
    {
      "buffer": 0,
      "byteOffset": 59696,
      "byteLength": 2454,
      "target": 34963
    },
    {
      "buffer": 0,
      "byteOffset": 62150,
      "byteLength": 1104,
      "target": 34963
    }
  ],
  "buffers": [
    {
      "uri": "data:application/octet-stream;base64,",
      "byteLength": 63254
    }
  ]
}