{
  "asset": {
    "version": "2.0",
    "generator": "Sketchup glTF Exporter v1.2.6 by Centaur"
  },
  "scene": 0,
  "scenes": [
    {
      "nodes": [
        0
      ]
    }
  ],
  "samplers": [
    {
    }
  ],
  "nodes": [
    {
      "name": "root",
      "children": [
        1
      ]
    },
    {
      "name": "skpD529",
      "children": [
        2,
        3,
        4
      ]
    },
    {
      "name": "Mesh01#1",
      "mesh": 0
    },
    {
      "name": "Mesh02#1",
      "mesh": 1
    },
    {
      "name": "Mesh03#1",
      "mesh": 2
    }
  ],
  "materials": [
    {
      "pbrMetallicRoughness": {
        "baseColorFactor": [
          1.0,
          1.0,
          1.0,
          1.0
        ],
        "metallicFactor": 0.1,
        "roughnessFactor": 0.9
      },
      "name": "_auto_2"
    },
    {
      "pbrMetallicRoughness": {
        "baseColorTexture": {
          "index": 0
        },
        "metallicFactor": 0.1,
        "roughnessFactor": 0.9
      },
      "name": "_auto_4"
    },
    {
      "pbrMetallicRoughness": {
        "baseColorTexture": {
          "index": 1
        },
        "metallicFactor": 0.1,
        "roughnessFactor": 0.9
      },
      "name": "_auto_3"
    },
    {
      "pbrMetallicRoughness": {
        "baseColorFactor": [
          0.5418,
          0.5418,
          0.5418,
          1.0
        ],
        "metallicFactor": 0.1,
        "roughnessFactor": 0.9
      },
      "name": "_auto_"
    },
    {
      "pbrMetallicRoughness": {
        "baseColorFactor": [
          1.0,
          1.0,
          1.0,
          1.0
        ],
        "metallicFactor": 0.1,
        "roughnessFactor": 0.9
      },
      "name": "FrontCol"
    }
  ],
  "images": [
    {
      "bufferView": 0,
      "mimeType": "image/jpeg"
    },
    {
      "bufferView": 1,
      "mimeType": "image/jpeg"
    }
  ],
  "textures": [
    {
      "source": 0,
      "sampler": 0
    },
    {
      "source": 1,
      "sampler": 0
    }
  ],
  "meshes": [
    {
      "primitives": [
        {
          "attributes": {
            "POSITION": 0,
            "NORMAL": 1
          },
          "indices": 5,
          "mode": 4,
          "material": 0
        },
        {
          "attributes": {
            "POSITION": 2,
            "NORMAL": 3,
            "TEXCOORD_0": 4
          },
          "indices": 6,
          "mode": 4,
          "material": 1
        },
        {
          "attributes": {
            "POSITION": 2,
            "NORMAL": 3,
            "TEXCOORD_0": 4
          },
          "indices": 7,
          "mode": 4,
          "material": 2
        },
        {
          "attributes": {
            "POSITION": 0,
            "NORMAL": 1
          },
          "indices": 8,
          "mode": 4,
          "material": 3
        }
      ]
    },
    {
      "primitives": [
        {
          "attributes": {
            "POSITION": 0,
            "NORMAL": 1
          },
          "indices": 9,
          "mode": 4,
          "material": 0
        },
        {
          "attributes": {
            "POSITION": 2,
            "NORMAL": 3,
            "TEXCOORD_0": 4
          },
          "indices": 10,
          "mode": 4,
          "material": 2
        },
        {
          "attributes": {
            "POSITION": 2,
            "NORMAL": 3,
            "TEXCOORD_0": 4
          },
          "indices": 11,
          "mode": 4,
          "material": 1
        },
        {
          "attributes": {
            "POSITION": 0,
            "NORMAL": 1
          },
          "indices": 12,
          "mode": 4,
          "material": 3
        }
      ]
    },
    {
      "primitives": [
        {
          "attributes": {
            "POSITION": 0,
            "NORMAL": 1
          },
          "indices": 13,
          "mode": 4,
          "material": 4
        },
        {
          "attributes": {
            "POSITION": 2,
            "NORMAL": 3,
            "TEXCOORD_0": 4
          },
          "indices": 14,
          "mode": 4,
          "material": 2
        },
        {
          "attributes": {
            "POSITION": 0,
            "NORMAL": 1
          },
          "indices": 15,
          "mode": 4,
          "material": 3
        }
      ]
    }
  ],
  "accessors": [
    {
      "bufferView": 2,
      "componentType": 5126,
      "count": 155,
      "type": "VEC3",
      "min": [
        -63.83079266640959,
        0.019500001299379333,
        -31.365888296190207
      ],
      "max": [
        51.514405551363836,
        18.51950059814453,
        36.17780906709103
      ]
    },
    {
      "bufferView": 3,
      "componentType": 5126,
      "count": 155,
      "type": "VEC3",
      "min": [
        -1.0,
        -6.123233995736766e-17,
        -1.0
      ],
      "max": [
        1.0,
        1.0,
        1.0
      ]
    },
    {
      "bufferView": 4,
      "componentType": 5126,
      "count": 428,
      "type": "VEC3",
      "min": [
        -63.83079266640959,
        0.019500001299379333,
        -31.365888296190207
      ],
      "max": [
        51.514405551363836,
        18.51950059814453,
        36.17780906709103
      ]
    },
    {
      "bufferView": 5,
      "componentType": 5126,
      "count": 428,
      "type": "VEC3",
      "min": [
        -1.0,
        -6.123233995736766e-17,
        -1.0
      ],
      "max": [
        1.0,
        2.8482220011849955e-08,
        1.0
      ]
    },
    {
      "bufferView": 6,
      "componentType": 5126,
      "count": 428,
      "type": "VEC2",
      "min": [
        -0.000399999989894706,
        -0.000800013542175293
      ],
      "max": [
        0.9981999993324373,
        1.0
      ]
    },
    {
      "bufferView": 7,
      "componentType": 5121,
      "count": 18,
      "type": "SCALAR"
    },
    {
      "bufferView": 8,
      "componentType": 5123,
      "count": 114,
      "type": "SCALAR"
    },
    {
      "bufferView": 8,
      "componentType": 5123,
      "count": 48,
      "type": "SCALAR",
      "byteOffset": 228
    },
    {
      "bufferView": 7,
      "componentType": 5121,
      "count": 84,
      "type": "SCALAR",
      "byteOffset": 18
    },
    {
      "bufferView": 7,
      "componentType": 5121,
      "count": 69,
      "type": "SCALAR",
      "byteOffset": 102
    },
    {
      "bufferView": 8,
      "componentType": 5123,
      "count": 231,
      "type": "SCALAR",
      "byteOffset": 324
    },
    {
      "bufferView": 8,
      "componentType": 5123,
      "count": 111,
      "type": "SCALAR",
      "byteOffset": 786
    },
    {
      "bufferView": 7,
      "componentType": 5121,
      "count": 102,
      "type": "SCALAR",
      "byteOffset": 171
    },
    {
      "bufferView": 7,
      "componentType": 5121,
      "count": 3,
      "type": "SCALAR",
      "byteOffset": 273
    },
    {
      "bufferView": 8,
      "componentType": 5123,
      "count": 180,
      "type": "SCALAR",
      "byteOffset": 1008
    },
    {
      "bufferView": 7,
      "componentType": 5121,
      "count": 81,
      "type": "SCALAR",
      "byteOffset": 276
    }
  ],
  "bufferViews": [
    {
      "buffer": 0,
      "byteLength": 146580
    },
    {
      "buffer": 0,
      "byteOffset": 146580,
      "byteLength": 224972
    },
    {
      "buffer": 0,
      "byteOffset": 371556,
      "byteLength": 1860,
      "target": 34962,
      "byteStride": 12
    },
    {
      "buffer": 0,
      "byteOffset": 373416,
      "byteLength": 1860,
      "target": 34962,
      "byteStride": 12
    },
    {
      "buffer": 0,
      "byteOffset": 375276,
      "byteLength": 5136,
      "target": 34962,
      "byteStride": 12
    },
    {
      "buffer": 0,
      "byteOffset": 380412,
      "byteLength": 5136,
      "target": 34962,
      "byteStride": 12
    },
    {
      "buffer": 0,
      "byteOffset": 385552,
      "byteLength": 3424,
      "target": 34962,
      "byteStride": 8
    },
    {
      "buffer": 0,
      "byteOffset": 388976,
      "byteLength": 357,
      "target": 34963
    },
    {
      "buffer": 0,
      "byteOffset": 389334,
      "byteLength": 1368,
      "target": 34963
    }
  ],
  "buffers": [
    {
      "uri": "data:application/octet-stream;base64,",
      "byteLength": 390702
    }
  ]
}