{
  "asset": {
    "version": "2.0",
    "generator": "Sketchup glTF Exporter v1.2.6 by Centaur"
  },
  "scene": 0,
  "scenes": [
    {
      "nodes": [
        0
      ]
    }
  ],
  "samplers": [
    {
    }
  ],
  "nodes": [
    {
      "name": "root",
      "mesh": 0
    }
  ],
  "materials": [
    {
      "pbrMetallicRoughness": {
        "baseColorTexture": {
          "index": 0
        },
        "metallicFactor": 0.1,
        "roughnessFactor": 0.9
      },
      "name": "2墙体1"
    },
    {
      "pbrMetallicRoughness": {
        "baseColorFactor": [
          0.2176,
          0.2176,
          0.2176,
          1.0
        ],
        "metallicFactor": 0.1,
        "roughnessFactor": 0.9
      },
      "name": "default material",
      "doubleSided": true
    },
    {
      "pbrMetallicRoughness": {
        "baseColorTexture": {
          "index": 1
        },
        "metallicFactor": 0.1,
        "roughnessFactor": 0.9
      },
      "name": "Sketchy_Stone_Ashlar1"
    },
    {
      "pbrMetallicRoughness": {
        "baseColorTexture": {
          "index": 2
        },
        "metallicFactor": 0.1,
        "roughnessFactor": 0.9
      },
      "name": "白墙体2"
    },
    {
      "pbrMetallicRoughness": {
        "baseColorFactor": [
          0.0342,
          0.0342,
          0.0342,
          1.0
        ],
        "metallicFactor": 0.1,
        "roughnessFactor": 0.9
      },
      "name": "default material"
    }
  ],
  "images": [
    {
      "bufferView": 0,
      "mimeType": "image/jpeg"
    },
    {
      "bufferView": 1,
      "mimeType": "image/jpeg"
    },
    {
      "bufferView": 2,
      "mimeType": "image/jpeg"
    }
  ],
  "textures": [
    {
      "source": 0,
      "sampler": 0
    },
    {
      "source": 1,
      "sampler": 0
    },
    {
      "source": 2,
      "sampler": 0
    }
  ],
  "meshes": [
    {
      "primitives": [
        {
          "attributes": {
            "POSITION": 2,
            "NORMAL": 3,
            "TEXCOORD_0": 4
          },
          "indices": 5,
          "mode": 4,
          "material": 0
        },
        {
          "attributes": {
            "POSITION": 0,
            "NORMAL": 1
          },
          "indices": 6,
          "mode": 4,
          "material": 1
        },
        {
          "attributes": {
            "POSITION": 2,
            "NORMAL": 3,
            "TEXCOORD_0": 4
          },
          "indices": 7,
          "mode": 4,
          "material": 2
        },
        {
          "attributes": {
            "POSITION": 2,
            "NORMAL": 3,
            "TEXCOORD_0": 4
          },
          "indices": 8,
          "mode": 4,
          "material": 3
        },
        {
          "attributes": {
            "POSITION": 0,
            "NORMAL": 1
          },
          "indices": 9,
          "mode": 4,
          "material": 4
        }
      ]
    }
  ],
  "accessors": [
    {
      "bufferView": 3,
      "componentType": 5126,
      "count": 365,
      "type": "VEC3",
      "min": [
        1.2576660988507826e-15,
        -6.5474489447600235e-15,
        -106.92795586970237
      ],
      "max": [
        69.37000000000003,
        16.999999999999996,
        -5.134811521682894
      ]
    },
    {
      "bufferView": 4,
      "componentType": 5126,
      "count": 365,
      "type": "VEC3",
      "min": [
        -1.0,
        -1.0,
        -1.0
      ],
      "max": [
        1.0,
        1.0,
        1.0
      ]
    },
    {
      "bufferView": 5,
      "componentType": 5126,
      "count": 1392,
      "type": "VEC3",
      "min": [
        1.2576660988507826e-15,
        -6.5474489447600235e-15,
        -106.92795586970237
      ],
      "max": [
        69.37000000000003,
        20.999999999999993,
        1.2108559721281085e-14
      ]
    },
    {
      "bufferView": 6,
      "componentType": 5126,
      "count": 1392,
      "type": "VEC3",
      "min": [
        -1.0,
        -6.123233995736766e-17,
        -1.0
      ],
      "max": [
        1.0,
        1.0,
        1.0
      ]
    },
    {
      "bufferView": 7,
      "componentType": 5126,
      "count": 1392,
      "type": "VEC2",
      "min": [
        -99.13525127862596,
        -115.39071235467135
      ],
      "max": [
        711.0740408413591,
        421.97618196427544
      ]
    },
    {
      "bufferView": 9,
      "componentType": 5123,
      "count": 1392,
      "type": "SCALAR"
    },
    {
      "bufferView": 8,
      "componentType": 5123,
      "count": 537,
      "type": "SCALAR"
    },
    {
      "bufferView": 9,
      "componentType": 5123,
      "count": 258,
      "type": "SCALAR",
      "byteOffset": 2784
    },
    {
      "bufferView": 9,
      "componentType": 5123,
      "count": 813,
      "type": "SCALAR",
      "byteOffset": 3300
    },
    {
      "bufferView": 8,
      "componentType": 5123,
      "count": 240,
      "type": "SCALAR",
      "byteOffset": 1074
    }
  ],
  "bufferViews": [
    {
      "buffer": 0,
      "byteLength": 38339
    },
    {
      "buffer": 0,
      "byteOffset": 38339,
      "byteLength": 11264
    },
    {
      "buffer": 0,
      "byteOffset": 49603,
      "byteLength": 2596
    },
    {
      "buffer": 0,
      "byteOffset": 52200,
      "byteLength": 4380,
      "target": 34962,
      "byteStride": 12
    },
    {
      "buffer": 0,
      "byteOffset": 56580,
      "byteLength": 4380,
      "target": 34962,
      "byteStride": 12
    },
    {
      "buffer": 0,
      "byteOffset": 60960,
      "byteLength": 16704,
      "target": 34962,
      "byteStride": 12
    },
    {
      "buffer": 0,
      "byteOffset": 77664,
      "byteLength": 16704,
      "target": 34962,
      "byteStride": 12
    },
    {
      "buffer": 0,
      "byteOffset": 94368,
      "byteLength": 11136,
      "target": 34962,
      "byteStride": 8
    },
    {
      "buffer": 0,
      "byteOffset": 105504,
      "byteLength": 1554,
      "target": 34963
    },
    {
      "buffer": 0,
      "byteOffset": 107058,
      "byteLength": 4926,
      "target": 34963
    }
  ],
  "buffers": [
    {
      "uri": "data:application/octet-stream;base64,",
      "byteLength": 111984
    }
  ]
}