{
  "asset": {
    "version": "2.0",
    "generator": "Sketchup glTF Exporter v1.2.6 by Centaur"
  },
  "scene": 0,
  "scenes": [
    {
      "nodes": [
        0
      ]
    }
  ],
  "samplers": [
    {
    }
  ],
  "nodes": [
    {
      "name": "root",
      "children": [
        1
      ]
    },
    {
      "name": "skpF41E",
      "children": [
        2
      ]
    },
    {
      "name": "Model#1",
      "mesh": 0
    }
  ],
  "materials": [
    {
      "pbrMetallicRoughness": {
        "baseColorTexture": {
          "index": 0
        },
        "metallicFactor": 0.1,
        "roughnessFactor": 0.9
      },
      "name": "_auto_16"
    },
    {
      "pbrMetallicRoughness": {
        "baseColorTexture": {
          "index": 1
        },
        "metallicFactor": 0.1,
        "roughnessFactor": 0.9
      },
      "name": "_auto_4"
    },
    {
      "pbrMetallicRoughness": {
        "baseColorFactor": [
          1.0,
          1.0,
          1.0,
          1.0
        ],
        "metallicFactor": 0.1,
        "roughnessFactor": 0.9
      },
      "name": "_auto_"
    },
    {
      "pbrMetallicRoughness": {
        "baseColorTexture": {
          "index": 2
        },
        "metallicFactor": 0.1,
        "roughnessFactor": 0.9
      },
      "name": "_auto_3"
    }
  ],
  "images": [
    {
      "bufferView": 0,
      "mimeType": "image/jpeg"
    },
    {
      "bufferView": 1,
      "mimeType": "image/jpeg"
    },
    {
      "bufferView": 2,
      "mimeType": "image/jpeg"
    }
  ],
  "textures": [
    {
      "source": 0,
      "sampler": 0
    },
    {
      "source": 1,
      "sampler": 0
    },
    {
      "source": 2,
      "sampler": 0
    }
  ],
  "meshes": [
    {
      "primitives": [
        {
          "attributes": {
            "POSITION": 2,
            "NORMAL": 3,
            "TEXCOORD_0": 4
          },
          "indices": 5,
          "mode": 4,
          "material": 0
        },
        {
          "attributes": {
            "POSITION": 2,
            "NORMAL": 3,
            "TEXCOORD_0": 4
          },
          "indices": 6,
          "mode": 4,
          "material": 1
        },
        {
          "attributes": {
            "POSITION": 0,
            "NORMAL": 1
          },
          "indices": 7,
          "mode": 4,
          "material": 2
        },
        {
          "attributes": {
            "POSITION": 2,
            "NORMAL": 3,
            "TEXCOORD_0": 4
          },
          "indices": 8,
          "mode": 4,
          "material": 3
        }
      ]
    }
  ],
  "accessors": [
    {
      "bufferView": 3,
      "componentType": 5126,
      "count": 97,
      "type": "VEC3",
      "min": [
        -0.06269662031778304,
        0.009143770998716355,
        -0.06432745827727726
      ],
      "max": [
        0.05995578365078959,
        0.04200002236366272,
        0.0427129315466363
      ]
    },
    {
      "bufferView": 4,
      "componentType": 5126,
      "count": 97,
      "type": "VEC3",
      "min": [
        -0.9999574291468891,
        -1.0,
        -0.999957667959032
      ],
      "max": [
        0.46858707251198434,
        1.0,
        0.99995753148716
      ]
    },
    {
      "bufferView": 5,
      "componentType": 5126,
      "count": 903,
      "type": "VEC3",
      "min": [
        -0.06818832726129499,
        -4.147110650409972e-18,
        -0.08902447308593209
      ],
      "max": [
        0.06194598436108622,
        0.04200002236366272,
        0.04571274844116757
      ]
    },
    {
      "bufferView": 6,
      "componentType": 5126,
      "count": 903,
      "type": "VEC3",
      "min": [
        -0.9999573881914453,
        -1.0,
        -1.0
      ],
      "max": [
        0.9999600989017923,
        1.0,
        1.0
      ]
    },
    {
      "bufferView": 7,
      "componentType": 5126,
      "count": 903,
      "type": "VEC2",
      "min": [
        -7.39314644431885,
        -28.43475971890584
      ],
      "max": [
        16.76588058471672,
        8.23626459430912
      ]
    },
    {
      "bufferView": 9,
      "componentType": 5123,
      "count": 747,
      "type": "SCALAR"
    },
    {
      "bufferView": 9,
      "componentType": 5123,
      "count": 525,
      "type": "SCALAR",
      "byteOffset": 1494
    },
    {
      "bufferView": 8,
      "componentType": 5121,
      "count": 147,
      "type": "SCALAR"
    },
    {
      "bufferView": 9,
      "componentType": 5123,
      "count": 198,
      "type": "SCALAR",
      "byteOffset": 2544
    }
  ],
  "bufferViews": [
    {
      "buffer": 0,
      "byteLength": 241696
    },
    {
      "buffer": 0,
      "byteOffset": 241696,
      "byteLength": 203053
    },
    {
      "buffer": 0,
      "byteOffset": 444749,
      "byteLength": 1833815
    },
    {
      "buffer": 0,
      "byteOffset": 2278572,
      "byteLength": 1164,
      "target": 34962,
      "byteStride": 12
    },
    {
      "buffer": 0,
      "byteOffset": 2279736,
      "byteLength": 1164,
      "target": 34962,
      "byteStride": 12
    },
    {
      "buffer": 0,
      "byteOffset": 2280900,
      "byteLength": 10836,
      "target": 34962,
      "byteStride": 12
    },
    {
      "buffer": 0,
      "byteOffset": 2291736,
      "byteLength": 10836,
      "target": 34962,
      "byteStride": 12
    },
    {
      "buffer": 0,
      "byteOffset": 2302576,
      "byteLength": 7224,
      "target": 34962,
      "byteStride": 8
    },
    {
      "buffer": 0,
      "byteOffset": 2309800,
      "byteLength": 147,
      "target": 34963
    },
    {
      "buffer": 0,
      "byteOffset": 2309948,
      "byteLength": 2940,
      "target": 34963
    }
  ],
  "buffers": [
    {
      "uri": "data:application/octet-stream;base64,",
      "byteLength": 2312888
    }
  ]
}