{
  "asset": {
    "version": "2.0",
    "generator": "Sketchup glTF Exporter v1.2.6 by Centaur"
  },
  "scene": 0,
  "scenes": [
    {
      "nodes": [
        0
      ]
    }
  ],
  "samplers": [
    {
    }
  ],
  "nodes": [
    {
      "name": "root",
      "mesh": 0
    }
  ],
  "materials": [
    {
      "pbrMetallicRoughness": {
        "baseColorFactor": [
          0.6121,
          0.6121,
          0.6121,
          1.0
        ],
        "metallicFactor": 0.1,
        "roughnessFactor": 0.9
      },
      "name": "louti_2"
    },
    {
      "pbrMetallicRoughness": {
        "baseColorTexture": {
          "index": 0
        },
        "metallicFactor": 0.1,
        "roughnessFactor": 0.9
      },
      "name": "Sketchy_Stone_Ashlar"
    },
    {
      "pbrMetallicRoughness": {
        "baseColorTexture": {
          "index": 1
        },
        "metallicFactor": 0.1,
        "roughnessFactor": 0.9
      },
      "name": "2墙体2"
    },
    {
      "pbrMetallicRoughness": {
        "baseColorFactor": [
          0.2176,
          0.2176,
          0.2176,
          1.0
        ],
        "metallicFactor": 0.1,
        "roughnessFactor": 0.9
      },
      "name": "default material",
      "doubleSided": true
    }
  ],
  "images": [
    {
      "bufferView": 0,
      "mimeType": "image/jpeg"
    },
    {
      "bufferView": 1,
      "mimeType": "image/jpeg"
    }
  ],
  "textures": [
    {
      "source": 0,
      "sampler": 0
    },
    {
      "source": 1,
      "sampler": 0
    }
  ],
  "meshes": [
    {
      "primitives": [
        {
          "attributes": {
            "POSITION": 0,
            "NORMAL": 1
          },
          "indices": 5,
          "mode": 4,
          "material": 0
        },
        {
          "attributes": {
            "POSITION": 2,
            "NORMAL": 3,
            "TEXCOORD_0": 4
          },
          "indices": 6,
          "mode": 4,
          "material": 1
        },
        {
          "attributes": {
            "POSITION": 2,
            "NORMAL": 3,
            "TEXCOORD_0": 4
          },
          "indices": 7,
          "mode": 4,
          "material": 2
        },
        {
          "attributes": {
            "POSITION": 0,
            "NORMAL": 1
          },
          "indices": 8,
          "mode": 4,
          "material": 3
        }
      ]
    }
  ],
  "accessors": [
    {
      "bufferView": 2,
      "componentType": 5126,
      "count": 186,
      "type": "VEC3",
      "min": [
        2.0715302568944745e-14,
        -5.178825642236186e-15,
        -84.57664113182489
      ],
      "max": [
        106.75502704326568,
        30.000000000000004,
        1.9870288730069115e-14
      ]
    },
    {
      "bufferView": 3,
      "componentType": 5126,
      "count": 186,
      "type": "VEC3",
      "min": [
        -0.986687518305152,
        -1.0,
        -0.8826984898875233
      ],
      "max": [
        0.9780256060627449,
        1.0,
        0.9712023027654377
      ]
    },
    {
      "bufferView": 4,
      "componentType": 5126,
      "count": 168,
      "type": "VEC3",
      "min": [
        2.0715302568944745e-14,
        -5.178825642236186e-15,
        -84.57664113182489
      ],
      "max": [
        106.75502704326568,
        30.000000000000004,
        1.9870288730069115e-14
      ]
    },
    {
      "bufferView": 5,
      "componentType": 5126,
      "count": 168,
      "type": "VEC3",
      "min": [
        -0.9970785059063303,
        -6.339258072804563e-16,
        -1.0
      ],
      "max": [
        0.9970785059063303,
        1.0,
        0.9991333860818051
      ]
    },
    {
      "bufferView": 6,
      "componentType": 5126,
      "count": 168,
      "type": "VEC2",
      "min": [
        -127.49991688737931,
        -0.13106358956454045
      ],
      "max": [
        136.26024649086455,
        218.8158668335018
      ]
    },
    {
      "bufferView": 7,
      "componentType": 5121,
      "count": 294,
      "type": "SCALAR"
    },
    {
      "bufferView": 8,
      "componentType": 5121,
      "count": 93,
      "type": "SCALAR"
    },
    {
      "bufferView": 8,
      "componentType": 5121,
      "count": 237,
      "type": "SCALAR",
      "byteOffset": 93
    },
    {
      "bufferView": 7,
      "componentType": 5121,
      "count": 156,
      "type": "SCALAR",
      "byteOffset": 294
    }
  ],
  "bufferViews": [
    {
      "buffer": 0,
      "byteLength": 33602
    },
    {
      "buffer": 0,
      "byteOffset": 33602,
      "byteLength": 38334
    },
    {
      "buffer": 0,
      "byteOffset": 71940,
      "byteLength": 2232,
      "target": 34962,
      "byteStride": 12
    },
    {
      "buffer": 0,
      "byteOffset": 74172,
      "byteLength": 2232,
      "target": 34962,
      "byteStride": 12
    },
    {
      "buffer": 0,
      "byteOffset": 76404,
      "byteLength": 2016,
      "target": 34962,
      "byteStride": 12
    },
    {
      "buffer": 0,
      "byteOffset": 78420,
      "byteLength": 2016,
      "target": 34962,
      "byteStride": 12
    },
    {
      "buffer": 0,
      "byteOffset": 80440,
      "byteLength": 1344,
      "target": 34962,
      "byteStride": 8
    },
    {
      "buffer": 0,
      "byteOffset": 81784,
      "byteLength": 450,
      "target": 34963
    },
    {
      "buffer": 0,
      "byteOffset": 82234,
      "byteLength": 330,
      "target": 34963
    }
  ],
  "buffers": [
    {
      "uri": "data:application/octet-stream;base64,",
      "byteLength": 82564
    }
  ]
}