{
  "asset": {
    "version": "2.0",
    "generator": "Sketchup glTF Exporter v1.2.6 by Centaur"
  },
  "scene": 0,
  "scenes": [
    {
      "nodes": [
        0
      ]
    }
  ],
  "samplers": [
    {
    }
  ],
  "nodes": [
    {
      "name": "root",
      "children": [
        1
      ]
    },
    {
      "name": "skpBC40",
      "children": [
        2,
        3,
        4,
        5,
        6
      ]
    },
    {
      "name": "Mesh01#38",
      "mesh": 0
    },
    {
      "name": "Mesh02#40",
      "mesh": 1
    },
    {
      "name": "Mesh03#34",
      "mesh": 2
    },
    {
      "name": "Mesh04#30",
      "mesh": 3
    },
    {
      "name": "Mesh05#29",
      "mesh": 4
    }
  ],
  "materials": [
    {
      "pbrMetallicRoughness": {
        "baseColorTexture": {
          "index": 0
        },
        "metallicFactor": 0.1,
        "roughnessFactor": 0.9
      },
      "name": "_auto_115"
    },
    {
      "pbrMetallicRoughness": {
        "baseColorTexture": {
          "index": 1
        },
        "metallicFactor": 0.1,
        "roughnessFactor": 0.9
      },
      "name": "_auto_131"
    },
    {
      "pbrMetallicRoughness": {
        "baseColorTexture": {
          "index": 2
        },
        "metallicFactor": 0.1,
        "roughnessFactor": 0.9
      },
      "name": "_auto_116"
    },
    {
      "pbrMetallicRoughness": {
        "baseColorTexture": {
          "index": 3
        },
        "metallicFactor": 0.1,
        "roughnessFactor": 0.9
      },
      "name": "_auto_114"
    },
    {
      "pbrMetallicRoughness": {
        "baseColorFactor": [
          1.0,
          1.0,
          1.0,
          1.0
        ],
        "metallicFactor": 0.1,
        "roughnessFactor": 0.9
      },
      "name": "_auto_"
    }
  ],
  "images": [
    {
      "bufferView": 0,
      "mimeType": "image/jpeg"
    },
    {
      "bufferView": 1,
      "mimeType": "image/jpeg"
    },
    {
      "bufferView": 2,
      "mimeType": "image/jpeg"
    },
    {
      "bufferView": 3,
      "mimeType": "image/jpeg"
    }
  ],
  "textures": [
    {
      "source": 0,
      "sampler": 0
    },
    {
      "source": 1,
      "sampler": 0
    },
    {
      "source": 2,
      "sampler": 0
    },
    {
      "source": 3,
      "sampler": 0
    }
  ],
  "meshes": [
    {
      "primitives": [
        {
          "attributes": {
            "POSITION": 2,
            "NORMAL": 3,
            "TEXCOORD_0": 4
          },
          "indices": 5,
          "mode": 4,
          "material": 0
        },
        {
          "attributes": {
            "POSITION": 2,
            "NORMAL": 3,
            "TEXCOORD_0": 4
          },
          "indices": 6,
          "mode": 4,
          "material": 1
        },
        {
          "attributes": {
            "POSITION": 2,
            "NORMAL": 3,
            "TEXCOORD_0": 4
          },
          "indices": 7,
          "mode": 4,
          "material": 2
        },
        {
          "attributes": {
            "POSITION": 2,
            "NORMAL": 3,
            "TEXCOORD_0": 4
          },
          "indices": 8,
          "mode": 4,
          "material": 3
        },
        {
          "attributes": {
            "POSITION": 0,
            "NORMAL": 1
          },
          "indices": 9,
          "mode": 4,
          "material": 4
        }
      ]
    },
    {
      "primitives": [
        {
          "attributes": {
            "POSITION": 2,
            "NORMAL": 3,
            "TEXCOORD_0": 4
          },
          "indices": 10,
          "mode": 4,
          "material": 0
        }
      ]
    },
    {
      "primitives": [
        {
          "attributes": {
            "POSITION": 2,
            "NORMAL": 3,
            "TEXCOORD_0": 4
          },
          "indices": 11,
          "mode": 4,
          "material": 0
        }
      ]
    },
    {
      "primitives": [
        {
          "attributes": {
            "POSITION": 2,
            "NORMAL": 3,
            "TEXCOORD_0": 4
          },
          "indices": 12,
          "mode": 4,
          "material": 0
        }
      ]
    },
    {
      "primitives": [
        {
          "attributes": {
            "POSITION": 2,
            "NORMAL": 3,
            "TEXCOORD_0": 4
          },
          "indices": 13,
          "mode": 4,
          "material": 0
        }
      ]
    }
  ],
  "accessors": [
    {
      "bufferView": 4,
      "componentType": 5126,
      "count": 4,
      "type": "VEC3",
      "min": [
        0.03216807500013695,
        0.016799999558925624,
        -0.04102874877175758
      ],
      "max": [
        0.0361680746067463,
        0.016799999558925627,
        -0.034028749081701726
      ]
    },
    {
      "bufferView": 5,
      "componentType": 5126,
      "count": 4,
      "type": "VEC3",
      "min": [
        7.49879891330929e-33,
        1.0,
        -6.123233995736766e-17
      ],
      "max": [
        7.49879891330929e-33,
        1.0,
        -6.123233995736766e-17
      ]
    },
    {
      "bufferView": 6,
      "componentType": 5126,
      "count": 2726,
      "type": "VEC3",
      "min": [
        -0.03989192364326136,
        -3.847108627893836e-18,
        -0.050028750536055065
      ],
      "max": [
        0.04316807429680214,
        0.016799999558925627,
        0.028061250379472283
      ]
    },
    {
      "bufferView": 7,
      "componentType": 5126,
      "count": 2726,
      "type": "VEC3",
      "min": [
        -1.0,
        -1.0,
        -1.0
      ],
      "max": [
        1.0,
        1.0,
        1.0
      ]
    },
    {
      "bufferView": 8,
      "componentType": 5126,
      "count": 2726,
      "type": "VEC2",
      "min": [
        -0.9984635710716245,
        -1.8102569221412068e-08
      ],
      "max": [
        1.999163031578064,
        12.93463993072511
      ]
    },
    {
      "bufferView": 10,
      "componentType": 5123,
      "count": 2742,
      "type": "SCALAR"
    },
    {
      "bufferView": 10,
      "componentType": 5123,
      "count": 2088,
      "type": "SCALAR",
      "byteOffset": 5484
    },
    {
      "bufferView": 10,
      "componentType": 5123,
      "count": 102,
      "type": "SCALAR",
      "byteOffset": 9660
    },
    {
      "bufferView": 10,
      "componentType": 5123,
      "count": 57,
      "type": "SCALAR",
      "byteOffset": 9864
    },
    {
      "bufferView": 9,
      "componentType": 5121,
      "count": 6,
      "type": "SCALAR"
    },
    {
      "bufferView": 10,
      "componentType": 5123,
      "count": 24,
      "type": "SCALAR",
      "byteOffset": 9978
    },
    {
      "bufferView": 10,
      "componentType": 5123,
      "count": 24,
      "type": "SCALAR",
      "byteOffset": 10026
    },
    {
      "bufferView": 10,
      "componentType": 5123,
      "count": 24,
      "type": "SCALAR",
      "byteOffset": 10074
    },
    {
      "bufferView": 10,
      "componentType": 5123,
      "count": 24,
      "type": "SCALAR",
      "byteOffset": 10122
    }
  ],
  "bufferViews": [
    {
      "buffer": 0,
      "byteLength": 244558
    },
    {
      "buffer": 0,
      "byteOffset": 244558,
      "byteLength": 177646
    },
    {
      "buffer": 0,
      "byteOffset": 422204,
      "byteLength": 198371
    },
    {
      "buffer": 0,
      "byteOffset": 620575,
      "byteLength": 1833815
    },
    {
      "buffer": 0,
      "byteOffset": 2454396,
      "byteLength": 48,
      "target": 34962,
      "byteStride": 12
    },
    {
      "buffer": 0,
      "byteOffset": 2454444,
      "byteLength": 48,
      "target": 34962,
      "byteStride": 12
    },
    {
      "buffer": 0,
      "byteOffset": 2454492,
      "byteLength": 32712,
      "target": 34962,
      "byteStride": 12
    },
    {
      "buffer": 0,
      "byteOffset": 2487204,
      "byteLength": 32712,
      "target": 34962,
      "byteStride": 12
    },
    {
      "buffer": 0,
      "byteOffset": 2519920,
      "byteLength": 21808,
      "target": 34962,
      "byteStride": 8
    },
    {
      "buffer": 0,
      "byteOffset": 2541728,
      "byteLength": 6,
      "target": 34963
    },
    {
      "buffer": 0,
      "byteOffset": 2541734,
      "byteLength": 10170,
      "target": 34963
    }
  ],
  "buffers": [
    {
      "uri": "data:application/octet-stream;base64,",
      "byteLength": 2551904
    }
  ]
}