{
  "asset": {
    "version": "2.0",
    "generator": "Sketchup glTF Exporter v1.2.6 by Centaur"
  },
  "scene": 0,
  "scenes": [
    {
      "nodes": [
        0
      ]
    }
  ],
  "samplers": [
    {
    }
  ],
  "nodes": [
    {
      "name": "root",
      "mesh": 0
    }
  ],
  "materials": [
    {
      "pbrMetallicRoughness": {
        "baseColorFactor": [
          0.2047,
          0.0892,
          0.0329,
          1.0
        ],
        "metallicFactor": 0.1,
        "roughnessFactor": 0.9
      },
      "name": ""
    },
    {
      "pbrMetallicRoughness": {
        "baseColorFactor": [
          0.3787,
          0.4479,
          0.4995,
          1.0
        ],
        "metallicFactor": 0.1,
        "roughnessFactor": 0.9
      },
      "name": "<auto>1"
    },
    {
      "pbrMetallicRoughness": {
        "baseColorTexture": {
          "index": 0
        },
        "metallicFactor": 0.1,
        "roughnessFactor": 0.9
      },
      "name": "白墙体3"
    },
    {
      "pbrMetallicRoughness": {
        "baseColorFactor": [
          0.3787,
          0.4479,
          0.4995,
          1.0
        ],
        "metallicFactor": 0.1,
        "roughnessFactor": 0.9
      },
      "name": "material"
    },
    {
      "pbrMetallicRoughness": {
        "baseColorFactor": [
          0.0135,
          0.0242,
          0.0511,
          1.0
        ],
        "metallicFactor": 0.1,
        "roughnessFactor": 0.9
      },
      "name": "jean blue"
    }
  ],
  "images": [
    {
      "bufferView": 0,
      "mimeType": "image/jpeg"
    }
  ],
  "textures": [
    {
      "source": 0,
      "sampler": 0
    }
  ],
  "meshes": [
    {
      "primitives": [
        {
          "attributes": {
            "POSITION": 0,
            "NORMAL": 1
          },
          "indices": 5,
          "mode": 4,
          "material": 0
        },
        {
          "attributes": {
            "POSITION": 0,
            "NORMAL": 1
          },
          "indices": 6,
          "mode": 4,
          "material": 1
        },
        {
          "attributes": {
            "POSITION": 2,
            "NORMAL": 3,
            "TEXCOORD_0": 4
          },
          "indices": 7,
          "mode": 4,
          "material": 2
        },
        {
          "attributes": {
            "POSITION": 0,
            "NORMAL": 1
          },
          "indices": 8,
          "mode": 4,
          "material": 3
        },
        {
          "attributes": {
            "POSITION": 0,
            "NORMAL": 1
          },
          "indices": 9,
          "mode": 4,
          "material": 4
        }
      ]
    }
  ],
  "accessors": [
    {
      "bufferView": 1,
      "componentType": 5126,
      "count": 249,
      "type": "VEC3",
      "min": [
        1.11026478810699e-14,
        -4.7797964570721206e-15,
        -78.06000000000002
      ],
      "max": [
        73.02243089346823,
        18.0,
        1.788533725192893e-14
      ]
    },
    {
      "bufferView": 2,
      "componentType": 5126,
      "count": 249,
      "type": "VEC3",
      "min": [
        -1.0,
        -1.0,
        -1.0
      ],
      "max": [
        1.0,
        1.0,
        1.0
      ]
    },
    {
      "bufferView": 3,
      "componentType": 5126,
      "count": 23,
      "type": "VEC3",
      "min": [
        1.11026478810699e-14,
        14.999999999999993,
        -78.06
      ],
      "max": [
        72.02243089346831,
        14.999999999999995,
        -45.32999999999998
      ]
    },
    {
      "bufferView": 4,
      "componentType": 5126,
      "count": 23,
      "type": "VEC3",
      "min": [
        7.49879891330929e-33,
        1.0,
        -6.123233995736766e-17
      ],
      "max": [
        7.49879891330929e-33,
        1.0,
        -6.123233995736766e-17
      ]
    },
    {
      "bufferView": 5,
      "componentType": 5126,
      "count": 23,
      "type": "VEC2",
      "min": [
        1.3222804348291393,
        11.872039728852211
      ],
      "max": [
        3.830491946008582,
        20.10007412927119
      ]
    },
    {
      "bufferView": 6,
      "componentType": 5121,
      "count": 420,
      "type": "SCALAR"
    },
    {
      "bufferView": 6,
      "componentType": 5121,
      "count": 57,
      "type": "SCALAR",
      "byteOffset": 420
    },
    {
      "bufferView": 7,
      "componentType": 5121,
      "count": 45,
      "type": "SCALAR"
    },
    {
      "bufferView": 6,
      "componentType": 5121,
      "count": 9,
      "type": "SCALAR",
      "byteOffset": 477
    },
    {
      "bufferView": 6,
      "componentType": 5121,
      "count": 15,
      "type": "SCALAR",
      "byteOffset": 486
    }
  ],
  "bufferViews": [
    {
      "buffer": 0,
      "byteLength": 2596
    },
    {
      "buffer": 0,
      "byteOffset": 2604,
      "byteLength": 2988,
      "target": 34962,
      "byteStride": 12
    },
    {
      "buffer": 0,
      "byteOffset": 5592,
      "byteLength": 2988,
      "target": 34962,
      "byteStride": 12
    },
    {
      "buffer": 0,
      "byteOffset": 8580,
      "byteLength": 276,
      "target": 34962,
      "byteStride": 12
    },
    {
      "buffer": 0,
      "byteOffset": 8856,
      "byteLength": 276,
      "target": 34962,
      "byteStride": 12
    },
    {
      "buffer": 0,
      "byteOffset": 9136,
      "byteLength": 184,
      "target": 34962,
      "byteStride": 8
    },
    {
      "buffer": 0,
      "byteOffset": 9320,
      "byteLength": 501,
      "target": 34963
    },
    {
      "buffer": 0,
      "byteOffset": 9821,
      "byteLength": 45,
      "target": 34963
    }
  ],
  "buffers": [
    {
      "uri": "data:application/octet-stream;base64,",
      "byteLength": 9866
    }
  ]
}