{
  "asset": {
    "version": "2.0",
    "generator": "Sketchup glTF Exporter v1.2.6 by Centaur"
  },
  "scene": 0,
  "scenes": [
    {
      "nodes": [
        0
      ]
    }
  ],
  "samplers": [
    {
    }
  ],
  "nodes": [
    {
      "name": "root",
      "children": [
        1
      ]
    },
    {
      "mesh": 0
    }
  ],
  "materials": [
    {
      "pbrMetallicRoughness": {
        "baseColorTexture": {
          "index": 0
        },
        "metallicFactor": 0.1,
        "roughnessFactor": 0.9
      },
      "name": "2墙体"
    },
    {
      "pbrMetallicRoughness": {
        "baseColorTexture": {
          "index": 1
        },
        "metallicFactor": 0.1,
        "roughnessFactor": 0.9
      },
      "name": "白墙体3"
    },
    {
      "pbrMetallicRoughness": {
        "baseColorTexture": {
          "index": 2
        },
        "metallicFactor": 0.1,
        "roughnessFactor": 0.9
      },
      "name": "Sketchy_Stone_Ashlar"
    },
    {
      "pbrMetallicRoughness": {
        "baseColorTexture": {
          "index": 3
        },
        "metallicFactor": 0.1,
        "roughnessFactor": 0.9
      },
      "name": "Concrete_Block_8x8_Gray"
    },
    {
      "pbrMetallicRoughness": {
        "baseColorFactor": [
          0.1011,
          0.3066,
          0.4995,
          1.0
        ],
        "metallicFactor": 0.1,
        "roughnessFactor": 0.9
      },
      "name": "material"
    }
  ],
  "images": [
    {
      "bufferView": 0,
      "mimeType": "image/jpeg"
    },
    {
      "bufferView": 1,
      "mimeType": "image/jpeg"
    },
    {
      "bufferView": 2,
      "mimeType": "image/jpeg"
    },
    {
      "bufferView": 3,
      "mimeType": "image/jpeg"
    }
  ],
  "textures": [
    {
      "source": 0,
      "sampler": 0
    },
    {
      "source": 1,
      "sampler": 0
    },
    {
      "source": 2,
      "sampler": 0
    },
    {
      "source": 3,
      "sampler": 0
    }
  ],
  "meshes": [
    {
      "primitives": [
        {
          "attributes": {
            "POSITION": 2,
            "NORMAL": 3,
            "TEXCOORD_0": 4
          },
          "indices": 5,
          "mode": 4,
          "material": 0
        },
        {
          "attributes": {
            "POSITION": 2,
            "NORMAL": 3,
            "TEXCOORD_0": 4
          },
          "indices": 6,
          "mode": 4,
          "material": 1
        },
        {
          "attributes": {
            "POSITION": 2,
            "NORMAL": 3,
            "TEXCOORD_0": 4
          },
          "indices": 7,
          "mode": 4,
          "material": 2
        },
        {
          "attributes": {
            "POSITION": 2,
            "NORMAL": 3,
            "TEXCOORD_0": 4
          },
          "indices": 8,
          "mode": 4,
          "material": 3
        },
        {
          "attributes": {
            "POSITION": 0,
            "NORMAL": 1
          },
          "indices": 9,
          "mode": 4,
          "material": 4
        }
      ]
    }
  ],
  "accessors": [
    {
      "bufferView": 4,
      "componentType": 5126,
      "count": 8,
      "type": "VEC3",
      "min": [
        1.6826647020284684e-15,
        14.999999999999996,
        -30.000000000000014
      ],
      "max": [
        18.300000000000026,
        14.999999999999998,
        -6.870000000000017
      ]
    },
    {
      "bufferView": 5,
      "componentType": 5126,
      "count": 8,
      "type": "VEC3",
      "min": [
        7.49879891330929e-33,
        1.0,
        -6.123233995736766e-17
      ],
      "max": [
        7.49879891330929e-33,
        1.0,
        -6.123233995736766e-17
      ]
    },
    {
      "bufferView": 6,
      "componentType": 5126,
      "count": 512,
      "type": "VEC3",
      "min": [
        1.6826647020284682e-15,
        -3.5098377263563105e-15,
        -57.319999999999936
      ],
      "max": [
        72.60999999999999,
        18.499999999999996,
        1.59620463800866e-14
      ]
    },
    {
      "bufferView": 7,
      "componentType": 5126,
      "count": 512,
      "type": "VEC3",
      "min": [
        -1.0,
        -1.0,
        -1.0
      ],
      "max": [
        1.0,
        1.0,
        1.0
      ]
    },
    {
      "bufferView": 8,
      "componentType": 5126,
      "count": 512,
      "type": "VEC2",
      "min": [
        -2858.6614173228336,
        -2255.692913385825
      ],
      "max": [
        2438.9763779527566,
        792.8582613592067
      ]
    },
    {
      "bufferView": 10,
      "componentType": 5123,
      "count": 168,
      "type": "SCALAR"
    },
    {
      "bufferView": 10,
      "componentType": 5123,
      "count": 546,
      "type": "SCALAR",
      "byteOffset": 336
    },
    {
      "bufferView": 10,
      "componentType": 5123,
      "count": 138,
      "type": "SCALAR",
      "byteOffset": 1428
    },
    {
      "bufferView": 10,
      "componentType": 5123,
      "count": 144,
      "type": "SCALAR",
      "byteOffset": 1704
    },
    {
      "bufferView": 9,
      "componentType": 5121,
      "count": 18,
      "type": "SCALAR"
    }
  ],
  "bufferViews": [
    {
      "buffer": 0,
      "byteLength": 38313
    },
    {
      "buffer": 0,
      "byteOffset": 38313,
      "byteLength": 2596
    },
    {
      "buffer": 0,
      "byteOffset": 40909,
      "byteLength": 33602
    },
    {
      "buffer": 0,
      "byteOffset": 74511,
      "byteLength": 10107
    },
    {
      "buffer": 0,
      "byteOffset": 84624,
      "byteLength": 96,
      "target": 34962,
      "byteStride": 12
    },
    {
      "buffer": 0,
      "byteOffset": 84720,
      "byteLength": 96,
      "target": 34962,
      "byteStride": 12
    },
    {
      "buffer": 0,
      "byteOffset": 84816,
      "byteLength": 6144,
      "target": 34962,
      "byteStride": 12
    },
    {
      "buffer": 0,
      "byteOffset": 90960,
      "byteLength": 6144,
      "target": 34962,
      "byteStride": 12
    },
    {
      "buffer": 0,
      "byteOffset": 97104,
      "byteLength": 4096,
      "target": 34962,
      "byteStride": 8
    },
    {
      "buffer": 0,
      "byteOffset": 101200,
      "byteLength": 18,
      "target": 34963
    },
    {
      "buffer": 0,
      "byteOffset": 101218,
      "byteLength": 1992,
      "target": 34963
    }
  ],
  "buffers": [
    {
      "uri": "data:application/octet-stream;base64,",
      "byteLength": 103210
    }
  ]
}