{
  "asset": {
    "version": "2.0",
    "generator": "Sketchup glTF Exporter v1.2.6 by Centaur"
  },
  "scene": 0,
  "scenes": [
    {
      "nodes": [
        0
      ]
    }
  ],
  "samplers": [
    {
    }
  ],
  "nodes": [
    {
      "name": "root",
      "children": [
        1
      ]
    },
    {
      "name": "skp629E",
      "children": [
        2,
        3,
        4,
        5,
        6
      ]
    },
    {
      "name": "Mesh01#4",
      "mesh": 0
    },
    {
      "name": "Mesh02#4",
      "mesh": 1
    },
    {
      "name": "Mesh03#1",
      "mesh": 2
    },
    {
      "name": "Mesh04#1",
      "mesh": 3
    },
    {
      "name": "Mesh05#1",
      "mesh": 4
    }
  ],
  "materials": [
    {
      "pbrMetallicRoughness": {
        "baseColorTexture": {
          "index": 0
        },
        "metallicFactor": 0.1,
        "roughnessFactor": 0.9
      },
      "name": "_auto_12"
    },
    {
      "pbrMetallicRoughness": {
        "baseColorFactor": [
          1.0,
          1.0,
          1.0,
          1.0
        ],
        "metallicFactor": 0.1,
        "roughnessFactor": 0.9
      },
      "name": "_auto_"
    },
    {
      "pbrMetallicRoughness": {
        "baseColorTexture": {
          "index": 1
        },
        "metallicFactor": 0.1,
        "roughnessFactor": 0.9
      },
      "name": "_auto_3"
    },
    {
      "pbrMetallicRoughness": {
        "baseColorTexture": {
          "index": 2
        },
        "metallicFactor": 0.1,
        "roughnessFactor": 0.9
      },
      "name": "_auto_13"
    }
  ],
  "images": [
    {
      "bufferView": 0,
      "mimeType": "image/jpeg"
    },
    {
      "bufferView": 1,
      "mimeType": "image/jpeg"
    },
    {
      "bufferView": 2,
      "mimeType": "image/jpeg"
    }
  ],
  "textures": [
    {
      "source": 0,
      "sampler": 0
    },
    {
      "source": 1,
      "sampler": 0
    },
    {
      "source": 2,
      "sampler": 0
    }
  ],
  "meshes": [
    {
      "primitives": [
        {
          "attributes": {
            "POSITION": 2,
            "NORMAL": 3,
            "TEXCOORD_0": 4
          },
          "indices": 5,
          "mode": 4,
          "material": 0
        },
        {
          "attributes": {
            "POSITION": 0,
            "NORMAL": 1
          },
          "indices": 6,
          "mode": 4,
          "material": 1
        },
        {
          "attributes": {
            "POSITION": 2,
            "NORMAL": 3,
            "TEXCOORD_0": 4
          },
          "indices": 7,
          "mode": 4,
          "material": 2
        },
        {
          "attributes": {
            "POSITION": 2,
            "NORMAL": 3,
            "TEXCOORD_0": 4
          },
          "indices": 8,
          "mode": 4,
          "material": 3
        }
      ]
    },
    {
      "primitives": [
        {
          "attributes": {
            "POSITION": 2,
            "NORMAL": 3,
            "TEXCOORD_0": 4
          },
          "indices": 9,
          "mode": 4,
          "material": 0
        }
      ]
    },
    {
      "primitives": [
        {
          "attributes": {
            "POSITION": 2,
            "NORMAL": 3,
            "TEXCOORD_0": 4
          },
          "indices": 10,
          "mode": 4,
          "material": 3
        }
      ]
    },
    {
      "primitives": [
        {
          "attributes": {
            "POSITION": 2,
            "NORMAL": 3,
            "TEXCOORD_0": 4
          },
          "indices": 11,
          "mode": 4,
          "material": 3
        }
      ]
    },
    {
      "primitives": [
        {
          "attributes": {
            "POSITION": 2,
            "NORMAL": 3,
            "TEXCOORD_0": 4
          },
          "indices": 12,
          "mode": 4,
          "material": 3
        }
      ]
    }
  ],
  "accessors": [
    {
      "bufferView": 3,
      "componentType": 5126,
      "count": 12,
      "type": "VEC3",
      "min": [
        0.011651465401174343,
        2.5481768072351484e-18,
        -0.05038511922441846
      ],
      "max": [
        0.02865146940660651,
        0.017999998986721034,
        0.041614885353218334
      ]
    },
    {
      "bufferView": 4,
      "componentType": 5126,
      "count": 12,
      "type": "VEC3",
      "min": [
        -2.4492935982947064e-16,
        -6.123233995736766e-17,
        -1.0
      ],
      "max": [
        2.4492935982947064e-16,
        1.0,
        1.0
      ]
    },
    {
      "bufferView": 5,
      "componentType": 5126,
      "count": 1409,
      "type": "VEC3",
      "min": [
        -0.023348530021188918,
        -5.872628104103584e-16,
        -0.05038511922441846
      ],
      "max": [
        0.032651467499257875,
        0.02377187142372131,
        0.05361487963117245
      ]
    },
    {
      "bufferView": 6,
      "componentType": 5126,
      "count": 1409,
      "type": "VEC3",
      "min": [
        -1.0,
        -1.0,
        -1.0
      ],
      "max": [
        1.0,
        1.0,
        1.0
      ]
    },
    {
      "bufferView": 7,
      "componentType": 5126,
      "count": 1409,
      "type": "VEC2",
      "min": [
        -22.234773635864258,
        -17.517805099487305
      ],
      "max": [
        22.234773635862275,
        1.000000000000023
      ]
    },
    {
      "bufferView": 9,
      "componentType": 5123,
      "count": 1542,
      "type": "SCALAR"
    },
    {
      "bufferView": 8,
      "componentType": 5121,
      "count": 18,
      "type": "SCALAR"
    },
    {
      "bufferView": 9,
      "componentType": 5123,
      "count": 198,
      "type": "SCALAR",
      "byteOffset": 3084
    },
    {
      "bufferView": 9,
      "componentType": 5123,
      "count": 495,
      "type": "SCALAR",
      "byteOffset": 3480
    },
    {
      "bufferView": 9,
      "componentType": 5123,
      "count": 48,
      "type": "SCALAR",
      "byteOffset": 4470
    },
    {
      "bufferView": 9,
      "componentType": 5123,
      "count": 24,
      "type": "SCALAR",
      "byteOffset": 4566
    },
    {
      "bufferView": 9,
      "componentType": 5123,
      "count": 24,
      "type": "SCALAR",
      "byteOffset": 4614
    },
    {
      "bufferView": 9,
      "componentType": 5123,
      "count": 24,
      "type": "SCALAR",
      "byteOffset": 4662
    }
  ],
  "bufferViews": [
    {
      "buffer": 0,
      "byteLength": 172496
    },
    {
      "buffer": 0,
      "byteOffset": 172496,
      "byteLength": 1833815
    },
    {
      "buffer": 0,
      "byteOffset": 2006311,
      "byteLength": 189541
    },
    {
      "buffer": 0,
      "byteOffset": 2195856,
      "byteLength": 144,
      "target": 34962,
      "byteStride": 12
    },
    {
      "buffer": 0,
      "byteOffset": 2196000,
      "byteLength": 144,
      "target": 34962,
      "byteStride": 12
    },
    {
      "buffer": 0,
      "byteOffset": 2196144,
      "byteLength": 16908,
      "target": 34962,
      "byteStride": 12
    },
    {
      "buffer": 0,
      "byteOffset": 2213052,
      "byteLength": 16908,
      "target": 34962,
      "byteStride": 12
    },
    {
      "buffer": 0,
      "byteOffset": 2229960,
      "byteLength": 11272,
      "target": 34962,
      "byteStride": 8
    },
    {
      "buffer": 0,
      "byteOffset": 2241232,
      "byteLength": 18,
      "target": 34963
    },
    {
      "buffer": 0,
      "byteOffset": 2241250,
      "byteLength": 4710,
      "target": 34963
    }
  ],
  "buffers": [
    {
      "uri": "data:application/octet-stream;base64,",
      "byteLength": 2245960
    }
  ]
}