{
  "asset": {
    "version": "2.0",
    "generator": "Sketchup glTF Exporter v1.2.6 by Centaur"
  },
  "scene": 0,
  "scenes": [
    {
      "nodes": [
        0
      ]
    }
  ],
  "samplers": [
    {
    }
  ],
  "nodes": [
    {
      "name": "root",
      "mesh": 0
    }
  ],
  "materials": [
    {
      "pbrMetallicRoughness": {
        "baseColorFactor": [
          0.3787,
          0.4479,
          0.4995,
          1.0
        ],
        "metallicFactor": 0.1,
        "roughnessFactor": 0.9
      },
      "name": "material"
    },
    {
      "pbrMetallicRoughness": {
        "baseColorTexture": {
          "index": 0
        },
        "metallicFactor": 0.1,
        "roughnessFactor": 0.9
      },
      "name": "白墙体3"
    },
    {
      "pbrMetallicRoughness": {
        "baseColorFactor": [
          0.2176,
          0.2176,
          0.2176,
          1.0
        ],
        "metallicFactor": 0.1,
        "roughnessFactor": 0.9
      },
      "name": "default material",
      "doubleSided": true
    },
    {
      "pbrMetallicRoughness": {
        "baseColorFactor": [
          0.6121,
          0.6121,
          0.6121,
          1.0
        ],
        "metallicFactor": 0.1,
        "roughnessFactor": 0.9
      },
      "name": "louti_2"
    },
    {
      "pbrMetallicRoughness": {
        "baseColorFactor": [
          0.2047,
          0.0892,
          0.0329,
          1.0
        ],
        "metallicFactor": 0.1,
        "roughnessFactor": 0.9
      },
      "name": ""
    },
    {
      "pbrMetallicRoughness": {
        "baseColorTexture": {
          "index": 1
        },
        "metallicFactor": 0.1,
        "roughnessFactor": 0.9
      },
      "name": "Sketchy_Stone_Ashlar"
    }
  ],
  "images": [
    {
      "bufferView": 0,
      "mimeType": "image/jpeg"
    },
    {
      "bufferView": 1,
      "mimeType": "image/jpeg"
    }
  ],
  "textures": [
    {
      "source": 0,
      "sampler": 0
    },
    {
      "source": 1,
      "sampler": 0
    }
  ],
  "meshes": [
    {
      "primitives": [
        {
          "attributes": {
            "POSITION": 0,
            "NORMAL": 1
          },
          "indices": 5,
          "mode": 4,
          "material": 0
        },
        {
          "attributes": {
            "POSITION": 2,
            "NORMAL": 3,
            "TEXCOORD_0": 4
          },
          "indices": 6,
          "mode": 4,
          "material": 1
        },
        {
          "attributes": {
            "POSITION": 0,
            "NORMAL": 1
          },
          "indices": 7,
          "mode": 4,
          "material": 2
        },
        {
          "attributes": {
            "POSITION": 0,
            "NORMAL": 1
          },
          "indices": 8,
          "mode": 4,
          "material": 3
        },
        {
          "attributes": {
            "POSITION": 0,
            "NORMAL": 1
          },
          "indices": 9,
          "mode": 4,
          "material": 4
        },
        {
          "attributes": {
            "POSITION": 2,
            "NORMAL": 3,
            "TEXCOORD_0": 4
          },
          "indices": 10,
          "mode": 4,
          "material": 5
        }
      ]
    }
  ],
  "accessors": [
    {
      "bufferView": 2,
      "componentType": 5126,
      "count": 77,
      "type": "VEC3",
      "min": [
        0.0,
        -3.498203581764416e-15,
        -57.130000000000024
      ],
      "max": [
        112.10999999999999,
        21.999999999999996,
        2.7459030530481947e-14
      ]
    },
    {
      "bufferView": 3,
      "componentType": 5126,
      "count": 77,
      "type": "VEC3",
      "min": [
        -1.0,
        -1.0,
        -1.0
      ],
      "max": [
        1.0,
        1.0,
        1.0
      ]
    },
    {
      "bufferView": 4,
      "componentType": 5126,
      "count": 89,
      "type": "VEC3",
      "min": [
        1.4997597826618576e-31,
        -2.623652686323309e-15,
        -43.84749999999997
      ],
      "max": [
        112.10999999999999,
        21.999999999999996,
        2.6234383731334592e-14
      ]
    },
    {
      "bufferView": 5,
      "componentType": 5126,
      "count": 89,
      "type": "VEC3",
      "min": [
        -1.0,
        -6.123233995736766e-17,
        -1.0
      ],
      "max": [
        1.0,
        1.0,
        1.0
      ]
    },
    {
      "bufferView": 6,
      "componentType": 5126,
      "count": 89,
      "type": "VEC2",
      "min": [
        -34.86805969023279,
        -7.833792978273012
      ],
      "max": [
        33.48497849869374,
        197.68866990347152
      ]
    },
    {
      "bufferView": 7,
      "componentType": 5121,
      "count": 24,
      "type": "SCALAR"
    },
    {
      "bufferView": 8,
      "componentType": 5121,
      "count": 138,
      "type": "SCALAR"
    },
    {
      "bufferView": 7,
      "componentType": 5121,
      "count": 48,
      "type": "SCALAR",
      "byteOffset": 24
    },
    {
      "bufferView": 7,
      "componentType": 5121,
      "count": 63,
      "type": "SCALAR",
      "byteOffset": 72
    },
    {
      "bufferView": 7,
      "componentType": 5121,
      "count": 24,
      "type": "SCALAR",
      "byteOffset": 135
    },
    {
      "bufferView": 8,
      "componentType": 5121,
      "count": 33,
      "type": "SCALAR",
      "byteOffset": 138
    }
  ],
  "bufferViews": [
    {
      "buffer": 0,
      "byteLength": 2596
    },
    {
      "buffer": 0,
      "byteOffset": 2596,
      "byteLength": 33602
    },
    {
      "buffer": 0,
      "byteOffset": 36204,
      "byteLength": 924,
      "target": 34962,
      "byteStride": 12
    },
    {
      "buffer": 0,
      "byteOffset": 37128,
      "byteLength": 924,
      "target": 34962,
      "byteStride": 12
    },
    {
      "buffer": 0,
      "byteOffset": 38052,
      "byteLength": 1068,
      "target": 34962,
      "byteStride": 12
    },
    {
      "buffer": 0,
      "byteOffset": 39120,
      "byteLength": 1068,
      "target": 34962,
      "byteStride": 12
    },
    {
      "buffer": 0,
      "byteOffset": 40192,
      "byteLength": 712,
      "target": 34962,
      "byteStride": 8
    },
    {
      "buffer": 0,
      "byteOffset": 40904,
      "byteLength": 159,
      "target": 34963
    },
    {
      "buffer": 0,
      "byteOffset": 41063,
      "byteLength": 171,
      "target": 34963
    }
  ],
  "buffers": [
    {
      "uri": "data:application/octet-stream;base64,",
      "byteLength": 41234
    }
  ]
}